<svg id="Layer_13" data-name="Layer 13" xmlns="http://www.w3.org/2000/svg" xmlns:xlink="http://www.w3.org/1999/xlink" width="327.26" height="295.57" viewBox="0 0 327.26 295.57"><defs><linearGradient id="linear-gradient" x1="59.42" y1="263.87" x2="320.85" y2="263.87" gradientUnits="userSpaceOnUse"><stop offset="0.13" stop-color="#81c6ed" stop-opacity="0"/><stop offset="0.19" stop-color="#81c6ed" stop-opacity="0.1"/><stop offset="0.32" stop-color="#81c6ed" stop-opacity="0.27"/><stop offset="0.43" stop-color="#81c6ed" stop-opacity="0.4"/><stop offset="0.53" stop-color="#81c6ed" stop-opacity="0.47"/><stop offset="0.6" stop-color="#81c6ed" stop-opacity="0.5"/></linearGradient><linearGradient id="linear-gradient-2" x1="1869.85" y1="263.11" x2="1869.85" y2="176.17" gradientTransform="matrix(-1, 0.01, 0.01, 1, 2088.01, -15.92)" gradientUnits="userSpaceOnUse"><stop offset="0" stop-color="#22b9a5"/><stop offset="0.28" stop-color="#22b9a5"/><stop offset="0.84" stop-color="#08968b"/><stop offset="1" stop-color="#08968b"/></linearGradient><linearGradient id="linear-gradient-3" x1="195.53" y1="261.83" x2="240.03" y2="261.83" gradientUnits="userSpaceOnUse"><stop offset="0.42" stop-color="#3673ac"/><stop offset="1" stop-color="#4896d1"/></linearGradient><linearGradient id="linear-gradient-4" x1="1188.07" y1="-210.55" x2="1120.13" y2="-148.96" gradientTransform="matrix(-0.92, 0.39, 0.39, 0.92, 1324.89, -213.48)" gradientUnits="userSpaceOnUse"><stop offset="0.13" stop-color="#cee6f7"/><stop offset="0.24" stop-color="#c7e3f6"/><stop offset="0.38" stop-color="#b5dcf4"/><stop offset="0.55" stop-color="#97cff0"/><stop offset="0.66" stop-color="#81c6ed"/></linearGradient><linearGradient id="linear-gradient-5" x1="1157.91" y1="-200.21" x2="1212.52" y2="-200.21" gradientTransform="matrix(-0.92, 0.39, 0.39, 0.92, 1324.89, -213.48)" xlink:href="#linear-gradient-2"/><linearGradient id="linear-gradient-6" x1="116.16" y1="140.55" x2="168.66" y2="140.55" gradientUnits="userSpaceOnUse"><stop offset="0.28" stop-color="#22b9a5"/><stop offset="0.84" stop-color="#02958a"/></linearGradient><linearGradient id="linear-gradient-7" x1="1919.08" y1="210.73" x2="1919.08" y2="119.97" gradientTransform="matrix(-1, 0.01, 0.01, 0.93, 2088.72, 50.81)" xlink:href="#linear-gradient-2"/><linearGradient id="linear-gradient-8" x1="1119.97" y1="-201.28" x2="1119.97" y2="-90.45" gradientTransform="matrix(-0.93, 0.37, 0.37, 0.93, 1283.7, -128.02)" gradientUnits="userSpaceOnUse"><stop offset="0.48" stop-color="#cee6f7"/><stop offset="0.58" stop-color="#c7e3f6"/><stop offset="0.72" stop-color="#b5dcf4"/><stop offset="0.89" stop-color="#97cff0"/><stop offset="1" stop-color="#81c6ed"/></linearGradient><linearGradient id="linear-gradient-9" x1="134.17" y1="261.83" x2="178.67" y2="261.83" xlink:href="#linear-gradient-3"/><linearGradient id="linear-gradient-10" x1="1094.9" y1="-169.31" x2="1147.36" y2="-221.77" gradientTransform="matrix(-0.93, 0.37, 0.37, 0.93, 1283.7, -128.02)" gradientUnits="userSpaceOnUse"><stop offset="0" stop-color="#eaf7ff"/><stop offset="0.32" stop-color="#cfe6f7"/><stop offset="0.33" stop-color="#cee6f7"/><stop offset="0.74" stop-color="#9bd1f0"/></linearGradient><linearGradient id="New_Gradient_Swatch_copy_5" x1="152.39" y1="123.66" x2="209.36" y2="106.98" gradientUnits="userSpaceOnUse"><stop offset="0" stop-color="#fff"/><stop offset="1" stop-color="#fff" stop-opacity="0"/></linearGradient><linearGradient id="linear-gradient-11" x1="602.58" y1="574.7" x2="628.1" y2="574.7" gradientTransform="matrix(-0.78, 0.62, 0.62, 0.78, 378.3, -705.42)" xlink:href="#linear-gradient-6"/><linearGradient id="linear-gradient-12" x1="126.78" y1="-90.21" x2="153.82" y2="-90.21" gradientTransform="translate(118.08 249.05) rotate(2.43)" xlink:href="#linear-gradient-3"/><linearGradient id="linear-gradient-13" x1="76.18" y1="137.93" x2="108.23" y2="137.93" gradientTransform="translate(124.54 -24.8) rotate(45)" gradientUnits="userSpaceOnUse"><stop offset="0" stop-color="#4896d1"/><stop offset="1" stop-color="#81c6ed"/></linearGradient><linearGradient id="linear-gradient-14" x1="55.43" y1="95.31" x2="34.3" y2="79.46" gradientTransform="matrix(1, 0, 0, 1, 0, 0)" xlink:href="#linear-gradient-13"/><linearGradient id="linear-gradient-15" x1="106.13" y1="173.59" x2="121.79" y2="159" gradientTransform="translate(149.71 -35.23) rotate(45)" gradientUnits="userSpaceOnUse"><stop offset="0.25" stop-color="#5d778c"/><stop offset="1" stop-color="#465a6a"/></linearGradient><linearGradient id="linear-gradient-16" x1="23.54" y1="86.97" x2="78.63" y2="119.3" gradientUnits="userSpaceOnUse"><stop offset="0" stop-color="#81c6ed" stop-opacity="0.5"/><stop offset="0.13" stop-color="#81c6ed" stop-opacity="0.47"/><stop offset="0.32" stop-color="#81c6ed" stop-opacity="0.4"/><stop offset="0.53" stop-color="#81c6ed" stop-opacity="0.27"/><stop offset="0.77" stop-color="#81c6ed" stop-opacity="0.1"/><stop offset="0.88" stop-color="#81c6ed" stop-opacity="0"/></linearGradient><linearGradient id="linear-gradient-17" x1="6.41" y1="97.99" x2="79.49" y2="97.99" gradientTransform="matrix(1, 0, 0, 1, 0, 0)" xlink:href="#linear-gradient-13"/><linearGradient id="linear-gradient-18" x1="13.01" y1="101.12" x2="67.02" y2="101.12" gradientTransform="matrix(1, 0, 0, 1, 0, 0)" xlink:href="#linear-gradient-13"/></defs><ellipse cx="190.14" cy="263.87" rx="130.72" ry="25.91" fill="url(#linear-gradient)"/><path d="M223.16,267.07c-.43-.86-10.63-21.27-13.73-39.88-3.59-21.55,4.88-45.95,5.24-47l10.38,3.65c-.08.23-7.89,22.81-4.77,41.52,2.83,17,12.61,36.55,12.71,36.75Z" fill="url(#linear-gradient-2)"/><path d="M222.2,252.86A17.65,17.65,0,0,1,240,270.32l-44.5.47S203.28,253.06,222.2,252.86Z" fill-rule="evenodd" fill="url(#linear-gradient-3)"/><rect x="149.94" y="17.89" width="2" height="41.57" transform="translate(-4.74 45.19) rotate(-16.77)" fill="#4896d1"/><circle cx="144.51" cy="17.34" r="4.04" fill="#4896d1"/><path d="M218,89,204.9,47.21a28.65,28.65,0,0,0-35.16-18.09h0a28.66,28.66,0,0,0-20.2,32.05l12,46.2Z" fill="url(#linear-gradient-4)"/><circle cx="167.57" cy="63.53" r="15.14" fill="url(#linear-gradient-5)"/><path d="M133.7,164.2l-1.22,0L121,163.7a5,5,0,1,1,.41-10l11.52.47a19.7,19.7,0,0,0,19.51-13.6l6.5-20.21a5,5,0,1,1,9.52,3.06l-6.5,20.21A29.74,29.74,0,0,1,133.7,164.2Z" fill="url(#linear-gradient-6)"/><path d="M161.71,266.33c-.32-.94-8-23.22-7.25-39.28,1.1-24.13,25.95-44.07,27-44.91l6.58,8.29c-.23.18-22.13,17.81-23,37.1-.63,14,6.61,35.13,6.68,35.34Z" fill="url(#linear-gradient-7)"/><path d="M156.57,99.35l53.89-16.54,28.87,103.07-64.91,14.53A13.69,13.69,0,0,1,158,189.62l-12.47-63.13Z" fill-rule="evenodd" fill="url(#linear-gradient-8)"/><path d="M227.52,79.48l-17.06,3.33-8.71,26.82L215.81,171a19.68,19.68,0,0,0,23.52,14.92h0a21.41,21.41,0,0,0,16-26.38l-11-41.25C236.94,91.66,227.52,79.48,227.52,79.48Z" fill="#72b7dd" fill-rule="evenodd"/><rect x="155.06" y="166.35" width="100.59" height="2" transform="translate(-34.99 55.94) rotate(-14.31)" fill="#4896d1"/><polygon points="214.23 164.06 214.68 166.01 254.35 155.9 254.1 154.94 253.84 153.96 214.23 164.06" fill="#0d6499"/><path d="M191.64,127l5.73,24.25a4.11,4.11,0,0,1-2.93,4.91l-23.77,6.4a4.1,4.1,0,0,1-5.07-3.06l-5.38-24a4.11,4.11,0,0,1,2.89-4.85L186.53,124A4.1,4.1,0,0,1,191.64,127Z" fill="#81c6ed"/><path d="M160.84,252.86a17.65,17.65,0,0,1,17.83,17.46l-44.5.47S141.92,253.06,160.84,252.86Z" fill-rule="evenodd" fill="url(#linear-gradient-9)"/><polygon points="201.75 109.63 145.51 126.49 156.57 99.35 210.46 82.81 201.75 109.63" fill-rule="evenodd" fill="url(#linear-gradient-10)"/><polygon points="201.75 109.63 145.51 126.49 145.95 125.33 202.15 108.27 201.75 109.63" fill-rule="evenodd" fill="url(#New_Gradient_Swatch_copy_5)"/><path d="M265.9,161.92a6.62,6.62,0,0,1-.77,0,5.51,5.51,0,0,1-5-5.93c1.08-13.2-1.7-23.78-8.25-31.45-10-11.68-25.39-13-25.55-13a5.5,5.5,0,1,1,.83-11c.82.06,20.16,1.68,33.08,16.8,8.53,10,12.18,23.27,10.85,39.49A5.5,5.5,0,0,1,265.9,161.92Z" fill="url(#linear-gradient-11)"/><circle cx="262.07" cy="164.86" r="13.51" fill="url(#linear-gradient-12)"/><path d="M126.5,147.5l3,9.61a13.41,13.41,0,0,1-8,16.47l-.91.34a13.39,13.39,0,0,1-17.39-8.67h0S120.58,156.46,126.5,147.5Z" fill="#4896d1"/><rect x="88.16" y="119.31" width="8.08" height="37.25" transform="translate(-70.53 105.6) rotate(-45)" fill="url(#linear-gradient-13)"/><path d="M65.68,75.26c-18.16-18.16-40-25.8-48.74-17.1h0L10.13,65l3.16,3.16C13.21,78.77,20.84,93.82,34,107s28.18,20.77,38.82,20.69L76,130.81,82.78,124h0C91.48,115.22,83.83,93.42,65.68,75.26Z" fill="url(#linear-gradient-14)"/><ellipse cx="43.56" cy="97.95" rx="20.37" ry="40.17" transform="translate(-56.5 59.49) rotate(-45)" fill="#fff"/><rect x="94.47" y="142.3" width="12.45" height="8.24" transform="translate(-74.04 114.09) rotate(-45)" fill="#37454f"/><rect x="87.95" y="140.14" width="17.94" height="5.01" rx="2.51" transform="translate(-72.48 110.31) rotate(-45)" fill="#475b6b"/><rect x="108.41" y="140.56" width="17.94" height="45.09" rx="2.84" transform="translate(-80.95 130.77) rotate(-45)" fill="url(#linear-gradient-15)"/><path d="M107.16,148.24l19.2-.77L129,157l-18.42-3.43a4.3,4.3,0,0,1-3.38-5.3Z" fill="#4896d1"/><path d="M32.51,67.9v48.58C47.31,129.35,64,134,71.27,126.71c8-8,1.68-27.12-14-42.8C49.27,75.91,40.37,70.37,32.51,67.9Z" fill="url(#linear-gradient-16)"/><path d="M10,65.07C1.28,73.82,8.92,95.65,27.1,113.83s40,25.83,48.77,17.07S77,100.32,58.8,82.14,18.79,56.32,10,65.07ZM70,125c-7.19,7.19-25.11.92-40-14s-21.19-32.84-14-40S41,70.06,56,85,77.15,117.82,70,125Z" fill="url(#linear-gradient-17)"/><path d="M178.66,149.61a1.5,1.5,0,0,1-1.78-1.15l-.35-1.59a4.89,4.89,0,0,1,2-5,3.87,3.87,0,0,0,1.43-4.41,3.87,3.87,0,0,0-7.44,2.06,1.5,1.5,0,1,1-2.93.63,6.86,6.86,0,1,1,10.66,4.17,1.89,1.89,0,0,0-.79,2l.34,1.59A1.49,1.49,0,0,1,178.66,149.61Z" fill="#cee6f7"/><circle cx="179.7" cy="153.83" r="2.33" fill="#cee6f7"/><path d="M14,74.12c-3.57,8.41,2.86,23.88,16,37s28.62,19.58,37,16c-9.92-2.07-22.1-9.16-33-20S16.06,84,14,74.12Z" opacity="0.3" fill="url(#linear-gradient-18)"/><ellipse cx="157.73" cy="66.36" rx="2.97" ry="3" transform="translate(-8.67 26.43) rotate(-9.32)" fill="#fffcc0"/><ellipse cx="169.16" cy="64.91" rx="3.33" ry="3.5" transform="translate(98.48 231.74) rotate(-88.03)" fill="#fffcc0"/><rect x="133.7" y="269.1" width="44.97" height="3" fill="#95cae5"/><rect x="195.35" y="269.1" width="44.97" height="3" fill="#95cae5"/></svg>