<svg width="663" height="293" viewBox="0 0 663 293" fill="none" xmlns="http://www.w3.org/2000/svg">
<path d="M467.79 176H469.65C470.386 175.997 471.092 176.286 471.615 176.803C472.138 177.321 472.435 178.024 472.44 178.76L472.69 239.56L652 56.9297L455.87 58.3497L317.51 199.35L317.71 248.07C317.711 248.51 317.626 248.946 317.459 249.352C317.292 249.759 317.046 250.129 316.736 250.441C316.426 250.753 316.057 251.001 315.651 251.171C315.245 251.34 314.81 251.428 314.37 251.43H312.13L311.94 205L242.94 275.32L409.49 274.62L438.49 274.5L468.14 244.29L467.79 176Z" fill="url(#paint0_linear)"/>
<path d="M355.91 60.3803L142.38 275.73L357.62 274.82L571.84 58.8203L355.91 60.3803ZM314.37 251.38H312.13L311.75 161.12H314C314.889 161.118 315.743 161.468 316.375 162.094C317.007 162.72 317.365 163.571 317.37 164.46L317.72 248.02C317.723 248.462 317.638 248.9 317.471 249.308C317.303 249.717 317.057 250.089 316.746 250.402C316.434 250.715 316.064 250.964 315.656 251.133C315.249 251.303 314.811 251.39 314.37 251.39V251.38Z" fill="url(#paint1_linear)"/>
<path d="M135.14 185.999L134.41 14.0395L268.1 13.4795L268.65 143.509" stroke="#8CDFE9" stroke-width="1.51" stroke-linecap="round" stroke-linejoin="round"/>
<path d="M55.07 132.949C56.9256 132.949 58.43 131.445 58.43 129.589C58.43 127.734 56.9256 126.229 55.07 126.229C53.2143 126.229 51.71 127.734 51.71 129.589C51.71 131.445 53.2143 132.949 55.07 132.949Z" stroke="#8CDFE9" stroke-width="1.51" stroke-linecap="round" stroke-linejoin="round"/>
<path d="M70.9699 114.49C72.8255 114.49 74.3299 112.985 74.3299 111.13C74.3299 109.274 72.8255 107.77 70.9699 107.77C69.1142 107.77 67.6099 109.274 67.6099 111.13C67.6099 112.985 69.1142 114.49 70.9699 114.49Z" stroke="#8CDFE9" stroke-width="1.51" stroke-linecap="round" stroke-linejoin="round"/>
<path d="M90.34 132.3C92.1957 132.3 93.7 130.796 93.7 128.94C93.7 127.084 92.1957 125.58 90.34 125.58C88.4843 125.58 86.98 127.084 86.98 128.94C86.98 130.796 88.4843 132.3 90.34 132.3Z" stroke="#8CDFE9" stroke-width="1.51" stroke-linecap="round" stroke-linejoin="round"/>
<path d="M110.66 98.6301C112.516 98.6301 114.02 97.1258 114.02 95.2701C114.02 93.4145 112.516 91.9102 110.66 91.9102C108.804 91.9102 107.3 93.4145 107.3 95.2701C107.3 97.1258 108.804 98.6301 110.66 98.6301Z" stroke="#8CDFE9" stroke-width="1.51" stroke-linecap="round" stroke-linejoin="round"/>
<path d="M56.8198 126.73L68.4598 113.35" stroke="#8CDFE9" stroke-width="1.51" stroke-linecap="round" stroke-linejoin="round"/>
<path d="M74.28 112.97L88.24 126.33" stroke="#8CDFE9" stroke-width="1.51" stroke-linecap="round" stroke-linejoin="round"/>
<path d="M108.93 98.1396L92.1799 126.14" stroke="#8CDFE9" stroke-width="1.51" stroke-linecap="round" stroke-linejoin="round"/>
<path d="M40.9298 114.77L11.8298 114.89" stroke="#8CDFE9" stroke-width="1.51" stroke-linecap="round" stroke-linejoin="round"/>
<path d="M40.89 104.85L15.47 104.96" stroke="#8CDFE9" stroke-width="1.51" stroke-linecap="round" stroke-linejoin="round"/>
<path d="M40.8499 94.9297L8.42993 95.0697" stroke="#8CDFE9" stroke-width="1.51" stroke-linecap="round" stroke-linejoin="round"/>
<path d="M82.5699 73.1099C99.8122 73.1099 113.79 59.1323 113.79 41.8899C113.79 24.6476 99.8122 10.6699 82.5699 10.6699C65.3275 10.6699 51.3499 24.6476 51.3499 41.8899C51.3499 59.1323 65.3275 73.1099 82.5699 73.1099Z" stroke="#8CDFE9" stroke-width="1.51" stroke-linecap="round" stroke-linejoin="round"/>
<path d="M82.4399 10.6699L82.5699 41.8899L51.3499 42.0199" stroke="#8CDFE9" stroke-width="1.51" stroke-linecap="round" stroke-linejoin="round"/>
<path d="M58.3398 61.5797L82.5698 41.8896" stroke="#8CDFE9" stroke-width="1.51" stroke-linecap="round" stroke-linejoin="round"/>
<path d="M68.25 69.6396L82.57 41.8896" stroke="#8CDFE9" stroke-width="1.51" stroke-linecap="round" stroke-linejoin="round"/>
<path d="M40.0899 42.0703L17.5999 42.1703" stroke="#8CDFE9" stroke-width="1.51" stroke-linecap="round" stroke-linejoin="round"/>
<path d="M40.13 51.9902L26.95 52.0502" stroke="#8CDFE9" stroke-width="1.51" stroke-linecap="round" stroke-linejoin="round"/>
<path d="M40.17 61.9102L14.75 62.0102" stroke="#8CDFE9" stroke-width="1.51" stroke-linecap="round" stroke-linejoin="round"/>
<path d="M173.19 32.7598L178.89 27.0098L184.63 32.7098L173.19 32.7598Z" stroke="#8CDFE9" stroke-width="1.51" stroke-linecap="round" stroke-linejoin="round"/>
<path d="M134.51 38.2096L268.2 37.6396" stroke="#8CDFE9" stroke-width="1.51" stroke-linecap="round" stroke-linejoin="round"/>
<path d="M134.45 22.6598L268.14 22.0898" stroke="#8CDFE9" stroke-width="1.51" stroke-linecap="round" stroke-linejoin="round"/>
<path d="M141.25 30.0295L163.64 29.9395" stroke="#8CDFE9" stroke-width="1.51" stroke-linecap="round" stroke-linejoin="round"/>
<path d="M196.31 29.7995L222.12 29.6895" stroke="#8CDFE9" stroke-width="1.51" stroke-linecap="round" stroke-linejoin="round"/>
<path d="M234.36 29.6403L260.17 29.5303" stroke="#8CDFE9" stroke-width="1.51" stroke-linecap="round" stroke-linejoin="round"/>
<path d="M173.26 49.0496L178.96 43.3096L184.7 48.9996L173.26 49.0496Z" stroke="#8CDFE9" stroke-width="1.51" stroke-linecap="round" stroke-linejoin="round"/>
<path d="M134.58 54.4995L268.27 53.9395" stroke="#8CDFE9" stroke-width="1.51" stroke-linecap="round" stroke-linejoin="round"/>
<path d="M141.32 46.3195L163.71 46.2295" stroke="#8CDFE9" stroke-width="1.51" stroke-linecap="round" stroke-linejoin="round"/>
<path d="M196.38 46.0895L222.19 45.9795" stroke="#8CDFE9" stroke-width="1.51" stroke-linecap="round" stroke-linejoin="round"/>
<path d="M234.43 45.9296L254.26 45.8496" stroke="#8CDFE9" stroke-width="1.51" stroke-linecap="round" stroke-linejoin="round"/>
<path d="M173.33 65.3396L179.03 59.5996L184.77 65.2996L173.33 65.3396Z" stroke="#8CDFE9" stroke-width="1.51" stroke-linecap="round" stroke-linejoin="round"/>
<path d="M134.65 70.7895L268.34 70.2295" stroke="#8CDFE9" stroke-width="1.51" stroke-linecap="round" stroke-linejoin="round"/>
<path d="M141.39 62.6195L163.77 62.5195" stroke="#8CDFE9" stroke-width="1.51" stroke-linecap="round" stroke-linejoin="round"/>
<path d="M196.45 62.39L218.43 62.29" stroke="#8CDFE9" stroke-width="1.51" stroke-linecap="round" stroke-linejoin="round"/>
<path d="M234.5 62.2301L260.31 62.1201" stroke="#8CDFE9" stroke-width="1.51" stroke-linecap="round" stroke-linejoin="round"/>
<path d="M173.45 92.2102L179.19 97.9102L184.88 92.1602L173.45 92.2102Z" stroke="#8CDFE9" stroke-width="1.51" stroke-linecap="round" stroke-linejoin="round"/>
<path d="M134.72 87.0895L268.41 86.5195" stroke="#8CDFE9" stroke-width="1.51" stroke-linecap="round" stroke-linejoin="round"/>
<path d="M141.46 78.9103L163.84 78.8203" stroke="#8CDFE9" stroke-width="1.51" stroke-linecap="round" stroke-linejoin="round"/>
<path d="M196.52 78.6803L222.33 78.5703" stroke="#8CDFE9" stroke-width="1.51" stroke-linecap="round" stroke-linejoin="round"/>
<path d="M234.56 78.5201L260.38 78.4102" stroke="#8CDFE9" stroke-width="1.51" stroke-linecap="round" stroke-linejoin="round"/>
<path d="M173.38 75.9201L179.12 81.6101L184.81 75.8701L173.38 75.9201Z" stroke="#8CDFE9" stroke-width="1.51" stroke-linecap="round" stroke-linejoin="round"/>
<path d="M134.79 103.38L268.48 102.82" stroke="#8CDFE9" stroke-width="1.51" stroke-linecap="round" stroke-linejoin="round"/>
<path d="M141.52 95.2104L163.91 95.1104" stroke="#8CDFE9" stroke-width="1.51" stroke-linecap="round" stroke-linejoin="round"/>
<path d="M196.58 94.9704L222.4 94.8604" stroke="#8CDFE9" stroke-width="1.51" stroke-linecap="round" stroke-linejoin="round"/>
<path d="M234.63 94.8095L253.66 94.7295" stroke="#8CDFE9" stroke-width="1.51" stroke-linecap="round" stroke-linejoin="round"/>
<path d="M173.54 114.219L179.23 108.479L184.98 114.169L173.54 114.219Z" stroke="#8CDFE9" stroke-width="1.51" stroke-linecap="round" stroke-linejoin="round"/>
<path d="M134.86 119.67L268.55 119.11" stroke="#8CDFE9" stroke-width="1.51" stroke-linecap="round" stroke-linejoin="round"/>
<path d="M141.59 111.5L163.98 111.4" stroke="#8CDFE9" stroke-width="1.51" stroke-linecap="round" stroke-linejoin="round"/>
<path d="M196.65 111.27L222.46 111.16" stroke="#8CDFE9" stroke-width="1.51" stroke-linecap="round" stroke-linejoin="round"/>
<path d="M234.7 111.11L260.51 111" stroke="#8CDFE9" stroke-width="1.51" stroke-linecap="round" stroke-linejoin="round"/>
<path d="M173.59 125.84L179.33 131.54L185.03 125.79L173.59 125.84Z" stroke="#8CDFE9" stroke-width="1.51" stroke-linecap="round" stroke-linejoin="round"/>
<path d="M134.93 135.97L268.62 135.4" stroke="#8CDFE9" stroke-width="1.51" stroke-linecap="round" stroke-linejoin="round"/>
<path d="M141.66 127.79L164.05 127.7" stroke="#8CDFE9" stroke-width="1.51" stroke-linecap="round" stroke-linejoin="round"/>
<path d="M196.72 127.56L222.53 127.45" stroke="#8CDFE9" stroke-width="1.51" stroke-linecap="round" stroke-linejoin="round"/>
<path d="M234.77 127.4L254.6 127.32" stroke="#8CDFE9" stroke-width="1.51" stroke-linecap="round" stroke-linejoin="round"/>
<path d="M173.68 146.81L179.37 141.07L185.11 146.76L173.68 146.81Z" stroke="#8CDFE9" stroke-width="1.51" stroke-linecap="round" stroke-linejoin="round"/>
<path d="M134.99 152.26L234.87 151.84" stroke="#8CDFE9" stroke-width="1.51" stroke-linecap="round" stroke-linejoin="round"/>
<path d="M141.73 144.09L164.12 143.99" stroke="#8CDFE9" stroke-width="1.51" stroke-linecap="round" stroke-linejoin="round"/>
<path d="M196.79 143.85L222.6 143.74" stroke="#8CDFE9" stroke-width="1.51" stroke-linecap="round" stroke-linejoin="round"/>
<path d="M234.84 143.69L260.65 143.58" stroke="#8CDFE9" stroke-width="1.51" stroke-linecap="round" stroke-linejoin="round"/>
<path d="M141.8 160.38L164.19 160.28" stroke="#8CDFE9" stroke-width="1.51" stroke-linecap="round" stroke-linejoin="round"/>
<path d="M463.43 285.12L448.47 285.18L119.23 286.57L119.19 275.82L463.39 274.37L463.43 285.12Z" fill="url(#paint2_linear)"/>
<g style="mix-blend-mode:multiply">
<g style="mix-blend-mode:multiply">
<path d="M508.6 116.19C521.457 116.19 531.88 105.767 531.88 92.9099C531.88 80.0527 521.457 69.6299 508.6 69.6299C495.743 69.6299 485.32 80.0527 485.32 92.9099C485.32 105.767 495.743 116.19 508.6 116.19Z" fill="#CEE6F7"/>
</g>
<g style="mix-blend-mode:multiply">
<path d="M508.87 180.69C521.727 180.69 532.15 170.267 532.15 157.41C532.15 144.553 521.727 134.13 508.87 134.13C496.013 134.13 485.59 144.553 485.59 157.41C485.59 170.267 496.013 180.69 508.87 180.69Z" fill="#CEE6F7"/>
</g>
<g style="mix-blend-mode:multiply">
<path d="M509.14 245.19C521.997 245.19 532.42 234.767 532.42 221.91C532.42 209.053 521.997 198.63 509.14 198.63C496.283 198.63 485.86 209.053 485.86 221.91C485.86 234.767 496.283 245.19 509.14 245.19Z" fill="#CEE6F7"/>
</g>
</g>
<path d="M311.753 161.152L183.145 161.69L183.523 251.95L312.131 251.411L311.753 161.152Z" fill="#001559"/>
<path d="M466.06 162.46H337.39V252.72H466.06V162.46Z" fill="#001559"/>
<path d="M457.238 169.853L347.729 170.312L347.87 204.011L457.379 203.553L457.238 169.853Z" fill="#1D428A"/>
<path d="M224.084 170.83L190.624 170.97L190.933 244.749L224.393 244.609L224.084 170.83Z" fill="#1D428A"/>
<path d="M263.833 170.663L230.373 170.803L230.682 244.582L264.142 244.442L263.833 170.663Z" fill="#1D428A"/>
<path d="M302.87 171.77H269.41V245.55H302.87V171.77Z" fill="#1D428A"/>
<path d="M400.48 208.47L347.891 208.69L348.035 243.23L400.625 243.01L400.48 208.47Z" fill="#1D428A"/>
<path d="M457.518 208.231L404.929 208.451L405.074 242.991L457.663 242.771L457.518 208.231Z" fill="#0091DA"/>
<path d="M209.83 252.07L299.95 161.19L311.75 161.14L312.13 251.64L209.83 252.07Z" fill="url(#paint3_linear)"/>
<path d="M504.15 112.94C517.007 112.94 527.43 102.517 527.43 89.6599C527.43 76.8027 517.007 66.3799 504.15 66.3799C491.293 66.3799 480.87 76.8027 480.87 89.6599C480.87 102.517 491.293 112.94 504.15 112.94Z" fill="white"/>
<path d="M504.42 177.44C517.277 177.44 527.7 167.017 527.7 154.16C527.7 141.303 517.277 130.88 504.42 130.88C491.563 130.88 481.14 141.303 481.14 154.16C481.14 167.017 491.563 177.44 504.42 177.44Z" fill="white"/>
<path d="M504.69 241.94C517.547 241.94 527.97 231.517 527.97 218.66C527.97 205.803 517.547 195.38 504.69 195.38C491.833 195.38 481.41 205.803 481.41 218.66C481.41 231.517 491.833 241.94 504.69 241.94Z" fill="white"/>
<path d="M504.63 203.28L504.69 218.66L512.8 210.93" stroke="#19BFD3" stroke-width="1.75" stroke-miterlimit="10"/>
<path d="M504.36 138.78L504.42 154.16L515.97 154.11" stroke="#19BFD3" stroke-width="1.75" stroke-miterlimit="10"/>
<path d="M504.08 74.2803L504.15 89.6603L513.75 99.8003" stroke="#19BFD3" stroke-width="1.75" stroke-miterlimit="10"/>
<g opacity="0.3">
<path opacity="0.3" d="M357.04 208.64L357.19 243.18" stroke="#4896D1" stroke-width="5" stroke-miterlimit="10"/>
<path opacity="0.3" d="M368.53 208.59L368.68 243.13" stroke="#4896D1" stroke-width="5" stroke-miterlimit="10"/>
<path opacity="0.3" d="M380.02 208.54L380.16 243.08" stroke="#4896D1" stroke-width="5" stroke-miterlimit="10"/>
<path opacity="0.3" d="M391.51 208.5L391.65 243.03" stroke="#4896D1" stroke-width="5" stroke-miterlimit="10"/>
</g>
<path d="M402.82 239.54L415.33 226.93L422.65 234.19L438.5 218.21L447.85 227.47L460.05 215.17" stroke="#1D2055" stroke-width="1.3" stroke-miterlimit="10"/>
<path d="M224.074 170.83L190.614 170.97L190.667 183.7L224.127 183.559L224.074 170.83Z" fill="#F7C22B"/>
<path d="M466.83 184.63L400.75 251.27L338.44 251.53L338.06 161.03L466.66 160.49L466.83 184.63Z" fill="url(#paint4_linear)"/>
<defs>
<linearGradient id="paint0_linear" x1="447.44" y1="56.9297" x2="447.44" y2="275.3" gradientUnits="userSpaceOnUse">
<stop offset="0.14" stop-color="#19BFD3" stop-opacity="0"/>
<stop offset="0.24" stop-color="#19BFD3" stop-opacity="0.14"/>
<stop offset="0.36" stop-color="#19BFD3" stop-opacity="0.28"/>
<stop offset="0.46" stop-color="#19BFD3" stop-opacity="0.37"/>
<stop offset="0.54" stop-color="#19BFD3" stop-opacity="0.4"/>
<stop offset="0.63" stop-color="#19BFD3" stop-opacity="0.37"/>
<stop offset="0.74" stop-color="#19BFD3" stop-opacity="0.29"/>
<stop offset="0.88" stop-color="#19BFD3" stop-opacity="0.15"/>
<stop offset="1" stop-color="#19BFD3" stop-opacity="0"/>
</linearGradient>
<linearGradient id="paint1_linear" x1="357.11" y1="58.7903" x2="357.11" y2="275.73" gradientUnits="userSpaceOnUse">
<stop stop-color="#22B9A5" stop-opacity="0"/>
<stop offset="0.16" stop-color="#21B9A8" stop-opacity="0.03"/>
<stop offset="0.39" stop-color="#20BAB0" stop-opacity="0.11"/>
<stop offset="0.65" stop-color="#1DBCBC" stop-opacity="0.25"/>
<stop offset="0.93" stop-color="#1ABECE" stop-opacity="0.45"/>
<stop offset="1" stop-color="#19BFD3" stop-opacity="0.5"/>
</linearGradient>
<linearGradient id="paint2_linear" x1="463.402" y1="279.755" x2="119.195" y2="281.197" gradientUnits="userSpaceOnUse">
<stop stop-color="#218FCF" stop-opacity="0"/>
<stop offset="0.11" stop-color="#218FCF" stop-opacity="0.24"/>
<stop offset="0.3" stop-color="#218FCF" stop-opacity="0.65"/>
<stop offset="0.43" stop-color="#218FCF" stop-opacity="0.9"/>
<stop offset="0.5" stop-color="#218FCF"/>
</linearGradient>
<linearGradient id="paint3_linear" x1="260.488" y1="161.261" x2="260.867" y2="251.77" gradientUnits="userSpaceOnUse">
<stop stop-color="#81C6ED" stop-opacity="0"/>
<stop offset="0.21" stop-color="#81C6ED" stop-opacity="0.03"/>
<stop offset="0.5" stop-color="#81C6ED" stop-opacity="0.1"/>
<stop offset="0.83" stop-color="#81C6ED" stop-opacity="0.23"/>
<stop offset="1" stop-color="#81C6ED" stop-opacity="0.3"/>
</linearGradient>
<linearGradient id="paint4_linear" x1="51401.1" y1="16799.4" x2="51435.6" y2="25038.4" gradientUnits="userSpaceOnUse">
<stop stop-color="#81C6ED" stop-opacity="0"/>
<stop offset="0.21" stop-color="#81C6ED" stop-opacity="0.03"/>
<stop offset="0.5" stop-color="#81C6ED" stop-opacity="0.1"/>
<stop offset="0.83" stop-color="#81C6ED" stop-opacity="0.23"/>
<stop offset="1" stop-color="#81C6ED" stop-opacity="0.3"/>
</linearGradient>
</defs>
</svg>
