<svg id="Layer_1" data-name="Layer 1" xmlns="http://www.w3.org/2000/svg" width="36" height="36" viewBox="0 0 36 36"><defs><style>.cls-1{fill:none;}.cls-2{fill:#fafafa;}.cls-3{fill:#f84e30;}</style></defs><g id="Layer_4" data-name="Layer 4"><g id="Layer_1-2" data-name="Layer 1-2"><rect class="cls-1" width="36" height="36"/><circle class="cls-2" cx="18" cy="26" r="2"/><path class="cls-2" d="M2,9.66H2V32H8V30H4V10H8V8H3.79A1.74,1.74,0,0,0,2,9.66Z"/></g><rect class="cls-2" x="14" y="8" width="4" height="2"/><polygon class="cls-2" points="32 18 32 30 28 30 28 32 34 32 34 18 32 18"/><path class="cls-2" d="M24,18V30H12V6h6V4H11.68A1.68,1.68,0,0,0,10,5.68h0V32H26V18Z"/><rect class="cls-3" x="20" y="2" width="14" height="14"/></g></svg>