<?xml version="1.0" encoding="utf-8"?>
<!-- Generator: Adobe Illustrator 21.0.2, SVG Export Plug-In . SVG Version: 6.00 Build 0)  -->
<svg version="1.1" id="Layer_1" xmlns="http://www.w3.org/2000/svg" xmlns:xlink="http://www.w3.org/1999/xlink" x="0px" y="0px"
	 viewBox="0 0 666 375" style="enable-background:new 0 0 666 375;" xml:space="preserve">
<style type="text/css">
	.st0{fill:#C1CDD4;}
	.st1{font-family:'Metropolis,"Avenir Next","Helvetica Neue",Arial,sans-serif';}
	.st2{font-size:14px;}
	.st3{font-size:12px;}
	.st4{fill:#C5E5EF;}
	.st5{fill:#49AFD9;}
	.st6{opacity:0.7;fill:#FFFFFF;enable-background:new    ;}
	.st7{fill:none;stroke:#61717D;stroke-width:2;stroke-miterlimit:10;}
	.st8{fill:#565656;}
	.st9{fill:none;stroke:#61717D;stroke-width:2;stroke-miterlimit:10;stroke-dasharray:5.97,3.98;}
	.st10{fill:#BFBFBF;}
	.st11{fill:#FFFFFF;}
	.st12{fill:#9E9E9E;}
	.st13{fill:#F3F6FA;}
	.st14{fill:#61717D;}
</style>
<title>diagram final</title>
<g id="_x33_7605d1e-8fb1-49be-8c2c-dfdc4798f3f7">
	<rect x="10" y="246.4" class="st0" width="647" height="2"/>
	<path class="st0" d="M12.1,161.5h203.7c1.7,0,3.1,1.4,3.1,3.1v65.7c0,1.7-1.4,3.1-3.1,3.1H12.1c-1.7,0-3.1-1.4-3.1-3.1v-65.7
		C9,162.9,10.4,161.5,12.1,161.5z"/>
	<path class="st0" d="M231.1,161.5h203.7c1.7,0,3.1,1.4,3.1,3.1v65.7c0,1.7-1.4,3.1-3.1,3.1H231.1c-1.7,0-3.1-1.4-3.1-3.1v-65.7
		C228,162.9,229.4,161.5,231.1,161.5z"/>
	<path class="st0" d="M450.1,161.5h203.7c1.7,0,3.1,1.4,3.1,3.1v65.7c0,1.7-1.4,3.1-3.1,3.1H450.1c-1.7,0-3.1-1.4-3.1-3.1v-65.7
		C447,162.9,448.4,161.5,450.1,161.5z"/>
	<text transform="matrix(1 0 0 1 21.29 184.04)" class="st1 st2">Storage Policy Based </text>
	<text transform="matrix(1 0 0 1 21.29 202.04)" class="st1 st2">Management (SPBM)</text>
	<text transform="matrix(1 0 0 1 241.29 184.42)" class="st1 st2">Block storage volume</text>
	<text transform="matrix(1 0 0 1 241.29 201.08)" class="st1 st3">(Improved virtual disks)</text>
	<text transform="matrix(1 0 0 1 461.63 201.08)" class="st1 st3">(vSAN File Service)</text>
	<text transform="matrix(1 0 0 1 461.96 184.42)" class="st1 st2">File share volume</text>
	<polygon class="st4" points="657,118.5 599.6,77.5 66.4,77.5 9,118.5"/>
	<path class="st5" d="M9,119.5h648l0,0v27c0,1.7-1.3,3-3,3H12c-1.7,0-3-1.3-3-3V119.5L9,119.5z"/>
	<rect x="198" y="247.9" class="st0" width="2" height="16.8"/>
	<rect x="331.9" y="247.5" class="st0" width="2" height="16.8"/>
	<rect x="467.1" y="247.5" class="st0" width="2" height="16.8"/>
	<text transform="matrix(1 0 0 1 178.68 139.3)" class="st1 st2">Cloud Native Storage control plane (vSphere)</text>
	<path class="st6" d="M35,18.5h179c1.7,0,3,1.3,3,3v85c0,1.7-1.3,3-3,3H35c-1.7,0-3-1.3-3-3v-85C32,19.8,33.3,18.5,35,18.5z"/>
	<text transform="matrix(1 0 0 1 45.75 40.16)" class="st1 st2">Kubernetes</text>
	<text transform="matrix(1 0 0 1 45.75 58.16)" class="st1 st2">Master</text>
	<path class="st7" d="M35,18.5h179c1.7,0,3,1.3,3,3v85c0,1.7-1.3,3-3,3H35c-1.7,0-3-1.3-3-3v-85C32,19.8,33.3,18.5,35,18.5z"/>
	<text transform="matrix(1 0 0 1 81.92 98.16)" class="st8 st1 st3">Cloud Provider</text>
	<path class="st6" d="M242,18.5h179c1.7,0,3,1.3,3,3v85c0,1.7-1.3,3-3,3H242c-1.7,0-3-1.3-3-3v-85C239,19.8,240.3,18.5,242,18.5z"/>
	<text transform="matrix(1 0 0 1 252.79 40.16)" class="st1 st2">Kubernetes</text>
	<text transform="matrix(1 0 0 1 252.79 58.16)" class="st1 st2">Worker</text>
	<path class="st7" d="M242,18.5h179c1.7,0,3,1.3,3,3v85c0,1.7-1.3,3-3,3H242c-1.7,0-3-1.3-3-3v-85C239,19.8,240.3,18.5,242,18.5z"/>
	<text transform="matrix(1 0 0 1 288.97 98.16)" class="st8 st1 st3">Cloud Provider</text>
	<path class="st6" d="M447,18.5h179c1.7,0,3,1.3,3,3v85c0,1.7-1.3,3-3,3H447c-1.7,0-3-1.3-3-3v-85C444,19.8,445.3,18.5,447,18.5z"/>
	<path class="st9" d="M447.4,18.5h179c1.7,0,3,1.3,3,3v85c0,1.7-1.3,3-3,3h-179c-1.7,0-3-1.3-3-3v-85
		C444.4,19.8,445.7,18.5,447.4,18.5z"/>
	<circle class="st10" cx="526" cy="62.8" r="2"/>
	<circle class="st10" cx="536.8" cy="62.8" r="2"/>
	<circle class="st10" cx="547.7" cy="62.8" r="2"/>
	<circle class="st11" cx="445.5" cy="19.4" r="13.9"/>
	<path class="st12" d="M450.9,20.9l-2.5-1.5l2.4-1.5c0.2-0.1,0.4-0.3,0.6-0.5c0.4-0.7,0.2-1.6-0.5-2.1c-0.5-0.3-1.1-0.3-1.6,0
		l-2.4,1.5V14c0-0.8-0.7-1.5-1.5-1.5S444,13.2,444,14v2.9l-2.4-1.4c-0.7-0.5-1.6-0.3-2.1,0.4c-0.5,0.7-0.3,1.6,0.4,2.1l0,0l0.2,0.1
		l2.5,1.5l-2.5,1.4c-0.2,0.1-0.4,0.3-0.6,0.5c-0.4,0.7-0.2,1.6,0.6,2c0.4,0.3,1,0.3,1.4,0L444,22v2.8c0,0.8,0.6,1.5,1.5,1.5
		c0.6,0,1.2-0.4,1.5-1c0.1-0.2,0.1-0.3,0.1-0.5v-2.9l2.4,1.4c0.7,0.5,1.6,0.3,2.1-0.4c0.5-0.7,0.3-1.6-0.4-2.1c0,0-0.1,0-0.1-0.1
		L450.9,20.9L450.9,20.9z"/>
	<text transform="matrix(1 0 0 1 179.16 329.5)" class="st1 st2">VMFS</text>
	<text transform="matrix(1 0 0 1 319.45 329.5)" class="st1 st2">NFS</text>
	<text transform="matrix(1 0 0 1 449.91 329.5)" class="st1 st2">vSAN</text>
	<path class="st13" d="M222.2,269.7c0-3.3-10.3-6-23-6s-23,2.7-23,6v36.6l0,0l0,0c0,3.3,10.3,6,23,6s23-2.7,23-6V269.7z"/>
	<path class="st14" d="M175.2,307.3c1.6,4,12.9,6,24,6c11.9,0,24-2.4,24-7v-36.6v-0.1v-0.1c0-0.1,0-0.1,0-0.2l0,0
		c0-0.1,0-0.2-0.1-0.2c-1.1-4.2-12.6-6.3-23.9-6.3c-11.9,0-24,2.4-24,7.1V307.3z M221.2,281.7c0,2-8.6,5-22,5
		c-6.8,0-13.1-0.8-17.4-2.1v2.1c5.7,1.5,11.6,2.2,17.4,2.1c9,0,18.1-1.4,22-4v9.3c0,2-8.6,5-22,5c-6.8,0-13.1-0.8-17.4-2.1v2.1
		c5.7,1.5,11.6,2.2,17.4,2.1c9,0,18.1-1.4,22-4v9.4c0,2-8.6,5-22,5s-22-3-22-5l0.1-1h-0.1v-35.7c0-2,8.6-5,22-5
		c13.2,0,21.6,2.8,22,4.9c-0.3,2-8.8,4.9-22,4.9c-6.8,0-13.1-0.8-17.4-2.1v2.1c5.7,1.5,11.6,2.2,17.4,2.1c9,0,18.1-1.4,22-4V281.7z"
		/>
	<path class="st13" d="M356.1,269.7c0-3.3-10.3-6-23-6s-23,2.7-23,6v36.6l0,0l0,0c0,3.3,10.3,6,23,6s23-2.7,23-6V269.7z"/>
	<path class="st14" d="M309.1,307.3c1.6,4,12.9,6,24,6c11.9,0,24-2.4,24-7v-36.6v-0.1v-0.1c0-0.1,0-0.1,0-0.2l0,0
		c0-0.1,0-0.2-0.1-0.2c-1.1-4.2-12.6-6.3-23.9-6.3c-11.9,0-24,2.4-24,7.1V307.3z M355.1,281.7c0,2-8.6,5-22,5
		c-6.8,0-13.1-0.8-17.4-2.1v2.1c5.7,1.5,11.6,2.2,17.4,2.1c9,0,18.1-1.4,22-4v9.3c0,2-8.6,5-22,5c-6.8,0-13.1-0.8-17.4-2.1v2.1
		c5.7,1.5,11.6,2.2,17.4,2.1c9,0,18.1-1.4,22-4v9.4c0,2-8.6,5-22,5s-22-3-22-5v-1l0,0v-35.7c0-2,8.6-5,22-5c13.2,0,21.6,2.8,22,4.9
		c-0.3,2-8.8,4.9-22,4.9c-6.8,0-13.1-0.8-17.4-2.1v2.1c5.7,1.5,11.6,2.2,17.4,2.1c9,0,18.1-1.4,22-4V281.7z"/>
	<path class="st13" d="M489.9,269.7c0-3.3-10.3-6-23-6s-23,2.7-23,6v36.6l0,0l0,0c0,3.3,10.3,6,23,6s23-2.7,23-6V269.7z"/>
	<path class="st14" d="M442.9,307.3c1.6,4,12.9,6,24,6c11.9,0,24-2.4,24-7v-36.6v-0.1v-0.1c0-0.1,0-0.1,0-0.2l0,0
		c0-0.1,0-0.2-0.1-0.2c-1.1-4.2-12.6-6.3-23.9-6.3c-11.9,0-24,2.4-24,7.1V307.3z M488.9,281.7c0,2-8.6,5-22,5
		c-6.8,0-13.2-0.8-17.5-2.1v2.1c5.7,1.5,11.6,2.2,17.5,2.1c9,0,18.1-1.4,22-4v9.3c0,2-8.6,5-22,5c-6.8,0-13.2-0.8-17.5-2.1v2.1
		c5.7,1.5,11.6,2.2,17.5,2.1c9,0,18.1-1.4,22-4v9.4c0,2-8.6,5-22,5s-22-3-22-5v-1l0,0v-35.7c0-2,8.6-5,22-5c13.2,0,21.6,2.8,22,4.9
		c-0.3,2-8.8,4.9-22,4.9c-6.8,0-13.2-0.8-17.5-2.1v2.1c5.7,1.5,11.6,2.2,17.5,2.1c9,0,18.1-1.4,22-4V281.7z"/>
</g>
</svg>
