<?xml version="1.0" encoding="UTF-8"?>
<svg width="549px" height="265px" viewBox="0 0 549 265" version="1.1" xmlns="http://www.w3.org/2000/svg" xmlns:xlink="http://www.w3.org/1999/xlink">
    <!-- Generator: Sketch 59.1 (86144) - https://sketch.com -->
    <title>File service architecture</title>
    <desc>Created with Sketch.</desc>
    <g id="Configuration" stroke="none" stroke-width="1" fill="none" fill-rule="evenodd">
        <g id="dark-theme" transform="translate(-117.000000, -92.000000)">
            <g id="File-service-architecture" transform="translate(120.000000, 92.000000)">
                <polyline id="Shape" stroke="#49AFD9" points="331.5 18.7 331.5 0.5 260.5 0.5 260.5 18.7"></polyline>
                <text id="Pod-2" font-family="Metropolis-Regular, Metropolis" font-size="11" font-weight="normal" fill="#E1F1F6">
                    <tspan x="266.11" y="14.06">Pod 2</tspan>
                </text>
                <polyline id="Shape" stroke="#49AFD9" points="253.5 18.7 253.5 0.5 148.5 0.5 148.5 18.7"></polyline>
                <text id="Pod-1" font-family="Metropolis-Regular, Metropolis" font-size="11" font-weight="normal" fill="#E1F1F6">
                    <tspan x="155.48" y="14.06">Pod 1</tspan>
                </text>
                <polyline id="Shape" stroke="#A5B8C4" stroke-width="1.6" points="390.8 47 390.8 28.8 418.7 28.8"></polyline>
                <path d="M386,47 L386,24.9 C386,24.4 386.3,24 386.8,24 C386.8,24 386.8,24 386.8,24 L422.2,24 C422.7,24 423,24.4 423,24.9 C423,24.9 423,24.9 423,24.9 L423,47" id="Shape" stroke="#61717D" stroke-width="2"></path>
                <line x1="404" y1="72.7" x2="404" y2="54.7" id="Shape" stroke="#49AFD9" stroke-width="2"></line>
                <path d="M381.5,50 L427.5,50 L427.5,50 L427.5,50.7 C427.5,52.5 426,54 424.2,54 L384.8,54 C383,54 381.5,52.5 381.5,50.7 L381.5,50 L381.5,50 Z" id="Shape" stroke="#61717D" stroke-width="2" stroke-linecap="round" stroke-linejoin="round"></path>
                <polyline id="Shape" stroke="#A5B8C4" stroke-width="1.6" points="447.8 47 447.8 28.8 475.7 28.8"></polyline>
                <path d="M443,47 L443,24.9 C443,24.4 443.3,24 443.8,24 C443.8,24 443.8,24 443.8,24 L479.2,24 C479.7,24 480,24.4 480,24.9 C480,24.9 480,24.9 480,24.9 L480,47" id="Shape" stroke="#61717D" stroke-width="2"></path>
                <line x1="461" y1="72.7" x2="461" y2="54.7" id="Shape" stroke="#49AFD9" stroke-width="2"></line>
                <path d="M438.5,50 L484.5,50 L484.5,50 L484.5,50.7 C484.5,52.5 483,54 481.2,54 L441.8,54 C440,54 438.5,52.5 438.5,50.7 L438.5,50 L438.5,50 Z" id="Shape" stroke="#61717D" stroke-width="2" stroke-linecap="round" stroke-linejoin="round"></path>
                <polyline id="Shape" stroke="#A5B8C4" stroke-width="1.6" points="503.8 47 503.8 28.8 531.7 28.8"></polyline>
                <path d="M499,47 L499,24.9 C499,24.4 499.3,24 499.8,24 C499.8,24 499.8,24 499.8,24 L535.2,24 C535.7,24 536,24.4 536,24.9 C536,24.9 536,24.9 536,24.9 L536,47" id="Shape" stroke="#61717D" stroke-width="2"></path>
                <line x1="517" y1="72.7" x2="517" y2="54.7" id="Shape" stroke="#49AFD9" stroke-width="2"></line>
                <path d="M494.5,50 L540.5,50 L540.5,50 L540.5,50.7 C540.5,52.5 539,54 537.2,54 L537.2,54 L497.8,54 C496,54 494.5,52.5 494.5,50.7 L494.5,50 L494.5,50 Z" id="Shape" stroke="#61717D" stroke-width="2" stroke-linecap="round" stroke-linejoin="round"></path>
                <line x1="145" y1="197.5" x2="145" y2="175.7" id="Shape" stroke="#919FA8" stroke-width="2"></line>
                <rect id="Rectangle-path" stroke="#B2B7B9" opacity="0.699999988" fill-rule="nonzero" x="132" y="225" width="26" height="39"></rect>
                <path d="M127,198 L163,198 C163.6,198 164,198.4 164,199 L164,263 C164,263.6 163.6,264 163,264 L127,264 C126.4,264 126,263.6 126,263 L126,199 C126,198.4 126.4,198 127,198 Z" id="Shape" stroke="#61717D" stroke-width="2" stroke-linecap="round" stroke-linejoin="round"></path>
                <line x1="134.2" y1="206" x2="155.8" y2="206" id="Shape" stroke="#61717D" stroke-width="2" stroke-linecap="round" stroke-linejoin="round"></line>
                <line x1="271" y1="197.5" x2="271" y2="175.7" id="Shape" stroke="#919FA8" stroke-width="2"></line>
                <rect id="Rectangle-path" stroke="#B2B7B9" opacity="0.699999988" fill-rule="nonzero" x="258" y="225" width="26" height="39"></rect>
                <path d="M253,198 L289,198 C289.6,198 290,198.4 290,199 L290,263 C290,263.6 289.6,264 289,264 L253,264 C252.4,264 252,263.6 252,263 L252,199 C252,198.4 252.4,198 253,198 Z" id="Shape" stroke="#61717D" stroke-width="2" stroke-linecap="round" stroke-linejoin="round"></path>
                <text id="ESXi" font-family="Metropolis-Regular, Metropolis" font-size="10" font-weight="normal" fill="#E1F1F6">
                    <tspan x="134" y="247">ESXi</tspan>
                </text>
                <text id="ESXi" font-family="Metropolis-Regular, Metropolis" font-size="10" font-weight="normal" fill="#E1F1F6">
                    <tspan x="260" y="247">ESXi</tspan>
                </text>
                <line x1="260.2" y1="206" x2="281.8" y2="206" id="Shape" stroke="#61717D" stroke-width="2" stroke-linecap="round" stroke-linejoin="round"></line>
                <line x1="397" y1="197.5" x2="397" y2="175.7" id="Shape" stroke="#919FA8" stroke-width="2"></line>
                <rect id="Rectangle-path" stroke="#B2B7B9" opacity="0.699999988" fill-rule="nonzero" x="384" y="225" width="26" height="39"></rect>
                <path d="M379,198 L415,198 C415.6,198 416,198.4 416,199 L416,263 C416,263.6 415.6,264 415,264 L379,264 C378.4,264 378,263.6 378,263 L378,199 C378,198.4 378.4,198 379,198 Z" id="Shape" stroke="#61717D" stroke-width="2" stroke-linecap="round" stroke-linejoin="round"></path>
                <line x1="386.2" y1="206" x2="407.8" y2="206" id="Shape" stroke="#61717D" stroke-width="2" stroke-linecap="round" stroke-linejoin="round"></line>
                <path d="M0,140 L542,140 L542,140 L542,171.9 C542,173.6 540.6,175 538.9,175 L3.1,175 C1.4,175 0,173.6 0,171.9 L0,171.9 L0,140 L0,140 Z" id="Shape" stroke="#919FA8" stroke-width="3" fill-rule="nonzero"></path>
                <path d="M3.1,112 L539,112 C540.7,112 542,113.4 542,115.1 L542,136 L542,136 L0,136 L0,136 L0,115.1 C0,113.4 1.4,112 3.1,112 C3,112 3,112 3.1,112 Z" id="Shape" stroke="#C1CDD4" stroke-width="3" fill-rule="nonzero"></path>
                <line x1="167" y1="70.8" x2="167" y2="55.2" id="Shape" stroke="#49AFD9" stroke-width="2"></line>
                <circle id="Oval" fill="#49AFD9" fill-rule="nonzero" cx="332.2" cy="40.7" r="1.3"></circle>
                <circle id="Oval" fill="#49AFD9" fill-rule="nonzero" cx="337.9" cy="40.7" r="1.3"></circle>
                <circle id="Oval" fill="#49AFD9" fill-rule="nonzero" cx="343.6" cy="40.7" r="1.3"></circle>
                <path d="M153.8,27 L180.2,27 C180.6,27 181,27.4 181,27.8 L181,54.3 C181,54.7 180.6,55.1 180.2,55.1 L153.8,55.1 C153.4,55.1 153,54.7 153,54.3 L153,27.8 C153,27.4 153.4,27 153.8,27 Z" id="Shape" stroke="#49AFD9" stroke-width="2" fill-rule="nonzero"></path>
                <line x1="159.5" y1="32" x2="159.5" y2="49.7" id="Shape" stroke="#89CBDF" stroke-width="1.6" stroke-linecap="round"></line>
                <line x1="164.5" y1="32" x2="164.5" y2="49.7" id="Shape" stroke="#89CBDF" stroke-width="1.6" stroke-linecap="round"></line>
                <line x1="169.5" y1="32" x2="169.5" y2="49.7" id="Shape" stroke="#89CBDF" stroke-width="1.6" stroke-linecap="round"></line>
                <line x1="174.5" y1="32" x2="174.5" y2="49.7" id="Shape" stroke="#89CBDF" stroke-width="1.6" stroke-linecap="round"></line>
                <line x1="201" y1="70.8" x2="201" y2="55.2" id="Shape" stroke="#49AFD9" stroke-width="2"></line>
                <path d="M187.8,27 L214.2,27 C214.6,27 215,27.4 215,27.8 L215,54.3 C215,54.7 214.6,55.1 214.2,55.1 L187.8,55.1 C187.4,55.1 187,54.7 187,54.3 L187,27.8 C187,27.4 187.4,27 187.8,27 Z" id="Shape" stroke="#49AFD9" stroke-width="2" fill-rule="nonzero"></path>
                <line x1="193.5" y1="32" x2="193.5" y2="49.7" id="Shape" stroke="#89CBDF" stroke-width="1.6" stroke-linecap="round"></line>
                <line x1="198.5" y1="32" x2="198.5" y2="49.7" id="Shape" stroke="#89CBDF" stroke-width="1.6" stroke-linecap="round"></line>
                <line x1="203.5" y1="32" x2="203.5" y2="49.7" id="Shape" stroke="#89CBDF" stroke-width="1.6" stroke-linecap="round"></line>
                <line x1="208.5" y1="32" x2="208.5" y2="49.7" id="Shape" stroke="#89CBDF" stroke-width="1.6" stroke-linecap="round"></line>
                <line x1="235" y1="70.8" x2="235" y2="55.2" id="Shape" stroke="#49AFD9" stroke-width="2"></line>
                <path d="M221.8,27 L248.2,27 C248.6,27 249,27.4 249,27.8 L249,54.3 C249,54.7 248.6,55.1 248.2,55.1 L221.8,55.1 C221.4,55.1 221,54.7 221,54.3 L221,27.8 C221,27.4 221.4,27 221.8,27 Z" id="Shape" stroke="#49AFD9" stroke-width="2" fill-rule="nonzero"></path>
                <line x1="227.5" y1="32" x2="227.5" y2="49.7" id="Shape" stroke="#89CBDF" stroke-width="1.6" stroke-linecap="round"></line>
                <line x1="232.5" y1="32" x2="232.5" y2="49.7" id="Shape" stroke="#89CBDF" stroke-width="1.6" stroke-linecap="round"></line>
                <line x1="237.5" y1="32" x2="237.5" y2="49.7" id="Shape" stroke="#89CBDF" stroke-width="1.6" stroke-linecap="round"></line>
                <line x1="242.5" y1="32" x2="242.5" y2="49.7" id="Shape" stroke="#89CBDF" stroke-width="1.6" stroke-linecap="round"></line>
                <line x1="279" y1="70.8" x2="279" y2="55.2" id="Shape" stroke="#49AFD9" stroke-width="2"></line>
                <path d="M265.8,27 L292.2,27 C292.6,27 293,27.4 293,27.8 L293,54.3 C293,54.7 292.6,55.1 292.2,55.1 L265.8,55.1 C265.4,55.1 265,54.7 265,54.3 L265,27.8 C265,27.4 265.4,27 265.8,27 Z" id="Shape" stroke="#49AFD9" stroke-width="2" fill-rule="nonzero"></path>
                <line x1="271.5" y1="32" x2="271.5" y2="49.7" id="Shape" stroke="#89CBDF" stroke-width="1.6" stroke-linecap="round"></line>
                <line x1="276.5" y1="32" x2="276.5" y2="49.7" id="Shape" stroke="#89CBDF" stroke-width="1.6" stroke-linecap="round"></line>
                <line x1="281.5" y1="32" x2="281.5" y2="49.7" id="Shape" stroke="#89CBDF" stroke-width="1.6" stroke-linecap="round"></line>
                <line x1="286.5" y1="32" x2="286.5" y2="49.7" id="Shape" stroke="#89CBDF" stroke-width="1.6" stroke-linecap="round"></line>
                <line x1="313" y1="70.8" x2="313" y2="55.2" id="Shape" stroke="#49AFD9" stroke-width="2"></line>
                <path d="M299.8,27 L326.2,27 C326.6,27 327,27.4 327,27.8 L327,54.3 C327,54.7 326.6,55.1 326.2,55.1 L299.8,55.1 C299.4,55.1 299,54.7 299,54.3 L299,27.8 C299,27.4 299.4,27 299.8,27 Z" id="Shape" stroke="#49AFD9" stroke-width="2" fill-rule="nonzero"></path>
                <line x1="305.5" y1="32" x2="305.5" y2="49.7" id="Shape" stroke="#89CBDF" stroke-width="1.6" stroke-linecap="round"></line>
                <line x1="310.5" y1="32" x2="310.5" y2="49.7" id="Shape" stroke="#89CBDF" stroke-width="1.6" stroke-linecap="round"></line>
                <line x1="315.5" y1="32" x2="315.5" y2="49.7" id="Shape" stroke="#89CBDF" stroke-width="1.6" stroke-linecap="round"></line>
                <line x1="320.5" y1="32" x2="320.5" y2="49.7" id="Shape" stroke="#89CBDF" stroke-width="1.6" stroke-linecap="round"></line>
                <line x1="15" y1="73.3" x2="15" y2="55.3" id="Shape" stroke="#49AFD9" stroke-width="2"></line>
                <circle id="Oval" fill="#49AFD9" fill-rule="nonzero" cx="110.7" cy="40.7" r="1.3"></circle>
                <circle id="Oval" fill="#49AFD9" fill-rule="nonzero" cx="116.4" cy="40.7" r="1.3"></circle>
                <circle id="Oval" fill="#49AFD9" fill-rule="nonzero" cx="122.1" cy="40.7" r="1.3"></circle>
                <path d="M1.8,27 L28.2,27 C28.6,27 29,27.4 29,27.8 L29,54.2 C29,54.6 28.6,55 28.2,55 L1.8,55 C1.4,55 1,54.7 1,54.2 L1,27.8 C1,27.4 1.4,27 1.8,27 Z" id="Shape" stroke="#49AFD9" stroke-width="2" fill-rule="nonzero"></path>
                <text id="VM" font-family="Metropolis-Regular, Metropolis" font-size="11" font-weight="normal" fill="#E1F1F6">
                    <tspan x="6" y="45">VM</tspan>
                </text>
                <line x1="53" y1="73.3" x2="53" y2="55.3" id="Shape" stroke="#49AFD9" stroke-width="2"></line>
                <path d="M39.8,27 L66.2,27 C66.6,27 67,27.4 67,27.8 L67,54.2 C67,54.6 66.6,55 66.2,55 L39.8,55 C39.4,55 39,54.6 39,54.2 L39,27.8 C39,27.4 39.4,27 39.8,27 Z" id="Shape" stroke="#49AFD9" stroke-width="2" fill-rule="nonzero"></path>
                <text id="VM" font-family="Metropolis-Regular, Metropolis" font-size="11" font-weight="normal" fill="#E1F1F6">
                    <tspan x="44" y="45">VM</tspan>
                </text>
                <line x1="91" y1="73.3" x2="91" y2="55.3" id="Shape" stroke="#49AFD9" stroke-width="2"></line>
                <path d="M77.8,27 L104.2,27 C104.6,27 105,27.4 105,27.8 L105,54.2 C105,54.6 104.6,55 104.2,55 L77.8,55 C77.4,55 77,54.6 77,54.2 L77,27.8 C77,27.4 77.4,27 77.8,27 Z" id="Shape" stroke="#49AFD9" stroke-width="2" fill-rule="nonzero"></path>
                <text id="VM" font-family="Metropolis-Regular, Metropolis" font-size="11" font-weight="normal" fill="#E1F1F6">
                    <tspan x="83" y="45">VM</tspan>
                </text>
                <path d="M278.320385,99.5 L270.9,106.921476 L263.479615,99.5 L3.2,99.5 C0.806562108,99.5 -1.11207467,97.6392195 -1.3794176,95.2070794 L-1.39468728,95.0261346 L-1.4,94.9 L-1.4,72.5 L543.7,72.5 L543.7,94.9 C543.7,97.3633194 541.717752,99.3455673 539.2,99.5 L278.320385,99.5 Z" id="Combined-Shape" stroke="#49AFD9" stroke-width="3" fill-rule="nonzero"></path>
                <text id="vSAN" font-family="Metropolis-Regular, Metropolis" font-size="13" font-weight="normal" fill="#E1F1F6">
                    <tspan x="254" y="161">vSAN</tspan>
                </text>
                <text id="Distributed-File-System" font-family="Metropolis-Regular, Metropolis" font-size="13" font-weight="normal" fill="#E1F1F6">
                    <tspan x="197.68" y="128.49">Distributed File System</tspan>
                </text>
                <text id="File-Share-(NFS/SMB)" font-family="Metropolis-Regular, Metropolis" font-size="13" font-weight="normal" fill="#E1F1F6">
                    <tspan x="221.1223" y="90.99">File Share (NFS/SMB)</tspan>
                </text>
                <text id="ESXi" font-family="Metropolis-Regular, Metropolis" font-size="10" font-weight="normal" fill="#E1F1F6">
                    <tspan x="386" y="242">ESXi</tspan>
                </text>
            </g>
        </g>
    </g>
</svg>