<svg xmlns="http://www.w3.org/2000/svg" width="130" height="150" viewBox="0 0 130 150"><defs><style>.cls-1{fill:#c1cdd4;}.cls-2{fill:#0079b8;opacity:0.4;}.cls-3{fill:#b9c8d1;}</style></defs><g id="Layer_3" data-name="Layer 3"><path class="cls-1" d="M65,41.36c-26,0-53-5.68-53-15.19S39,11,65,11s53,5.68,53,15.19S91.05,41.36,65,41.36ZM65,13C34.49,13,14,19.8,14,26.17S34.49,39.36,65,39.36s51-6.82,51-13.19S95.51,13,65,13Z"/><path class="cls-2" d="M70.89,43.28,65,73.61v34.17l.15-.06a18.2,18.2,0,0,0,6.57-5.7V73.29l34-34A179,179,0,0,1,70.89,43.28Z"/><path class="cls-1" d="M61.11,109.66a6.55,6.55,0,0,1-3.37-.8l-.46-.3V73.7L15.69,32A1,1,0,1,1,17.1,30.6L59.28,72.88v34.5a7.33,7.33,0,0,0,5.46-.57,17,17,0,0,0,6-5.11V72.88L105,38.63A1,1,0,0,1,106.38,40L72.72,73.7v28.63l-.17.25a19.16,19.16,0,0,1-7,6.06A10.93,10.93,0,0,1,61.11,109.66Z"/><path class="cls-3" d="M63,139c-1.31,0-2.64,0-3.94-.08a1,1,0,1,1,.08-2c2.56.09,5.22.09,7.76,0a1,1,0,1,1,.08,2C65.67,139,64.33,139,63,139Zm-11.71-.69h-.13a71.6,71.6,0,0,1-7.83-1.38A1,1,0,1,1,43.8,135a67.64,67.64,0,0,0,7.61,1.34,1,1,0,0,1-.12,2Zm23.47,0a1,1,0,0,1-.12-2,69.28,69.28,0,0,0,7.6-1.35,1,1,0,0,1,1.21.74,1,1,0,0,1-.74,1.2,68.82,68.82,0,0,1-7.83,1.39Zm-38.61-3.86a1,1,0,0,1-.44-.1C31,132.11,30,129.7,30,128.07a1,1,0,0,1,1-1,1,1,0,0,1,1,1c0,1.49,1.65,3.1,4.58,4.51a1,1,0,0,1-.43,1.9Zm53.74,0a1,1,0,0,1-.43-1.9c2.93-1.42,4.54-3,4.54-4.52a1,1,0,0,1,1-1,1,1,0,0,1,1,.93V128c0,1.63-1,4-5.67,6.32A1,1,0,0,1,89.89,134.44ZM36.07,123.61a1,1,0,0,1-.9-.56,1,1,0,0,1,.46-1.34,38.15,38.15,0,0,1,7.62-2.59,1,1,0,0,1,.47,1.94,36.59,36.59,0,0,0-7.21,2.45A1,1,0,0,1,36.07,123.61Zm53.75,0a.91.91,0,0,1-.43-.1A37,37,0,0,0,82.16,121a1,1,0,0,1-.74-1.21,1,1,0,0,1,1.21-.74,38.44,38.44,0,0,1,7.62,2.57,1,1,0,0,1-.43,1.9ZM51.2,119.72a1,1,0,0,1-.12-2c2.53-.32,5.19-.53,7.9-.63a1,1,0,0,1,1,1,1,1,0,0,1-1,1c-2.66.11-5.26.32-7.74.62Zm23.48,0h-.13c-2.47-.31-5.08-.51-7.73-.61a1,1,0,0,1,.08-2c2.7.1,5.36.31,7.9.62a1,1,0,0,1-.12,2Z"/><path class="cls-2" d="M47.27,14.36c-17,1.9-29.05,6.47-29.05,11.81,0,6,15.19,11,35.66,12.4Z"/></g></svg>