<svg width="528" height="144" viewBox="0 0 528 144" fill="none" xmlns="http://www.w3.org/2000/svg">
<path d="M0 43C0 41.3431 1.34315 40 3 40H168C169.657 40 171 41.3431 171 43V118C171 119.657 169.657 121 168 121H3C1.34314 121 0 119.657 0 118V43Z" fill="white"/>
<path fill-rule="evenodd" clip-rule="evenodd" d="M168 42H3C2.44771 42 2 42.4477 2 43V118C2 118.552 2.44772 119 3 119H168C168.552 119 169 118.552 169 118V43C169 42.4477 168.552 42 168 42ZM3 40C1.34315 40 0 41.3431 0 43V118C0 119.657 1.34314 121 3 121H168C169.657 121 171 119.657 171 118V43C171 41.3431 169.657 40 168 40H3Z" fill="#B9C8D1"/>
<path d="M282 3C282 1.34315 283.343 0 285 0H525C526.657 0 528 1.34315 528 3V70C528 71.6569 526.657 73 525 73H285C283.343 73 282 71.6569 282 70V3Z" fill="white"/>
<path fill-rule="evenodd" clip-rule="evenodd" d="M525 2H285C284.448 2 284 2.44772 284 3V70C284 70.5523 284.448 71 285 71H525C525.552 71 526 70.5523 526 70V3C526 2.44771 525.552 2 525 2ZM285 0C283.343 0 282 1.34315 282 3V70C282 71.6569 283.343 73 285 73H525C526.657 73 528 71.6569 528 70V3C528 1.34315 526.657 0 525 0H285Z" fill="#B9C8D1"/>
<path d="M304 44L315 51L304 58V44Z" fill="#B9C8D1"/>
<path d="M282 93C282 91.3431 283.343 90 285 90H411C412.657 90 414 91.3431 414 93V141C414 142.657 412.657 144 411 144H285C283.343 144 282 142.657 282 141V93Z" fill="white"/>
<path fill-rule="evenodd" clip-rule="evenodd" d="M411 92H285C284.448 92 284 92.4477 284 93V141C284 141.552 284.448 142 285 142H411C411.552 142 412 141.552 412 141V93C412 92.4477 411.552 92 411 92ZM285 90C283.343 90 282 91.3431 282 93V141C282 142.657 283.343 144 285 144H411C412.657 144 414 142.657 414 141V93C414 91.3431 412.657 90 411 90H285Z" fill="#B9C8D1" fill-opacity="0.5"/>
<path d="M293 110L304 117L293 124V110Z" fill="#DCE3E8"/>
<path fill-rule="evenodd" clip-rule="evenodd" d="M199.315 107.983C170.101 102.49 137.667 97 83 97V95C137.833 95 170.399 100.51 199.685 106.017C201.663 106.389 203.626 106.761 205.58 107.131C232.516 112.234 257.671 117 296.5 117V119C257.479 119 232.166 114.204 205.218 109.098C203.261 108.728 201.295 108.355 199.315 107.983Z" fill="#DCE3E8"/>
<path d="M208 108C208 111.314 205.314 114 202 114C198.686 114 196 111.314 196 108C196 104.686 198.686 102 202 102C205.314 102 208 104.686 208 108Z" fill="#DCE3E8"/>
<path d="M428 44L439 51L428 58V44Z" fill="#B9C8D1"/>
<path fill-rule="evenodd" clip-rule="evenodd" d="M437 52H386V50H437V52Z" fill="#B9C8D1"/>
<path fill-rule="evenodd" clip-rule="evenodd" d="M196.356 74.706C159.316 86.0739 121.424 97.5 83 97.5V95.5C121.076 95.5 158.684 84.1761 195.769 72.794C196.485 72.5744 197.2 72.3548 197.915 72.1353C234.204 60.9934 270.01 50 305 50V52C270.314 52 234.759 62.916 198.355 74.0923C197.689 74.2968 197.023 74.5014 196.356 74.706Z" fill="#B9C8D1"/>
<path opacity="0.2" d="M219 69C219 74.5228 214.523 79 209 79C203.477 79 199 74.5228 199 69C199 63.4772 203.477 59 209 59C214.523 59 219 63.4772 219 69Z" fill="#F54F47"/>
<path d="M216 69C216 72.866 212.866 76 209 76C205.134 76 202 72.866 202 69C202 65.134 205.134 62 209 62C212.866 62 216 65.134 216 69Z" fill="#F54F47"/>
<path d="M12 53C12 52.4477 12.4477 52 13 52H108C108.552 52 109 52.4477 109 53V67C109 67.5523 108.552 68 108 68H13C12.4477 68 12 67.5523 12 67V53Z" fill="#D9E4EA"/>
<path d="M12 87C12 85.3431 13.3431 84 15 84H81C82.6569 84 84 85.3431 84 87V105C84 106.657 82.6569 108 81 108H15C13.3431 108 12 106.657 12 105V87Z" fill="#EDF1F3"/>
<path fill-rule="evenodd" clip-rule="evenodd" d="M81 86H15C14.4477 86 14 86.4477 14 87V105C14 105.552 14.4477 106 15 106H81C81.5523 106 82 105.552 82 105V87C82 86.4477 81.5523 86 81 86ZM15 84C13.3431 84 12 85.3431 12 87V105C12 106.657 13.3431 108 15 108H81C82.6569 108 84 106.657 84 105V87C84 85.3431 82.6569 84 81 84H15Z" fill="#0079B8"/>
<path d="M294 13C294 12.4477 294.448 12 295 12H390C390.552 12 391 12.4477 391 13V27C391 27.5523 390.552 28 390 28H295C294.448 28 294 27.5523 294 27V13Z" fill="#D9E4EA"/>
<path d="M314 42C314 40.3431 315.343 39 317 39H383C384.657 39 386 40.3431 386 42V60C386 61.6569 384.657 63 383 63H317C315.343 63 314 61.6569 314 60V42Z" fill="#EDF1F3"/>
<path fill-rule="evenodd" clip-rule="evenodd" d="M383 41H317C316.448 41 316 41.4477 316 42V60C316 60.5523 316.448 61 317 61H383C383.552 61 384 60.5523 384 60V42C384 41.4477 383.552 41 383 41ZM317 39C315.343 39 314 40.3431 314 42V60C314 61.6569 315.343 63 317 63H383C384.657 63 386 61.6569 386 60V42C386 40.3431 384.657 39 383 39H317Z" fill="#0079B8"/>
<path d="M304 108C304 106.343 305.343 105 307 105H373C374.657 105 376 106.343 376 108V126C376 127.657 374.657 129 373 129H307C305.343 129 304 127.657 304 126V108Z" fill="#EBEFF1"/>
<path fill-rule="evenodd" clip-rule="evenodd" d="M373 107H307C306.448 107 306 107.448 306 108V126C306 126.552 306.448 127 307 127H373C373.552 127 374 126.552 374 126V108C374 107.448 373.552 107 373 107ZM307 105C305.343 105 304 106.343 304 108V126C304 127.657 305.343 129 307 129H373C374.657 129 376 127.657 376 126V108C376 106.343 374.657 105 373 105H307Z" fill="#7BB8D8"/>
<path d="M439 42C439 40.3431 440.343 39 442 39H508C509.657 39 511 40.3431 511 42V60C511 61.6569 509.657 63 508 63H442C440.343 63 439 61.6569 439 60V42Z" fill="#EDF1F3"/>
<path fill-rule="evenodd" clip-rule="evenodd" d="M508 41H442C441.448 41 441 41.4477 441 42V60C441 60.5523 441.448 61 442 61H508C508.552 61 509 60.5523 509 60V42C509 41.4477 508.552 41 508 41ZM442 39C440.343 39 439 40.3431 439 42V60C439 61.6569 440.343 63 442 63H508C509.657 63 511 61.6569 511 60V42C511 40.3431 509.657 39 508 39H442Z" fill="#0079B8"/>
<path d="M412 51C412 54.3137 409.314 57 406 57C402.686 57 400 54.3137 400 51C400 47.6863 402.686 45 406 45C409.314 45 412 47.6863 412 51Z" fill="#B9C8D1"/>
<path d="M89 96C89 99.3137 86.3137 102 83 102C79.6863 102 77 99.3137 77 96C77 92.6863 79.6863 90 83 90C86.3137 90 89 92.6863 89 96Z" fill="#B9C8D1"/>
</svg>
