<svg xmlns="http://www.w3.org/2000/svg" width="264.66" height="162.5" viewBox="0 0 264.66 162.5"><title>ES-no settings selected-dk</title><g id="addd7e7e-ecc1-476e-ac56-0d11b79db600" data-name="Layer 2"><rect x="27.02" y="115.74" width="14.86" height="14.46" rx="1.93" fill="#c1cdd4" opacity="0.2"/><rect x="48.18" y="115.74" width="14.86" height="14.46" rx="1.93" fill="#c1cdd4" opacity="0.2"/><rect x="27.02" y="137.14" width="14.86" height="14.46" rx="1.93" fill="#c1cdd4" opacity="0.2"/><rect x="6.25" y="115.74" width="14.86" height="14.46" rx="1.93" fill="#c1cdd4" opacity="0.2"/><rect x="6.25" y="137.14" width="14.86" height="14.46" rx="1.93" fill="#c1cdd4" opacity="0.2"/><rect x="48.18" y="137.14" width="14.86" height="14.46" rx="1.93" fill="#c1cdd4" opacity="0.2"/><path d="M40,131.19H29A2.93,2.93,0,0,1,26,128.26V117.67A2.93,2.93,0,0,1,29,114.74H40a2.93,2.93,0,0,1,2.93,2.93v10.59A2.93,2.93,0,0,1,40,131.19ZM29,116.74a.93.93,0,0,0-.93.93v10.59a.93.93,0,0,0,.93.93H40a.93.93,0,0,0,.93-.93V117.67a.93.93,0,0,0-.93-.93Z" fill="#c1cdd4"/><path d="M61.1,131.19h-11a2.93,2.93,0,0,1-2.93-2.93V117.67a2.93,2.93,0,0,1,2.93-2.93h11A2.94,2.94,0,0,1,64,117.67v10.59A2.94,2.94,0,0,1,61.1,131.19Zm-11-14.45a.92.92,0,0,0-.93.93v10.59a.93.93,0,0,0,.93.93h11a.94.94,0,0,0,.94-.93V117.67a.93.93,0,0,0-.94-.93Z" fill="#c1cdd4"/><path d="M40,152.6H29A2.93,2.93,0,0,1,26,149.67V139.08A2.94,2.94,0,0,1,29,136.14H40a2.94,2.94,0,0,1,2.93,2.94v10.59A2.93,2.93,0,0,1,40,152.6ZM29,138.14a.94.94,0,0,0-.93.94v10.59a.93.93,0,0,0,.93.93H40a.93.93,0,0,0,.93-.93V139.08a.94.94,0,0,0-.93-.94Z" fill="#c1cdd4"/><path d="M19.18,131.19h-11a2.93,2.93,0,0,1-2.93-2.93V117.67a2.93,2.93,0,0,1,2.93-2.93h11a2.93,2.93,0,0,1,2.93,2.93v10.59A2.93,2.93,0,0,1,19.18,131.19Zm-11-14.45a.93.93,0,0,0-.93.93v10.59a.93.93,0,0,0,.93.93h11a.93.93,0,0,0,.93-.93V117.67a.93.93,0,0,0-.93-.93Z" fill="#c1cdd4"/><path d="M19.18,152.6h-11a2.93,2.93,0,0,1-2.93-2.93V139.08a2.94,2.94,0,0,1,2.93-2.94h11a2.94,2.94,0,0,1,2.93,2.94v10.59A2.93,2.93,0,0,1,19.18,152.6Zm-11-14.46a.94.94,0,0,0-.93.94v10.59a.93.93,0,0,0,.93.93h11a.93.93,0,0,0,.93-.93V139.08a.94.94,0,0,0-.93-.94Z" fill="#c1cdd4"/><path d="M61.1,152.6h-11a2.93,2.93,0,0,1-2.93-2.93V139.08a2.94,2.94,0,0,1,2.93-2.94h11A2.94,2.94,0,0,1,64,139.08v10.59A2.94,2.94,0,0,1,61.1,152.6Zm-11-14.46a.93.93,0,0,0-.93.94v10.59a.93.93,0,0,0,.93.93h11a.94.94,0,0,0,.94-.93V139.08a.94.94,0,0,0-.94-.94Z" fill="#c1cdd4"/><g opacity="0.5"><path d="M134.15,16.61a33.68,33.68,0,0,0-33.68,33.67c0,.7,0,1.39.07,2.07h9.12q-.09-1-.09-2.07a24.58,24.58,0,1,1,49.16,0c0,.7,0,1.39-.1,2.07h9.12c0-.68.07-1.37.07-2.07A33.68,33.68,0,0,0,134.15,16.61Z" fill="#0079b8"/></g><path d="M134.15,98.93a48.65,48.65,0,1,1,48.64-48.65A48.7,48.7,0,0,1,134.15,98.93Zm0-95.29a46.65,46.65,0,1,0,46.64,46.64A46.7,46.7,0,0,0,134.15,3.64Z" fill="#c1cdd4"/><path d="M123.61,90.65l-.26,0a41.75,41.75,0,1,1,45.37-63.74A1,1,0,0,1,167.06,28a39.75,39.75,0,1,0-43.19,60.69,1,1,0,0,1-.26,2Z" fill="#c1cdd4"/><path d="M134.15,19.11a1,1,0,0,1-1-1V13.45a1,1,0,1,1,2,0v4.66A1,1,0,0,1,134.15,19.11Z" fill="#c1cdd4"/><path d="M134.15,87.16a1,1,0,0,1-1-1V81.5a1,1,0,0,1,2,0v4.66A1,1,0,0,1,134.15,87.16Z" fill="#c1cdd4"/><path d="M123.31,21a1,1,0,0,1-.94-.66L120.77,16a1,1,0,0,1,1.88-.69l1.6,4.38a1,1,0,0,1-.6,1.28A1.06,1.06,0,0,1,123.31,21Z" fill="#c1cdd4"/><path d="M146.58,85a1,1,0,0,1-.94-.65l-1.59-4.38a1,1,0,1,1,1.88-.68l1.59,4.37a1,1,0,0,1-.6,1.28A1,1,0,0,1,146.58,85Z" fill="#c1cdd4"/><path d="M113.77,26.52a1,1,0,0,1-.76-.35l-3-3.57a1,1,0,0,1,1.54-1.28l3,3.56a1,1,0,0,1-.12,1.41A1,1,0,0,1,113.77,26.52Z" fill="#c1cdd4"/><path d="M157.51,78.65a1,1,0,0,1-.76-.36l-3-3.56a1,1,0,0,1,1.54-1.29l3,3.57a1,1,0,0,1-.77,1.64Z" fill="#c1cdd4"/><path d="M106.7,35a1,1,0,0,1-.5-.14l-4-2.32a1,1,0,1,1,1-1.74l4,2.33a1,1,0,0,1-.5,1.87Z" fill="#c1cdd4"/><path d="M165.63,69a1,1,0,0,1-.5-.13l-4-2.33a1,1,0,1,1,1-1.73l4,2.32a1,1,0,0,1-.5,1.87Z" fill="#c1cdd4"/><path d="M102.93,45.3h-.17l-4.59-.81a1,1,0,0,1,.35-2l4.59.81a1,1,0,0,1-.18,2Z" fill="#c1cdd4"/><path d="M170,57.12l-.18,0-4.58-.81a1,1,0,0,1-.81-1.15,1,1,0,0,1,1.15-.82l4.59.81a1,1,0,0,1-.17,2Z" fill="#c1cdd4"/><path d="M98.35,57.12a1,1,0,0,1-.18-2l4.59-.81a1,1,0,0,1,1.16.82,1,1,0,0,1-.81,1.15l-4.59.81Z" fill="#c1cdd4"/><path d="M165.36,45.3a1,1,0,0,1-.17-2l4.58-.81a1,1,0,0,1,.35,2l-4.59.81Z" fill="#c1cdd4"/><path d="M102.67,69a1,1,0,0,1-.5-1.87l4-2.32a1,1,0,0,1,1.36.36,1,1,0,0,1-.36,1.37l-4,2.33A1,1,0,0,1,102.67,69Z" fill="#c1cdd4"/><path d="M161.6,35a1,1,0,0,1-.5-1.87l4-2.33a1,1,0,0,1,1,1.74l-4,2.32A1,1,0,0,1,161.6,35Z" fill="#c1cdd4"/><path d="M110.78,78.65A1,1,0,0,1,110,77l3-3.57a1,1,0,0,1,1.53,1.29l-3,3.56A1,1,0,0,1,110.78,78.65Z" fill="#c1cdd4"/><path d="M154.52,26.52a1,1,0,0,1-.64-.23,1,1,0,0,1-.13-1.41l3-3.56a1,1,0,0,1,1.4-.13,1,1,0,0,1,.13,1.41l-3,3.57A1,1,0,0,1,154.52,26.52Z" fill="#c1cdd4"/><path d="M121.71,85a1,1,0,0,1-.34-.06,1,1,0,0,1-.6-1.28l1.6-4.37a1,1,0,0,1,1.28-.6,1,1,0,0,1,.6,1.28l-1.6,4.38A1,1,0,0,1,121.71,85Z" fill="#c1cdd4"/><path d="M145,21a1.07,1.07,0,0,1-.35-.06,1,1,0,0,1-.59-1.28l1.59-4.38a1,1,0,0,1,1.88.69l-1.59,4.37A1,1,0,0,1,145,21Z" fill="#c1cdd4"/><path d="M40.46,99.17A36.94,36.94,0,1,1,77.35,62.24,37,37,0,0,1,40.46,99.17Zm0-71.87A34.94,34.94,0,1,0,75.35,62.24,35,35,0,0,0,40.46,27.3Z" fill="#c1cdd4"/><path d="M40.46,39a1,1,0,0,1-1-1V34.46a1,1,0,0,1,2,0V38A1,1,0,0,1,40.46,39Z" fill="#c1cdd4"/><path d="M32.29,40.41a1,1,0,0,1-.94-.66l-1.2-3.29A1,1,0,1,1,32,35.77l1.2,3.3a1,1,0,0,1-.6,1.28A1,1,0,0,1,32.29,40.41Z" fill="#c1cdd4"/><path d="M25.11,44.56a1,1,0,0,1-.77-.35l-2.25-2.69a1,1,0,0,1,1.53-1.29l2.25,2.69a1,1,0,0,1-.76,1.64Z" fill="#c1cdd4"/><path d="M19.78,50.92a1,1,0,0,1-.5-.13l-3-1.76a1,1,0,0,1-.37-1.36,1,1,0,0,1,1.37-.37l3,1.76a1,1,0,0,1,.36,1.37A1,1,0,0,1,19.78,50.92Z" fill="#c1cdd4"/><path d="M16.94,58.73l-.17,0-3.46-.61a1,1,0,0,1-.81-1.16,1,1,0,0,1,1.16-.81l3.46.61a1,1,0,0,1-.18,2Z" fill="#c1cdd4"/><path d="M64,58.73a1,1,0,0,1-.18-2l3.46-.61a1,1,0,0,1,1.16.81,1,1,0,0,1-.81,1.16l-3.46.61Z" fill="#c1cdd4"/><path d="M61.13,50.92a1,1,0,0,1-.86-.49,1,1,0,0,1,.36-1.37l3-1.76a1,1,0,0,1,1.37.37A1,1,0,0,1,64.67,49l-3,1.76A1,1,0,0,1,61.13,50.92Z" fill="#c1cdd4"/><path d="M55.8,44.56A1,1,0,0,1,55,42.92l2.25-2.69a1,1,0,1,1,1.53,1.29l-2.25,2.69A1,1,0,0,1,55.8,44.56Z" fill="#c1cdd4"/><path d="M48.62,40.41a1,1,0,0,1-.34-.06,1,1,0,0,1-.6-1.28l1.2-3.3a1,1,0,1,1,1.88.69l-1.2,3.29A1,1,0,0,1,48.62,40.41Z" fill="#c1cdd4"/><path d="M39.38,67.8a1,1,0,0,1-.39-.08,4.3,4.3,0,1,1,4.71-7,1,1,0,1,1-1.41,1.41,2.31,2.31,0,1,0-2.52,3.76,1,1,0,0,1-.39,1.92Z" fill="#0079b8"/><g opacity="0.5"><path d="M40.46,39.06a21.21,21.21,0,0,0-21.2,21.22c0,.44,0,.87,0,1.3h5.52c0-.43-.06-.86-.06-1.3a15.7,15.7,0,1,1,31.39,0c0,.44,0,.87-.06,1.3h5.52c0-.43,0-.86,0-1.3A21.21,21.21,0,0,0,40.46,39.06Z" fill="#0079b8"/></g><path d="M26.07,54a15.75,15.75,0,0,1,7-7.59L30.5,41.54a21.29,21.29,0,0,0-9.38,10Z" fill="#0079b8"/><path d="M40.66,73.88a10.12,10.12,0,0,1-9.28-6.12H9.23l-.13-.85a33.13,33.13,0,0,1-.34-4.67A31.69,31.69,0,0,1,66.7,44.45L65,45.57A29.7,29.7,0,0,0,11,65.76h21.8l.24.67a8.09,8.09,0,0,0,15.3,0l.24-.67H65.81v2H49.94A10.12,10.12,0,0,1,40.66,73.88Z" fill="#c1cdd4"/><path d="M40.66,61.45a1,1,0,0,1-1-1V42.27a1,1,0,0,1,2,0V60.45A1,1,0,0,1,40.66,61.45Z" fill="#0079b8"/><path d="M134.42,57.67a5.38,5.38,0,1,1,3.81-9.18,1,1,0,0,1,0,1.41,1,1,0,0,1-1.42,0,3.38,3.38,0,1,0-2.39,5.77,1,1,0,0,1,0,2Z" fill="#0079b8"/><path d="M134.45,48.17a1,1,0,0,1-1-1V23.61a1,1,0,0,1,2,0V47.17A1,1,0,0,1,134.45,48.17Z" fill="#0079b8"/><path d="M225.86,39A23.58,23.58,0,0,0,205,51.67l10.53,5.64a11.64,11.64,0,0,1,20.66-.15l10.54-5.63A23.58,23.58,0,0,0,225.86,39Z" fill="#0079b8" opacity="0.5"/><path d="M225.86,99.18a36.58,36.58,0,1,1,36.57-36.57A36.61,36.61,0,0,1,225.86,99.18Zm0-71.15a34.58,34.58,0,1,0,34.57,34.58A34.62,34.62,0,0,0,225.86,28Z" fill="#c1cdd4"/><path d="M218.22,91.7a1.15,1.15,0,0,1-.26,0,30.1,30.1,0,1,1,32.71-46A1,1,0,1,1,249,46.83a28.1,28.1,0,1,0-30.53,42.91,1,1,0,0,1-.26,2Z" fill="#c1cdd4"/><path d="M186.37,156.93H80.88a3.8,3.8,0,0,1-3.8-3.8V111.52a3.8,3.8,0,0,1,3.8-3.8H186.37a3.8,3.8,0,0,1,3.8,3.8v41.61A3.81,3.81,0,0,1,186.37,156.93ZM80.88,109.72a1.81,1.81,0,0,0-1.8,1.8v41.61a1.81,1.81,0,0,0,1.8,1.8H186.37a1.81,1.81,0,0,0,1.8-1.8V111.52a1.81,1.81,0,0,0-1.8-1.8Z" fill="#c1cdd4"/><path d="M106.26,133.11a7,7,0,0,0,1.06-3.71,7.12,7.12,0,0,0-.7-3.06l-6.33,3.49Z" fill="#c1cdd4" opacity="0.4"/><path d="M93.92,126.31a7,7,0,0,0,.36,6.83l6-3.31Z" fill="#c1cdd4" opacity="0.4"/><path d="M106.82,144.94H93.61a1,1,0,0,1,0-2h13.21a1,1,0,0,1,0,2Z" fill="#c1cdd4"/><path d="M225.86,69.12a6.51,6.51,0,1,1,6.51-6.51A6.52,6.52,0,0,1,225.86,69.12Zm0-11a4.51,4.51,0,1,0,4.51,4.51A4.51,4.51,0,0,0,225.86,58.1Z" fill="#0079b8"/><circle cx="225.86" cy="62.61" r="1.86" fill="#0079b8"/><path d="M226,42.14a1,1,0,0,1-1-1V36.61a1,1,0,1,1,2,0v4.53A1,1,0,0,1,226,42.14Z" fill="#c1cdd4"/><path d="M226,89.6a1,1,0,0,1-1-1V84.07a1,1,0,0,1,2,0V88.6A1,1,0,0,1,226,89.6Z" fill="#c1cdd4"/><path d="M213.41,46.24a1,1,0,0,1-.81-.41l-2.67-3.67A1,1,0,0,1,211.55,41l2.67,3.66a1,1,0,0,1-.23,1.4A1,1,0,0,1,213.41,46.24Z" fill="#c1cdd4"/><path d="M241.3,84.64a1,1,0,0,1-.81-.41l-2.66-3.67a1,1,0,0,1,1.62-1.18l2.66,3.67a1,1,0,0,1-.81,1.59Z" fill="#c1cdd4"/><path d="M205.61,57a1.1,1.1,0,0,1-.31,0L201,55.53a1,1,0,0,1,.62-1.91l4.31,1.4a1,1,0,0,1,.64,1.26A1,1,0,0,1,205.61,57Z" fill="#c1cdd4"/><path d="M250.75,71.64a1.06,1.06,0,0,1-.31,0l-4.31-1.4a1,1,0,0,1-.65-1.26,1,1,0,0,1,1.27-.64l4.31,1.4a1,1,0,0,1-.31,2Z" fill="#c1cdd4"/><path d="M201.3,71.64a1,1,0,0,1-1-.69,1,1,0,0,1,.64-1.26l4.31-1.4a1,1,0,0,1,.62,1.9l-4.31,1.4A1.12,1.12,0,0,1,201.3,71.64Z" fill="#c1cdd4"/><path d="M246.44,57a1,1,0,0,1-.31-1.95l4.31-1.4a1,1,0,0,1,.62,1.91l-4.31,1.4A1.15,1.15,0,0,1,246.44,57Z" fill="#c1cdd4"/><path d="M210.74,84.64a1,1,0,0,1-.81-1.59l2.67-3.67a1,1,0,0,1,1.62,1.18l-2.67,3.67A1,1,0,0,1,210.74,84.64Z" fill="#c1cdd4"/><path d="M238.64,46.24a1,1,0,0,1-.59-.19,1,1,0,0,1-.22-1.4L240.49,41a1,1,0,0,1,1.4-.22,1,1,0,0,1,.22,1.39l-2.66,3.67A1,1,0,0,1,238.64,46.24Z" fill="#c1cdd4"/><circle cx="100.27" cy="114.84" r="1.25" fill="#c1cdd4"/><path d="M140,133.11A7,7,0,0,0,141,129.4a7.12,7.12,0,0,0-.7-3.06L134,129.83Z" fill="#c1cdd4" opacity="0.4"/><path d="M127.61,126.31a7,7,0,0,0,.36,6.83l6-3.31Z" fill="#c1cdd4" opacity="0.4"/><path d="M140.51,144.94H127.29a1,1,0,0,1,0-2h13.22a1,1,0,0,1,0,2Z" fill="#c1cdd4"/><circle cx="133.95" cy="114.84" r="1.25" fill="#c1cdd4"/><path d="M173.64,133.11a7,7,0,0,0,.35-6.77l-6.32,3.49Z" fill="#c1cdd4" opacity="0.4"/><path d="M161.29,126.31a7.12,7.12,0,0,0-.71,3.09,7,7,0,0,0,1.07,3.74l6-3.31Z" fill="#c1cdd4" opacity="0.4"/><path d="M174.19,144.94H161a1,1,0,1,1,0-2h13.21a1,1,0,0,1,0,2Z" fill="#c1cdd4"/><circle cx="167.64" cy="114.84" r="1.25" fill="#c1cdd4"/><path d="M209.18,137.28v-28a.55.55,0,0,1,1.09,0,1,1,0,1,0,2,0,2.55,2.55,0,0,0-5.09,0v28Z" fill="#c1cdd4"/><path d="M227.51,137.28v-28a.55.55,0,0,1,1.09,0,1,1,0,0,0,2,0,2.55,2.55,0,0,0-5.09,0v28Z" fill="#c1cdd4"/><path d="M245.84,137.28v-28a.55.55,0,0,1,1.09,0,1,1,0,0,0,2,0,2.55,2.55,0,0,0-5.09,0v28Z" fill="#c1cdd4"/><path d="M249.52,147.52h-8.25a4,4,0,0,1-4-4v-.16a4,4,0,0,1,4-4h8.25a4,4,0,0,1,4,4v.16A4,4,0,0,1,249.52,147.52Zm-8.25-6.58a2.41,2.41,0,0,0-2.41,2.41v.16a2.41,2.41,0,0,0,2.41,2.41h8.25a2.41,2.41,0,0,0,2.41-2.41v-.16a2.41,2.41,0,0,0-2.41-2.41Z" fill="#b9c8d1"/><path d="M213.18,147.52h-8.26a4,4,0,0,1-4-4v-.16a4,4,0,0,1,4-4h8.26a4,4,0,0,1,4,4v.16A4,4,0,0,1,213.18,147.52Zm-8.26-6.58a2.41,2.41,0,0,0-2.41,2.41v.16a2.41,2.41,0,0,0,2.41,2.41h8.26a2.41,2.41,0,0,0,2.4-2.41v-.16a2.41,2.41,0,0,0-2.4-2.41Z" fill="#b9c8d1"/><path d="M231.35,147.52H223.1a4,4,0,0,1-4-4v-.16a4,4,0,0,1,4-4h8.25a4,4,0,0,1,4,4v.16A4,4,0,0,1,231.35,147.52Zm-8.25-6.58a2.41,2.41,0,0,0-2.41,2.41v.16a2.41,2.41,0,0,0,2.41,2.41h8.25a2.41,2.41,0,0,0,2.41-2.41v-.16a2.41,2.41,0,0,0-2.41-2.41Z" fill="#b9c8d1"/><path d="M170.31,119.62v1.88a8.33,8.33,0,1,1-3.39-.42v4.12a.7.7,0,1,0,1.4,0v-5h0v-1c-.22,0-.44,0-.67,0a10.2,10.2,0,1,0,2.67.37Z" fill="#c1cdd4"/><path d="M136.63,119.62v1.88a8.33,8.33,0,1,1-3.4-.42v4.12a.7.7,0,1,0,1.4,0v-5h0v-1c-.23,0-.45,0-.68,0a10.19,10.19,0,1,0,2.68.37Z" fill="#c1cdd4"/><path d="M102.94,119.62v1.88a8.33,8.33,0,1,1-3.4-.42v4.12a.7.7,0,1,0,1.4,0v-5h0v-1c-.23,0-.45,0-.68,0a10.19,10.19,0,1,0,2.68.37Z" fill="#c1cdd4"/><path d="M226.84,57V44.92a1,1,0,1,0-2,0V57Z" fill="#0079b8"/><path d="M224.84,68.26v8.21a1,1,0,0,0,2,0V68.26Z" fill="#0079b8"/><path d="M207.18,146.53v8.26a1,1,0,1,0,2,0v-8.26Z" fill="#b9c8d1"/><path d="M243.84,146.53v8.26a1,1,0,0,0,2,0v-8.26Z" fill="#b9c8d1"/><path d="M225.51,146.53v8.26a1,1,0,0,0,2,0v-8.26Z" fill="#b9c8d1"/></g></svg>