<svg id="Layer_1" data-name="Layer 1" xmlns="http://www.w3.org/2000/svg" xmlns:xlink="http://www.w3.org/1999/xlink" width="350" height="372" viewBox="0 0 350 372"><defs><style>.cls-1,.cls-9{fill:none;}.cls-2{fill:url(#linear-gradient);}.cls-3{fill:url(#linear-gradient-2);}.cls-10,.cls-12,.cls-14,.cls-15,.cls-16,.cls-4{fill-rule:evenodd;}.cls-4{fill:url(#linear-gradient-3);}.cls-5{fill:#4996d2;}.cls-6{fill:url(#linear-gradient-4);}.cls-7{fill:url(#linear-gradient-5);}.cls-8{fill:url(#linear-gradient-6);}.cls-9{stroke-miterlimit:10;stroke-width:11px;stroke:url(#linear-gradient-7);}.cls-10{fill:url(#linear-gradient-8);}.cls-11{fill:#83c6ed;}.cls-12{fill:#74b8dd;}.cls-13{fill:#116599;}.cls-14{fill:url(#linear-gradient-9);}.cls-15{fill:url(#linear-gradient-10);}.cls-16{fill:url(#linear-gradient-11);}.cls-17{fill:url(#linear-gradient-12);}.cls-18{fill:url(#linear-gradient-13);}.cls-19{fill:#fcf8c2;}.cls-20{fill:#97cae4;}.cls-21{fill:url(#linear-gradient-14);}.cls-22{fill:url(#linear-gradient-15);}.cls-23{fill:url(#linear-gradient-16);}.cls-24{fill:#8c9ba3;opacity:0.4;isolation:isolate;}.cls-25{fill:#cde5f7;}.cls-26{clip-path:url(#clip-path);}.cls-27{fill:#f0f2f4;}.cls-28{fill:#eff2f4;}.cls-29{fill:#eef1f3;}.cls-30{fill:#edf0f2;}.cls-31{fill:#eceff2;}.cls-32{fill:#ebeef1;}.cls-33{fill:#eaedf0;}.cls-34{fill:#e9edf0;}.cls-35{fill:#e8ecef;}.cls-36{fill:#e7ebee;}.cls-37{fill:#e6eaee;}.cls-38{fill:#e5eaed;}.cls-39{fill:#e4e9ed;}.cls-40{fill:#e3e8ec;}.cls-41{fill:#e2e7eb;}.cls-42{fill:#e1e6eb;}.cls-43{fill:#e0e6ea;}.cls-44{fill:#dfe5ea;}.cls-45{fill:#dee4e9;}.cls-46{fill:#dde3e8;}.cls-47{fill:#dce3e8;}.cls-48{fill:#dbe2e7;}.cls-49{fill:#dae1e7;}.cls-50{fill:#d9e1e6;}.cls-51{fill:#b1bfc9;}.cls-52{fill:#626771;}.cls-53{fill:url(#linear-gradient-17);}.cls-54{fill:url(#linear-gradient-18);}</style><linearGradient id="linear-gradient" x1="136.45" y1="35.57" x2="316.17" y2="35.57" gradientTransform="matrix(1, 0, 0, -1, 0, 374)" gradientUnits="userSpaceOnUse"><stop offset="0.13" stop-color="#83c6ed" stop-opacity="0"/><stop offset="0.19" stop-color="#83c6ed" stop-opacity="0.1"/><stop offset="0.32" stop-color="#83c6ed" stop-opacity="0.27"/><stop offset="0.43" stop-color="#83c6ed" stop-opacity="0.4"/><stop offset="0.53" stop-color="#83c6ed" stop-opacity="0.47"/><stop offset="0.6" stop-color="#83c6ed" stop-opacity="0.5"/></linearGradient><linearGradient id="linear-gradient-2" x1="40.16" y1="30.47" x2="40.16" y2="117.43" gradientTransform="translate(301.93 367.64) rotate(179.43)" gradientUnits="userSpaceOnUse"><stop offset="0" stop-color="#24b9a4"/><stop offset="0.28" stop-color="#24b9a4"/><stop offset="0.84" stop-color="#0e968c"/><stop offset="1" stop-color="#0e968c"/></linearGradient><linearGradient id="linear-gradient-3" x1="235.94" y1="41.7" x2="280.45" y2="41.7" gradientTransform="matrix(1, 0, 0, -1, 0, 374)" gradientUnits="userSpaceOnUse"><stop offset="0.42" stop-color="#3874ad"/><stop offset="1" stop-color="#4996d2"/></linearGradient><linearGradient id="linear-gradient-4" x1="-351.82" y1="289.38" x2="-419.76" y2="227.8" gradientTransform="translate(-90.29 467.82) rotate(169.59)" gradientUnits="userSpaceOnUse"><stop offset="0.13" stop-color="#cde5f7"/><stop offset="0.24" stop-color="#c6e2f6"/><stop offset="0.39" stop-color="#b4dbf4"/><stop offset="0.56" stop-color="#96cef0"/><stop offset="0.66" stop-color="#83c6ed"/></linearGradient><linearGradient id="linear-gradient-5" x1="-380.87" y1="278.39" x2="-326.26" y2="278.39" gradientTransform="translate(-90.29 467.82) rotate(169.59)" xlink:href="#linear-gradient-2"/><linearGradient id="linear-gradient-6" x1="89.69" y1="49.85" x2="89.69" y2="140.61" gradientTransform="matrix(-1, 0.01, -0.01, -0.93, 302.45, 383.67)" xlink:href="#linear-gradient-2"/><linearGradient id="linear-gradient-7" x1="143.26" y1="182.93" x2="216.91" y2="182.93" gradientTransform="matrix(1, 0, 0, -1, 0, 374)" gradientUnits="userSpaceOnUse"><stop offset="0.28" stop-color="#24b9a4"/><stop offset="0.84" stop-color="#0a968b"/></linearGradient><linearGradient id="linear-gradient-8" x1="-488.63" y1="277.3" x2="-488.63" y2="166.47" gradientTransform="translate(-217.74 520.3) rotate(169.59)" gradientUnits="userSpaceOnUse"><stop offset="0.48" stop-color="#cde5f7"/><stop offset="0.58" stop-color="#c6e2f6"/><stop offset="0.73" stop-color="#b4dbf4"/><stop offset="0.91" stop-color="#96cef0"/><stop offset="1" stop-color="#83c6ed"/></linearGradient><linearGradient id="linear-gradient-9" x1="174.58" y1="41.7" x2="219.09" y2="41.7" xlink:href="#linear-gradient-3"/><linearGradient id="linear-gradient-10" x1="-512.72" y1="246.59" x2="-460.27" y2="299.04" gradientTransform="translate(-217.74 520.3) rotate(169.59)" gradientUnits="userSpaceOnUse"><stop offset="0" stop-color="#eaf7fe"/><stop offset="0.31" stop-color="#cfe6f7"/><stop offset="0.33" stop-color="#cde5f7"/><stop offset="0.74" stop-color="#9bd0f0"/></linearGradient><linearGradient id="linear-gradient-11" x1="147.48" y1="256.59" x2="204.45" y2="273.27" gradientTransform="matrix(0.98, 0.19, 0.19, -0.98, -3.35, 409.23)" gradientUnits="userSpaceOnUse"><stop offset="0" stop-color="#fff"/><stop offset="1" stop-color="#fff" stop-opacity="0"/></linearGradient><linearGradient id="linear-gradient-12" x1="-790.91" y1="-675.01" x2="-765.42" y2="-675.01" gradientTransform="translate(-713.83 -36.21) rotate(152.67)" xlink:href="#linear-gradient-7"/><linearGradient id="linear-gradient-13" x1="134.93" y1="508.49" x2="161.96" y2="508.49" gradientTransform="matrix(0.97, 0.23, 0.23, -0.97, 27.74, 707.02)" xlink:href="#linear-gradient-3"/><linearGradient id="linear-gradient-14" x1="57.07" y1="383.03" x2="59.79" y2="124.52" gradientTransform="matrix(1, 0, 0, -1, 0, 374)" gradientUnits="userSpaceOnUse"><stop offset="0.07" stop-color="#fff"/><stop offset="0.46" stop-color="#c9d1d6"/><stop offset="0.66" stop-color="#adb8c0"/></linearGradient><linearGradient id="linear-gradient-15" x1="8.7" y1="429.26" x2="123.08" y2="-18.72" gradientTransform="matrix(1, 0, 0, -1, 0, 374)" gradientUnits="userSpaceOnUse"><stop offset="0.19" stop-color="#fff"/><stop offset="0.63" stop-color="#c7d3dc"/></linearGradient><linearGradient id="linear-gradient-16" x1="155.97" y1="71.22" x2="191.13" y2="71.22" gradientTransform="matrix(0.96, -0.27, -0.27, -0.96, -8.53, 296.74)" xlink:href="#linear-gradient-3"/><clipPath id="clip-path"><path class="cls-1" d="M68.42,118.92c7,3.54,12.76,21.82,12.76,40.82s-5.71,34.41-12.76,34.41-12.76-18.27-12.76-40.82,5.71-38,12.76-34.41"/></clipPath><linearGradient id="linear-gradient-17" x1="68.06" y1="260.91" x2="69.07" y2="157.45" gradientTransform="matrix(1, 0, 0, -1, 0, 374)" gradientUnits="userSpaceOnUse"><stop offset="0.14" stop-color="#d0e3f2"/><stop offset="0.17" stop-color="#cadded"/><stop offset="0.48" stop-color="#849cb3"/><stop offset="0.68" stop-color="#849cb3"/><stop offset="0.72" stop-color="#92a9be"/><stop offset="0.86" stop-color="#bfd3e4"/><stop offset="0.93" stop-color="#d0e3f2"/></linearGradient><linearGradient id="linear-gradient-18" x1="73.81" y1="235.16" x2="82.67" y2="173.82" gradientTransform="matrix(1, 0, 0, -1, 0, 374)" gradientUnits="userSpaceOnUse"><stop offset="0.07" stop-color="#a1b6c8"/><stop offset="0.16" stop-color="#a5bacc"/><stop offset="0.69" stop-color="#b6cbdd"/><stop offset="0.82" stop-color="#c7d8e6"/><stop offset="0.98" stop-color="#d8e5ef"/></linearGradient></defs><ellipse class="cls-2" cx="226.31" cy="338.43" rx="89.86" ry="17.11"/><path class="cls-3" d="M263.58,337.55c-.44-.86-10.63-21.27-13.73-39.88-3.59-21.55,4.88-46,5.24-47l10.37,3.65c-.07.23-7.88,22.8-4.76,41.52,2.83,17,12.61,36.55,12.7,36.75Z"/><path class="cls-4" d="M262.61,323.34a17.65,17.65,0,0,1,17.84,17.46h0l-44.51.47S243.7,323.54,262.61,323.34Z"/><rect class="cls-5" x="208" y="80.17" width="2" height="41.57" transform="translate(-6.76 15.39) rotate(-4.15)"/><circle class="cls-5" cx="207.39" cy="78.72" r="4.04"/><path class="cls-6" d="M263.46,164.7l-3.66-43.63a28.65,28.65,0,0,0-30.36-25.33h0a28.65,28.65,0,0,0-26.71,26.86l1.61,47.7Z"/><circle class="cls-7" cx="219.81" cy="128.84" r="15.14"/><path class="cls-8" d="M202.13,336.81c-.32-.94-8-23.22-7.25-39.28,1.1-24.14,25.94-44.07,27-44.91l6.57,8.29c-.22.18-22.12,17.81-23,37.1-.64,14,6.61,35.13,6.68,35.34Z"/><path class="cls-9" d="M146.55,190.29l12.94,9.64a25.74,25.74,0,0,0,34.62-3.58l18.68-21.07"/><path class="cls-10" d="M199.17,162.47l56.06-5.95L263.9,263.2l-66.5,1.88a13.71,13.71,0,0,1-14.07-13.32v-.42l-.2-64.35Z"/><path class="cls-11" d="M227.25,223.72l-25.66,2.22a4.25,4.25,0,0,1-4.6-3.85c0-.07,0-.14,0-.21l-.9-23.33a4.25,4.25,0,0,1,3.87-4.39l25.66-2.22a4.25,4.25,0,0,1,4.59,3.86c0,.07,0,.13,0,.2l.91,23.33A4.25,4.25,0,0,1,227.25,223.72Z"/><path class="cls-12" d="M272.62,156.5H255.23l-13.66,24.66,2.09,62.89a19.66,19.66,0,0,0,20.15,19.15h.09a21.39,21.39,0,0,0,20.76-22c0-.28,0-.55,0-.83l-2.89-42.59C279.54,170.26,272.62,156.5,272.62,156.5Z"/><polygon class="cls-5" points="183.93 242.42 183.82 240.42 243.38 238 243.49 239.99 183.93 242.42"/><polygon class="cls-13" points="243.42 238 243.49 239.99 284.14 235.11 284.09 234.12 284.02 233.12 243.42 238"/><path class="cls-14" d="M201.25,323.34a17.65,17.65,0,0,1,17.84,17.46h0l-44.51.47S182.33,323.54,201.25,323.34Z"/><polygon class="cls-15" points="241.56 181.18 183.13 186.99 199.17 162.47 255.23 156.52 241.56 181.18"/><polygon class="cls-16" points="241.56 181.18 183.13 186.99 183.79 185.95 242.22 179.93 241.56 181.18"/><path class="cls-17" d="M294.55,244.75a5,5,0,0,1-.75-.15,5.5,5.5,0,0,1-3.81-6.78c3.58-12.75,2.87-23.67-2.1-32.45-7.57-13.37-22.44-17.58-22.59-17.62a5.5,5.5,0,0,1,2.77-10.65l.13,0c.79.22,19.47,5.5,29.27,22.81,6.46,11.42,7.51,25.16,3.11,40.84A5.49,5.49,0,0,1,294.55,244.75Z"/><circle class="cls-18" cx="290.23" cy="246.91" r="13.51"/><ellipse class="cls-19" cx="209.45" cy="127.46" rx="3" ry="2.97" transform="translate(70.15 329.23) rotate(-86.7)"/><ellipse class="cls-19" cx="220.71" cy="126.82" rx="3.34" ry="3.51" transform="translate(42.82 308.9) rotate(-75.55)"/><rect class="cls-20" x="174.12" y="339.58" width="44.97" height="3"/><rect class="cls-20" x="235.77" y="339.58" width="44.97" height="3"/><path class="cls-21" d="M92.49,250.82l-6.81,9.63L32.29,275a4.23,4.23,0,0,1-5.16-3A4.16,4.16,0,0,1,27,270.9V41.9a4.23,4.23,0,0,1,5.6-4L86.66,56.78c3.83,1.53,4.18,3.23,4.17,5.88Z"/><path class="cls-22" d="M89.43,254.07,41,266.51a4.4,4.4,0,0,1-5.36-3.16,4.63,4.63,0,0,1-.14-1.11V44.71a4.4,4.4,0,0,1,5.83-4.17l48.4,16.59a4.4,4.4,0,0,1,3,4.17V249.8A4.42,4.42,0,0,1,89.43,254.07Z"/><path class="cls-23" d="M151.55,172.56a13.5,13.5,0,0,0-13.32-1,30.25,30.25,0,0,1-6.3-.62,65.94,65.94,0,0,1-11.45-3.19l-1.86,5.74a110.51,110.51,0,0,0,11.64,3.65c.59.14,1.18.26,1.78.36a13.51,13.51,0,1,0,19.51-5Z"/><path class="cls-24" d="M69.26,81.26h0c-.54-2.33-1.29-4.19-2.2-5A1.39,1.39,0,0,0,65.53,76c-1.69.8-2.29,5.33-2.29,9.3,0,5.6,1.19,12.38,3.18,14a1.48,1.48,0,0,0,1,.39,1.25,1.25,0,0,0,.54-.12c1.69-.79,2.3-5.32,2.3-9.3A42,42,0,0,0,69.26,81.26ZM66,76.93a.24.24,0,0,1,.12,0,.64.64,0,0,1,.35.17c.63.52,1.29,2,1.8,4.14l-3.43,11a41.49,41.49,0,0,1-.55-6.86C64.24,80.39,65.12,77.32,66,76.93Zm1.57,21.8a.46.46,0,0,1-.46-.14c-.66-.55-1.34-2.14-1.86-4.37l3.44-11a40.19,40.19,0,0,1,.6,7.1c-.05,4.94-.94,8-1.77,8.41Z"/><path class="cls-24" d="M66.77,214.14c-2.33,0-3.55,5.73-3.55,11.4s1.22,11.4,3.55,11.4,3.55-5.74,3.55-11.4S69.1,214.14,66.77,214.14Zm0,1c.83,0,1.94,2.55,2.37,6.77l-4.82,6.34c-.06-.85-.1-1.75-.1-2.71C64.22,219.19,65.73,215.14,66.77,215.14Zm0,20.8c-.79,0-1.84-2.33-2.31-6.22l4.8-6.31q.06,1,.06,2.13C69.32,231.89,67.81,235.94,66.77,235.94Z"/><path class="cls-25" d="M221,198.14a2,2,0,0,0,2,1.8,1.79,1.79,0,0,0,1.58-2h0v-.05a2,2,0,0,0-2-1.81A1.78,1.78,0,0,0,221,198h0A.53.53,0,0,1,221,198.14Z"/><path class="cls-25" d="M215.28,198.51a2.06,2.06,0,0,0,2.14,1.85,1.86,1.86,0,0,0,1.7-2v-.09A2.08,2.08,0,0,0,217,196.4a1.86,1.86,0,0,0-1.73,2v.13Z"/><path class="cls-25" d="M209.21,198.91a2.16,2.16,0,0,0,2.3,1.9,1.93,1.93,0,0,0,1.79-2.06h0v-.12a2.16,2.16,0,0,0-2.21-1.93,2,2,0,0,0-1.88,2.11Z"/><g class="cls-26"><rect class="cls-27" x="55.66" y="115.38" width="0.7" height="78.77"/><rect class="cls-28" x="56.36" y="115.38" width="1.09" height="78.77"/><rect class="cls-29" x="57.45" y="115.38" width="1.09" height="78.77"/><rect class="cls-30" x="58.54" y="115.38" width="1.09" height="78.77"/><rect class="cls-31" x="59.62" y="115.38" width="1.09" height="78.77"/><rect class="cls-32" x="60.71" y="115.38" width="1.09" height="78.77"/><rect class="cls-33" x="61.8" y="115.38" width="1.09" height="78.77"/><rect class="cls-34" x="62.89" y="115.38" width="1.09" height="78.77"/><rect class="cls-35" x="63.98" y="115.38" width="1.09" height="78.77"/><rect class="cls-36" x="65.07" y="115.38" width="1.09" height="78.77"/><rect class="cls-37" x="66.16" y="115.38" width="1.09" height="78.77"/><rect class="cls-38" x="67.25" y="115.38" width="1.09" height="78.77"/><rect class="cls-39" x="68.33" y="115.38" width="1.09" height="78.77"/><rect class="cls-40" x="69.42" y="115.38" width="1.09" height="78.77"/><rect class="cls-41" x="70.51" y="115.38" width="1.09" height="78.77"/><rect class="cls-42" x="71.6" y="115.38" width="1.09" height="78.77"/><rect class="cls-43" x="72.69" y="115.38" width="1.09" height="78.77"/><rect class="cls-44" x="73.78" y="115.38" width="1.09" height="78.77"/><rect class="cls-45" x="74.87" y="115.38" width="1.09" height="78.77"/><rect class="cls-46" x="75.95" y="115.38" width="1.09" height="78.77"/><rect class="cls-47" x="77.04" y="115.38" width="1.09" height="78.77"/><rect class="cls-48" x="78.13" y="115.38" width="1.09" height="78.77"/><rect class="cls-49" x="79.22" y="115.38" width="1.09" height="78.77"/><rect class="cls-50" x="80.31" y="115.38" width="0.87" height="78.77"/></g><path class="cls-51" d="M68.42,194.65c-7.44,0-13.26-18.15-13.26-41.32,0-17.49,3.53-31.43,8.78-34.67a4.58,4.58,0,0,1,4.7-.18h0c7.19,3.61,13,22.12,13,41.26C81.68,179.32,75.86,194.65,68.42,194.65Zm-2-75.74a3.66,3.66,0,0,0-2,.6c-5,3.07-8.3,16.66-8.3,33.82,0,21.86,5.61,40.32,12.26,40.32s12.26-15.21,12.26-33.91S75,122.83,68.15,119.37h0A4,4,0,0,0,66.42,118.91Z"/><path class="cls-52" d="M69.13,126.26C74.59,129.07,79,143.6,79,158.71s-4.42,27.36-9.88,27.36-9.87-14.53-9.87-32.45,4.42-30.17,9.87-27.36"/><path class="cls-53" d="M75.19,128H67.84c-4,.68-7,11.19-7,25.72,0,16.62,3.9,30.1,8.72,30.1h6.81Z"/><path class="cls-54" d="M76.42,128.41c4.82,2.61,8.72,16.09,8.72,30.1s-3.9,25.38-8.72,25.38-8.72-13.48-8.72-30.1,3.91-28,8.72-25.38"/></svg>