<svg id="Layer_13" data-name="Layer 13" xmlns="http://www.w3.org/2000/svg" xmlns:xlink="http://www.w3.org/1999/xlink" width="550" height="400" viewBox="0 0 550 400"><defs><style>.cls-1,.cls-13,.cls-17,.cls-19,.cls-22,.cls-23,.cls-24,.cls-5,.cls-6,.cls-7{fill:none;}.cls-1{stroke:#0065ab;stroke-linejoin:round;stroke-width:3px;}.cls-1,.cls-13,.cls-7{stroke-linecap:round;}.cls-2{fill:url(#linear-gradient);}.cls-3{fill:url(#linear-gradient-2);}.cls-4{fill:#004d8a;}.cls-5{stroke:#61c3b4;}.cls-13,.cls-17,.cls-19,.cls-22,.cls-23,.cls-24,.cls-5,.cls-6,.cls-7{stroke-miterlimit:10;}.cls-5,.cls-6,.cls-7{stroke-width:12.4px;}.cls-6{stroke:url(#linear-gradient-3);}.cls-7{stroke:url(#linear-gradient-4);}.cls-8{fill:#0065ab;}.cls-9{fill:url(#linear-gradient-5);}.cls-10{fill:url(#linear-gradient-6);}.cls-11{fill:#4896d1;}.cls-12{fill:#000430;}.cls-13{stroke:#81c6ed;stroke-width:2.81px;}.cls-14{fill:#abcf37;}.cls-15{fill:#f8c22c;}.cls-16{fill:#f0582a;}.cls-17{stroke:#008179;stroke-width:2.31px;}.cls-18{fill:#007cbb;}.cls-19{stroke:#004d8a;stroke-width:3.65px;}.cls-20{fill:#22b9a5;}.cls-21{fill:#02958a;}.cls-22,.cls-23{stroke:#02958a;}.cls-22{stroke-width:4px;}.cls-23{stroke-width:5.77px;}.cls-24{stroke:#4896d1;stroke-width:3.26px;}</style><linearGradient id="linear-gradient" x1="247.2" y1="3247.87" x2="247.2" y2="2938" gradientTransform="matrix(1, 0, 0, -1, 0, 3300.75)" gradientUnits="userSpaceOnUse"><stop offset="0.13" stop-color="#0065ab" stop-opacity="0"/><stop offset="0.25" stop-color="#0065ab" stop-opacity="0.18"/><stop offset="0.39" stop-color="#0065ab" stop-opacity="0.36"/><stop offset="0.51" stop-color="#0065ab" stop-opacity="0.46"/><stop offset="0.6" stop-color="#0065ab" stop-opacity="0.5"/><stop offset="0.67" stop-color="#0065ab" stop-opacity="0.46"/><stop offset="0.76" stop-color="#0065ab" stop-opacity="0.36"/><stop offset="0.87" stop-color="#0065ab" stop-opacity="0.19"/><stop offset="0.96" stop-color="#0065ab" stop-opacity="0"/></linearGradient><linearGradient id="linear-gradient-2" x1="335.33" y1="3198.45" x2="335.33" y2="2938" gradientTransform="matrix(1, 0, 0, -1, 0, 3300.75)" gradientUnits="userSpaceOnUse"><stop offset="0.12" stop-color="#0065ab" stop-opacity="0"/><stop offset="0.35" stop-color="#0065ab" stop-opacity="0.18"/><stop offset="0.61" stop-color="#0065ab" stop-opacity="0.36"/><stop offset="0.84" stop-color="#0065ab" stop-opacity="0.46"/><stop offset="1" stop-color="#0065ab" stop-opacity="0.5"/></linearGradient><linearGradient id="linear-gradient-3" x1="410.38" y1="2965.47" x2="357.56" y2="2965.47" gradientTransform="matrix(1, 0, 0, -1, 0, 3300.75)" gradientUnits="userSpaceOnUse"><stop offset="0.34" stop-color="#22b9a5"/><stop offset="0.96" stop-color="#02958a"/></linearGradient><linearGradient id="linear-gradient-4" x1="-2203.31" y1="-1298.59" x2="-2158.01" y2="-1298.59" gradientTransform="translate(314.84 2747.85) rotate(60.61)" gradientUnits="userSpaceOnUse"><stop offset="0.28" stop-color="#22b9a5"/><stop offset="0.84" stop-color="#02958a"/></linearGradient><linearGradient id="linear-gradient-5" x1="364.58" y1="3060.48" x2="364.58" y2="2983.34" gradientTransform="matrix(1, 0, 0, -1, 0, 3300.75)" gradientUnits="userSpaceOnUse"><stop offset="0.78" stop-color="#cee6f7"/><stop offset="1" stop-color="#81c6ed"/></linearGradient><linearGradient id="linear-gradient-6" x1="307.08" y1="3021.03" x2="388.85" y2="3021.03" gradientTransform="matrix(1, 0, 0, -1, 0, 3300.75)" gradientUnits="userSpaceOnUse"><stop offset="0.49" stop-color="#4896d1"/><stop offset="1" stop-color="#81c6ed"/></linearGradient></defs><title>Dark-theme</title><circle class="cls-1" cx="166.96" cy="172.02" r="37.27"/><circle class="cls-1" cx="457.38" cy="253.57" r="21.5"/><circle class="cls-1" cx="482.35" cy="207.01" r="10.68"/><polygon class="cls-2" points="464.5 52.89 157.27 362.75 29.9 362.75 336.42 53.6 464.5 52.89"/><polygon class="cls-3" points="526.76 102.31 267.84 362.75 143.91 362.75 402.35 102.78 526.76 102.31"/><polygon class="cls-4" points="322.47 362.75 171.24 362.75 171.24 97.05 196.81 80.96 322.47 362.75"/><path class="cls-5" d="M402,309.9s-13.74,33.69-2.23,43.86c12.54,11.08,39.16-12.92,39.16-12.92"/><path class="cls-6" d="M370,309.9s-12.94,33.69-1.42,43.86c12.53,11.08,37.55-12.92,37.55-12.92"/><path class="cls-7" d="M361.27,249.74s-6.45-34,36.8-58"/><path class="cls-8" d="M402.89,196l-4.2-7.56a11.51,11.51,0,0,1,3.78-15.26l.7-.45A11.52,11.52,0,0,1,419,176.38l.3.52h0S406.27,187.38,402.89,196Z"/><polygon class="cls-8" points="413.27 196.36 402.89 195.97 398.77 188.57 413.31 192.41 413.27 196.36"/><path class="cls-9" d="M416.34,309.82a19.78,19.78,0,0,0,.07-26.28c-11.29-12.78-34.47-31.82-51.9-38.06-29.9-10.72-62.72-2.5-55.79,3.54,4.34,3.79,43.92,53.14,58,67.27,0,0,39.37,5.14,49.62-6.49Z"/><path class="cls-10" d="M383.82,309.82a19.78,19.78,0,0,0,.07-26.28c-11.29-12.78-30.44-30.88-53.48-38.06C293,233.79,310.11,267,317,273.08c4.33,3.78,23.94,23.39,38,37.52a19.79,19.79,0,0,0,28,.08c.28-.28.56-.57.82-.86Z"/><rect class="cls-11" x="196.81" y="80.96" width="151.23" height="281.79"/><rect class="cls-8" x="205.87" y="92.48" width="133.41" height="21.44"/><rect class="cls-12" x="216.22" y="106.52" width="25.72" height="2.52"/><rect class="cls-12" x="246.85" y="106.52" width="25.72" height="2.52"/><rect class="cls-12" x="216.22" y="101.93" width="25.72" height="2.52"/><rect class="cls-12" x="246.85" y="101.93" width="25.72" height="2.52"/><rect class="cls-12" x="216.22" y="97.35" width="25.72" height="2.52"/><rect class="cls-12" x="246.85" y="97.35" width="25.72" height="2.52"/><line class="cls-13" x1="210.91" y1="97.35" x2="210.91" y2="109.04"/><line class="cls-13" x1="334.39" y1="97.35" x2="334.39" y2="109.04"/><circle class="cls-14" cx="310.46" cy="103.35" r="1.58"/><circle class="cls-14" cx="316.88" cy="103.35" r="1.58"/><circle class="cls-14" cx="323.3" cy="103.35" r="1.58"/><rect class="cls-8" x="205.87" y="116.84" width="133.41" height="21.44"/><rect class="cls-12" x="216.22" y="130.88" width="25.72" height="2.52"/><rect class="cls-12" x="246.85" y="130.88" width="25.72" height="2.52"/><rect class="cls-12" x="216.22" y="126.29" width="25.72" height="2.52"/><rect class="cls-12" x="246.85" y="126.29" width="25.72" height="2.52"/><rect class="cls-12" x="216.22" y="121.71" width="25.72" height="2.52"/><rect class="cls-12" x="246.85" y="121.71" width="25.72" height="2.52"/><line class="cls-13" x1="210.91" y1="121.71" x2="210.91" y2="133.4"/><line class="cls-13" x1="334.39" y1="121.71" x2="334.39" y2="133.4"/><circle class="cls-15" cx="310.46" cy="127.72" r="1.58"/><circle class="cls-15" cx="316.88" cy="127.72" r="1.58"/><circle class="cls-15" cx="323.3" cy="127.72" r="1.58"/><rect class="cls-8" x="205.87" y="141.2" width="133.41" height="21.44"/><rect class="cls-12" x="216.22" y="155.24" width="25.72" height="2.52"/><rect class="cls-12" x="246.85" y="155.24" width="25.72" height="2.52"/><rect class="cls-12" x="216.22" y="150.65" width="25.72" height="2.52"/><rect class="cls-12" x="246.85" y="150.65" width="25.72" height="2.52"/><rect class="cls-12" x="216.22" y="146.07" width="25.72" height="2.52"/><rect class="cls-12" x="246.85" y="146.07" width="25.72" height="2.52"/><line class="cls-13" x1="210.91" y1="146.07" x2="210.91" y2="157.76"/><line class="cls-13" x1="334.39" y1="146.07" x2="334.39" y2="157.76"/><circle class="cls-15" cx="310.46" cy="152.07" r="1.58"/><circle class="cls-15" cx="316.88" cy="152.07" r="1.58"/><circle class="cls-15" cx="323.3" cy="152.07" r="1.58"/><rect class="cls-8" x="205.87" y="165.55" width="133.41" height="21.44"/><rect class="cls-12" x="216.22" y="179.59" width="25.72" height="2.52"/><rect class="cls-12" x="246.85" y="179.59" width="25.72" height="2.52"/><rect class="cls-12" x="216.22" y="175.01" width="25.72" height="2.52"/><rect class="cls-12" x="246.85" y="175.01" width="25.72" height="2.52"/><rect class="cls-12" x="216.22" y="170.43" width="25.72" height="2.52"/><rect class="cls-12" x="246.85" y="170.43" width="25.72" height="2.52"/><line class="cls-13" x1="210.91" y1="170.43" x2="210.91" y2="182.12"/><line class="cls-13" x1="334.39" y1="170.43" x2="334.39" y2="182.12"/><circle class="cls-15" cx="310.46" cy="176.43" r="1.58"/><circle class="cls-15" cx="316.88" cy="176.43" r="1.58"/><circle class="cls-15" cx="323.3" cy="176.43" r="1.58"/><rect class="cls-8" x="205.87" y="189.92" width="133.41" height="21.44"/><rect class="cls-12" x="216.22" y="203.95" width="25.72" height="2.52"/><rect class="cls-12" x="246.85" y="203.95" width="25.72" height="2.52"/><rect class="cls-12" x="216.22" y="199.37" width="25.72" height="2.52"/><rect class="cls-12" x="246.85" y="199.37" width="25.72" height="2.52"/><rect class="cls-12" x="216.22" y="194.78" width="25.72" height="2.52"/><rect class="cls-12" x="246.85" y="194.78" width="25.72" height="2.52"/><line class="cls-13" x1="210.91" y1="194.78" x2="210.91" y2="206.48"/><line class="cls-13" x1="334.39" y1="194.78" x2="334.39" y2="206.48"/><circle class="cls-16" cx="310.46" cy="200.79" r="1.58"/><circle class="cls-16" cx="316.88" cy="200.79" r="1.58"/><circle class="cls-16" cx="323.3" cy="200.79" r="1.58"/><rect class="cls-8" x="205.87" y="214.27" width="133.41" height="21.44"/><rect class="cls-12" x="216.22" y="228.31" width="25.72" height="2.52"/><rect class="cls-12" x="246.85" y="228.31" width="25.72" height="2.52"/><rect class="cls-12" x="216.22" y="223.73" width="25.72" height="2.52"/><rect class="cls-12" x="246.85" y="223.73" width="25.72" height="2.52"/><rect class="cls-12" x="216.22" y="219.15" width="25.72" height="2.52"/><rect class="cls-12" x="246.85" y="219.15" width="25.72" height="2.52"/><line class="cls-13" x1="210.91" y1="219.15" x2="210.91" y2="230.84"/><line class="cls-13" x1="334.39" y1="219.15" x2="334.39" y2="230.84"/><circle class="cls-16" cx="310.46" cy="225.15" r="1.58"/><circle class="cls-16" cx="316.88" cy="225.15" r="1.58"/><circle class="cls-16" cx="323.3" cy="225.15" r="1.58"/><rect class="cls-8" x="205.87" y="238.63" width="133.41" height="21.44"/><rect class="cls-12" x="216.22" y="252.67" width="25.72" height="2.52"/><rect class="cls-12" x="246.85" y="252.67" width="25.72" height="2.52"/><rect class="cls-12" x="216.22" y="248.09" width="25.72" height="2.52"/><rect class="cls-12" x="246.85" y="248.09" width="25.72" height="2.52"/><rect class="cls-12" x="216.22" y="243.5" width="25.72" height="2.52"/><rect class="cls-12" x="246.85" y="243.5" width="25.72" height="2.52"/><line class="cls-13" x1="210.91" y1="243.5" x2="210.91" y2="255.2"/><line class="cls-13" x1="334.39" y1="243.5" x2="334.39" y2="255.2"/><circle class="cls-14" cx="310.46" cy="249.51" r="1.58"/><circle class="cls-14" cx="316.88" cy="249.51" r="1.58"/><circle class="cls-14" cx="323.3" cy="249.51" r="1.58"/><rect class="cls-8" x="205.87" y="262.99" width="133.41" height="21.44"/><rect class="cls-12" x="216.22" y="277.03" width="25.72" height="2.52"/><rect class="cls-12" x="246.85" y="277.03" width="25.72" height="2.52"/><rect class="cls-12" x="216.22" y="272.45" width="25.72" height="2.52"/><rect class="cls-12" x="246.85" y="272.45" width="25.72" height="2.52"/><rect class="cls-12" x="216.22" y="267.87" width="25.72" height="2.52"/><rect class="cls-12" x="246.85" y="267.87" width="25.72" height="2.52"/><line class="cls-13" x1="210.91" y1="267.87" x2="210.91" y2="279.55"/><line class="cls-13" x1="334.39" y1="267.87" x2="334.39" y2="279.55"/><circle class="cls-14" cx="310.46" cy="273.87" r="1.58"/><circle class="cls-14" cx="316.88" cy="273.87" r="1.58"/><circle class="cls-14" cx="323.3" cy="273.87" r="1.58"/><rect class="cls-8" x="205.87" y="287.35" width="133.41" height="21.44"/><rect class="cls-12" x="216.22" y="301.39" width="25.72" height="2.52"/><rect class="cls-12" x="246.85" y="301.39" width="25.72" height="2.52"/><rect class="cls-12" x="216.22" y="296.81" width="25.72" height="2.52"/><rect class="cls-12" x="246.85" y="296.81" width="25.72" height="2.52"/><rect class="cls-12" x="216.22" y="292.22" width="25.72" height="2.52"/><rect class="cls-12" x="246.85" y="292.22" width="25.72" height="2.52"/><line class="cls-13" x1="210.91" y1="292.22" x2="210.91" y2="303.92"/><line class="cls-13" x1="334.39" y1="292.22" x2="334.39" y2="303.92"/><circle class="cls-14" cx="310.46" cy="298.23" r="1.58"/><circle class="cls-14" cx="316.88" cy="298.23" r="1.58"/><circle class="cls-14" cx="323.3" cy="298.23" r="1.58"/><rect class="cls-8" x="205.87" y="311.71" width="133.41" height="21.44"/><rect class="cls-12" x="216.22" y="325.75" width="25.72" height="2.52"/><rect class="cls-12" x="246.85" y="325.75" width="25.72" height="2.52"/><rect class="cls-12" x="216.22" y="321.16" width="25.72" height="2.52"/><rect class="cls-12" x="246.85" y="321.16" width="25.72" height="2.52"/><rect class="cls-12" x="216.22" y="316.58" width="25.72" height="2.52"/><rect class="cls-12" x="246.85" y="316.58" width="25.72" height="2.52"/><line class="cls-13" x1="210.91" y1="316.58" x2="210.91" y2="328.27"/><line class="cls-13" x1="334.39" y1="316.58" x2="334.39" y2="328.27"/><circle class="cls-14" cx="310.46" cy="322.59" r="1.58"/><circle class="cls-14" cx="316.88" cy="322.59" r="1.58"/><circle class="cls-14" cx="323.3" cy="322.59" r="1.58"/><line class="cls-17" x1="120.55" y1="333.15" x2="171.88" y2="333.15"/><path class="cls-18" d="M475.74,134.9a13.61,13.61,0,0,0,0-5,1.8,1.8,0,0,1,.85-1.9l3.44-2-3.5-6.06-3.43,2a1.78,1.78,0,0,1-2.07-.21,14.14,14.14,0,0,0-4.36-2.5,1.8,1.8,0,0,1-1.2-1.69v-4h-7v4a1.8,1.8,0,0,1-1.21,1.69,14.41,14.41,0,0,0-4.35,2.5,1.78,1.78,0,0,1-2.07.21l-3.43-2-3.5,6.06,3.43,2a1.79,1.79,0,0,1,.86,1.9,13.61,13.61,0,0,0,0,5,1.79,1.79,0,0,1-.86,1.9l-3.43,2,3.5,6.06,3.43-2a1.81,1.81,0,0,1,2.07.2,13.92,13.92,0,0,0,4.35,2.51,1.78,1.78,0,0,1,1.21,1.69v3.94h7v-3.94a1.79,1.79,0,0,1,1.2-1.69,13.62,13.62,0,0,0,4.35-2.51,1.81,1.81,0,0,1,2.06-.17l3.43,2,3.5-6.06-3.43-2A1.79,1.79,0,0,1,475.74,134.9Zm-13.8,3.55a6.08,6.08,0,1,1,.07,0h-.07Z"/><circle class="cls-18" cx="466.86" cy="162.54" r="4.1"/><ellipse class="cls-18" cx="424.26" cy="155.4" rx="4.76" ry="2.78" transform="translate(-19.69 239.39) rotate(-30.83)"/><rect class="cls-18" x="424.78" y="154.88" width="2.4" height="6.25" transform="translate(-16.1 262.83) rotate(-33.69)"/><ellipse class="cls-4" cx="494.53" cy="159.06" rx="2.78" ry="4.76" transform="translate(-24.92 164.77) rotate(-18.46)"/><line class="cls-19" x1="488.71" y1="161.32" x2="494.53" y2="159.05"/><ellipse class="cls-4" cx="438.3" cy="106.47" rx="4.26" ry="2.49" transform="translate(198.52 488.5) rotate(-71.54)"/><line class="cls-19" x1="445.71" y1="109.37" x2="438.32" y2="106.47"/><polygon class="cls-20" points="124.19 306.23 109.49 320.93 109.49 362.75 225.06 362.75 225.06 321.37 209.91 306.23 124.19 306.23"/><polygon class="cls-21" points="124.19 306.23 109.49 320.93 109.49 362.75 160.81 362.75 160.81 321.37 145.67 306.23 124.19 306.23"/><line class="cls-22" x1="160.82" y1="333.15" x2="225.06" y2="333.15"/><rect class="cls-21" x="188.17" y="326.51" width="13.27" height="13.27"/><path class="cls-23" d="M157.19,306.23v-5.61a3.82,3.82,0,0,1,3.82-3.81h15a3.82,3.82,0,0,1,3.82,3.81v5.61"/><polyline class="cls-24" points="354.42 309.9 375.62 275.38 408.44 275.38"/><path class="cls-8" d="M402,350.42a13.86,13.86,0,0,1,4.12-19.29L425,360.5A23.05,23.05,0,0,1,402,350.42Z"/><ellipse class="cls-11" cx="416.35" cy="345.84" rx="5.17" ry="17.53" transform="translate(-121.42 284.57) rotate(-33.22)"/><path class="cls-8" d="M434.42,351.17a13.86,13.86,0,0,1,4.12-19.29l18.86,29.37A23.05,23.05,0,0,1,434.42,351.17Z"/><ellipse class="cls-11" cx="447.99" cy="346.58" rx="5.14" ry="17.46" transform="translate(-116.62 301.58) rotate(-33.17)"/><polygon class="cls-20" points="225.06 321.37 209.91 306.23 145.67 306.23 160.81 321.37 225.06 321.37"/></svg>