<svg width="328" height="296" viewBox="0 0 328 296" fill="none" xmlns="http://www.w3.org/2000/svg">
<path opacity="0.5" d="M190.138 289.78C262.333 289.78 320.858 278.18 320.858 263.87C320.858 249.56 262.333 237.96 190.138 237.96C117.943 237.96 59.418 249.56 59.418 263.87C59.418 278.18 117.943 289.78 190.138 289.78Z" fill="url(#paint0_linear)"/>
<path d="M223.158 267.07C222.728 266.21 212.528 245.8 209.428 227.19C205.838 205.64 214.308 181.24 214.668 180.19L225.048 183.84C224.968 184.07 217.158 206.65 220.278 225.36C223.108 242.36 232.888 261.91 232.988 262.11L223.158 267.07Z" fill="url(#paint1_linear)"/>
<path fill-rule="evenodd" clip-rule="evenodd" d="M222.2 252.86C226.874 252.82 231.373 254.636 234.711 257.909C238.048 261.182 239.95 265.646 240 270.32L195.5 270.79C195.5 270.79 203.28 253.06 222.2 252.86Z" fill="url(#paint2_linear)"/>
<path d="M145.899 18.4798L143.984 19.0569L155.979 58.8589L157.894 58.2819L145.899 18.4798Z" fill="#4896D1"/>
<path d="M144.509 21.38C146.74 21.38 148.549 19.5713 148.549 17.34C148.549 15.1088 146.74 13.3 144.509 13.3C142.278 13.3 140.469 15.1088 140.469 17.34C140.469 19.5713 142.278 21.38 144.509 21.38Z" fill="#4896D1"/>
<path d="M218 89.0001L204.9 47.2101C202.487 40.2548 197.488 34.4956 190.941 31.1273C184.395 27.7591 176.803 27.0403 169.74 29.1201C163.05 31.09 157.308 35.4317 153.59 41.3316C149.871 47.2315 148.432 54.2849 149.54 61.1701L161.54 107.37L218 89.0001Z" fill="url(#paint3_linear)"/>
<path d="M167.57 78.6701C175.931 78.6701 182.71 71.8917 182.71 63.5301C182.71 55.1685 175.931 48.3901 167.57 48.3901C159.208 48.3901 152.43 55.1685 152.43 63.5301C152.43 71.8917 159.208 78.6701 167.57 78.6701Z" fill="url(#paint4_linear)"/>
<path d="M133.698 164.2H132.478L120.998 163.7C120.342 163.673 119.697 163.517 119.101 163.241C118.504 162.965 117.968 162.574 117.523 162.091C117.078 161.607 116.732 161.041 116.506 160.424C116.279 159.807 116.176 159.152 116.203 158.495C116.23 157.839 116.386 157.194 116.662 156.597C116.939 156.001 117.33 155.465 117.813 155.02C118.296 154.574 118.862 154.229 119.479 154.002C120.096 153.776 120.752 153.673 121.408 153.7L132.928 154.17C137.218 154.339 141.445 153.101 144.967 150.646C148.489 148.191 151.112 144.653 152.438 140.57L158.938 120.36C159.135 119.73 159.455 119.146 159.879 118.64C160.303 118.135 160.823 117.718 161.409 117.414C161.995 117.111 162.635 116.926 163.293 116.871C163.95 116.816 164.612 116.891 165.24 117.093C165.869 117.295 166.451 117.619 166.953 118.047C167.455 118.475 167.868 118.998 168.167 119.586C168.466 120.175 168.646 120.816 168.696 121.474C168.746 122.132 168.665 122.794 168.458 123.42L161.958 143.63C160.022 149.603 156.246 154.81 151.169 158.505C146.093 162.2 139.977 164.194 133.698 164.2Z" fill="url(#paint5_linear)"/>
<path d="M161.708 266.33C161.388 265.39 153.708 243.11 154.458 227.05C155.558 202.92 180.408 182.98 181.458 182.14L188.038 190.43C187.808 190.61 165.908 208.24 165.038 227.53C164.408 241.53 171.648 262.66 171.718 262.87L161.708 266.33Z" fill="url(#paint6_linear)"/>
<path fill-rule="evenodd" clip-rule="evenodd" d="M156.571 99.3501L210.461 82.8101L239.331 185.88L174.421 200.41C172.633 200.808 170.783 200.843 168.98 200.513C167.178 200.183 165.46 199.494 163.929 198.488C162.398 197.482 161.084 196.178 160.066 194.655C159.048 193.132 158.346 191.42 158.001 189.62L145.531 126.49L156.571 99.3501Z" fill="url(#paint7_linear)"/>
<path fill-rule="evenodd" clip-rule="evenodd" d="M227.52 79.48L210.46 82.81L201.75 109.63L215.81 171C216.373 173.525 217.428 175.914 218.915 178.031C220.402 180.148 222.292 181.951 224.477 183.336C226.661 184.722 229.097 185.664 231.646 186.107C234.195 186.55 236.806 186.487 239.33 185.92C242.141 185.288 244.795 184.096 247.134 182.415C249.473 180.733 251.448 178.597 252.942 176.134C254.436 173.671 255.417 170.932 255.828 168.08C256.238 165.229 256.069 162.324 255.33 159.54L244.33 118.29C236.94 91.66 227.52 79.48 227.52 79.48Z" fill="url(#paint8_linear)"/>
<path d="M156.621 179.77L254.101 154.93" stroke="#4896D1" stroke-width="2" stroke-miterlimit="10"/>
<path d="M191.64 127L197.37 151.25C197.614 152.289 197.445 153.382 196.899 154.298C196.352 155.214 195.47 155.882 194.44 156.16L170.67 162.56C170.136 162.704 169.578 162.739 169.03 162.662C168.482 162.585 167.955 162.398 167.482 162.112C167.008 161.826 166.597 161.447 166.274 160.999C165.95 160.55 165.721 160.04 165.6 159.5L160.22 135.5C159.991 134.475 160.163 133.402 160.7 132.5C161.238 131.598 162.1 130.936 163.11 130.65L186.53 124C187.063 123.849 187.62 123.807 188.17 123.877C188.719 123.947 189.248 124.128 189.726 124.408C190.203 124.689 190.619 125.063 190.948 125.508C191.277 125.954 191.512 126.461 191.64 127V127Z" fill="#81C6ED"/>
<path fill-rule="evenodd" clip-rule="evenodd" d="M160.838 252.86C165.517 252.812 170.024 254.624 173.368 257.899C176.711 261.173 178.618 265.641 178.668 270.32L134.168 270.79C134.168 270.79 141.918 253.06 160.838 252.86Z" fill="url(#paint9_linear)"/>
<path fill-rule="evenodd" clip-rule="evenodd" d="M201.748 109.63L145.508 126.49L156.568 99.3501L210.458 82.8101L201.748 109.63Z" fill="url(#paint10_linear)"/>
<path fill-rule="evenodd" clip-rule="evenodd" d="M201.748 109.63L145.508 126.49L145.948 125.33L202.148 108.27L201.748 109.63Z" fill="url(#paint11_linear)"/>
<path d="M265.901 161.92C265.645 161.935 265.388 161.935 265.131 161.92C263.684 161.79 262.347 161.094 261.411 159.984C260.475 158.873 260.015 157.438 260.131 155.99C261.211 142.79 258.431 132.21 251.881 124.54C241.881 112.86 226.491 111.54 226.331 111.54C224.872 111.43 223.517 110.745 222.564 109.636C221.61 108.526 221.136 107.084 221.246 105.625C221.356 104.166 222.041 102.811 223.15 101.858C224.26 100.904 225.702 100.43 227.161 100.54C227.981 100.6 247.321 102.22 260.241 117.34C268.771 127.34 272.421 140.61 271.091 156.83C270.993 158.165 270.412 159.418 269.457 160.355C268.502 161.292 267.237 161.848 265.901 161.92V161.92Z" fill="url(#paint12_linear)"/>
<path d="M262.069 178.37C269.53 178.37 275.579 172.321 275.579 164.86C275.579 157.399 269.53 151.35 262.069 151.35C254.607 151.35 248.559 157.399 248.559 164.86C248.559 172.321 254.607 178.37 262.069 178.37Z" fill="url(#paint13_linear)"/>
<path d="M126.499 147.5L129.499 157.11C130.501 160.358 130.233 163.865 128.748 166.923C127.263 169.98 124.672 172.36 121.499 173.58L120.589 173.92C118.881 174.542 117.064 174.81 115.249 174.708C113.433 174.605 111.658 174.134 110.031 173.322C108.404 172.511 106.959 171.377 105.784 169.989C104.61 168.601 103.73 166.989 103.199 165.25V165.25C103.199 165.25 120.579 156.46 126.499 147.5Z" fill="#4896D1"/>
<path d="M81.8853 121.913L76.1719 127.626L102.512 153.966L108.225 148.253L81.8853 121.913Z" fill="url(#paint14_linear)"/>
<path opacity="0.2" d="M71.9666 126.354C79.9216 118.399 73.6533 99.2333 57.9659 83.5459C42.2786 67.8586 23.1127 61.5902 15.1577 69.5452C7.20269 77.5002 13.471 96.6661 29.1584 112.353C44.8457 128.041 64.0116 134.309 71.9666 126.354Z" fill="#48A9D3"/>
<path d="M102.186 139.107L93.3828 147.911L99.2094 153.737L108.013 144.934L102.186 139.107Z" fill="url(#paint15_linear)"/>
<path d="M99.7153 136.303L90.5795 145.439C89.5993 146.419 89.5977 148.007 90.576 148.985C91.5543 149.963 93.1419 149.962 94.1221 148.982L103.258 139.846C104.238 138.866 104.24 137.278 103.261 136.3C102.283 135.321 100.696 135.323 99.7153 136.303Z" fill="url(#paint16_linear)"/>
<path d="M105.775 142.826L97.1058 151.495C95.9967 152.604 95.9967 154.403 97.1058 155.512L124.973 183.379C126.082 184.488 127.88 184.488 128.989 183.379L137.658 174.71C138.767 173.6 138.767 171.802 137.658 170.693L109.791 142.826C108.682 141.717 106.884 141.717 105.775 142.826Z" fill="url(#paint17_linear)"/>
<path d="M107.158 148.24L126.358 147.47L128.998 157L110.578 153.57C109.999 153.462 109.447 153.237 108.959 152.907C108.47 152.578 108.054 152.151 107.737 151.654C107.42 151.157 107.209 150.6 107.116 150.018C107.023 149.436 107.051 148.841 107.198 148.27L107.158 148.24Z" fill="#4896D1"/>
<path opacity="0.8" d="M32.5078 67.9001V116.48C47.3078 129.35 63.9978 134 71.2678 126.71C79.2678 118.71 72.9478 99.5901 57.2678 83.9101C49.2678 75.9101 40.3678 70.3701 32.5078 67.9001Z" fill="url(#paint18_linear)"/>
<path d="M65.6789 75.26C47.5189 57.1 25.6789 49.46 16.9389 58.16L10.1289 65L13.2889 68.16C13.3009 70.1235 13.5154 72.0805 13.9289 74C14.398 72.8815 15.0768 71.8631 15.9289 71C23.1089 63.81 41.0389 70.09 55.9289 85C70.8189 99.91 77.1189 117.84 69.9289 125C69.0686 125.856 68.0496 126.535 66.9289 127C68.8475 127.42 70.8049 127.638 72.7689 127.65L75.9989 130.81L82.7789 124C91.4789 115.22 83.8289 93.42 65.6789 75.26Z" fill="url(#paint19_linear)"/>
<path d="M9.99923 65.0701C1.27923 73.8201 8.91923 95.6501 27.0992 113.83C45.2792 132.01 67.0992 139.66 75.8692 130.9C84.6392 122.14 76.9992 100.32 58.7992 82.1401C40.5992 63.9601 18.7892 56.3201 9.99923 65.0701ZM69.9992 125C62.8092 132.19 44.8892 125.92 29.9992 111C15.1092 96.0801 8.80923 78.1601 15.9992 71.0001C23.1892 63.8401 40.9992 70.0601 55.9992 85.0001C70.9992 99.9401 77.1492 117.82 69.9992 125Z" fill="url(#paint20_linear)"/>
<path d="M178.66 149.61C178.271 149.693 177.866 149.619 177.532 149.403C177.198 149.188 176.964 148.848 176.88 148.46L176.53 146.87C176.337 145.932 176.424 144.959 176.779 144.07C177.135 143.181 177.744 142.416 178.53 141.87C179.212 141.388 179.72 140.698 179.978 139.903C180.236 139.108 180.229 138.251 179.96 137.46C179.632 136.539 178.967 135.776 178.099 135.325C177.231 134.874 176.224 134.768 175.281 135.029C174.339 135.29 173.53 135.898 173.017 136.731C172.505 137.565 172.327 138.561 172.52 139.52C172.571 139.716 172.582 139.921 172.553 140.121C172.523 140.322 172.453 140.514 172.347 140.687C172.241 140.859 172.101 141.009 171.935 141.126C171.77 141.243 171.582 141.325 171.384 141.368C171.186 141.41 170.981 141.412 170.782 141.373C170.584 141.335 170.394 141.256 170.227 141.142C170.059 141.029 169.916 140.882 169.807 140.711C169.697 140.541 169.623 140.35 169.59 140.15C169.33 138.938 169.404 137.679 169.802 136.505C170.201 135.332 170.91 134.289 171.855 133.486C172.799 132.683 173.943 132.152 175.165 131.947C176.388 131.743 177.642 131.873 178.797 132.324C179.951 132.776 180.961 133.532 181.72 134.511C182.479 135.491 182.959 136.658 183.108 137.888C183.257 139.118 183.07 140.366 182.567 141.499C182.063 142.631 181.263 143.606 180.25 144.32C179.93 144.534 179.684 144.84 179.543 145.197C179.401 145.554 179.373 145.946 179.46 146.32L179.8 147.91C179.863 148.285 179.78 148.671 179.568 148.987C179.356 149.303 179.031 149.526 178.66 149.61Z" fill="#CEE6F7"/>
<path d="M179.701 156.16C180.988 156.16 182.031 155.117 182.031 153.83C182.031 152.543 180.988 151.5 179.701 151.5C178.414 151.5 177.371 152.543 177.371 153.83C177.371 155.117 178.414 156.16 179.701 156.16Z" fill="#CEE6F7"/>
<path opacity="0.3" d="M13.9989 74.1201C10.4289 82.5301 16.8589 98.0001 29.9989 111.12C43.1389 124.24 58.6189 130.7 66.9989 127.12C57.0789 125.05 44.8989 117.96 33.9989 107.12C23.0989 96.2801 16.0589 84.0001 13.9989 74.1201Z" fill="url(#paint21_linear)"/>
<path d="M158.211 69.3304C159.83 69.0648 160.924 67.524 160.656 65.889C160.388 64.2541 158.858 63.144 157.239 63.4096C155.621 63.6753 154.526 65.216 154.794 66.851C155.063 68.486 156.592 69.5961 158.211 69.3304Z" fill="#FFFCC0"/>
<path d="M172.665 65.0317C172.728 63.1937 171.213 61.6498 169.282 61.5834C167.35 61.5169 165.732 62.9531 165.669 64.7911C165.606 66.6291 167.121 68.173 169.053 68.2395C170.984 68.3059 172.602 66.8698 172.665 65.0317Z" fill="#FFFCC0"/>
<defs>
<linearGradient id="paint0_linear" x1="59.418" y1="263.87" x2="320.848" y2="263.87" gradientUnits="userSpaceOnUse">
<stop offset="0.13" stop-color="#81C6ED" stop-opacity="0"/>
<stop offset="0.19" stop-color="#81C6ED" stop-opacity="0.1"/>
<stop offset="0.32" stop-color="#81C6ED" stop-opacity="0.27"/>
<stop offset="0.43" stop-color="#81C6ED" stop-opacity="0.4"/>
<stop offset="0.53" stop-color="#81C6ED" stop-opacity="0.47"/>
<stop offset="0.6" stop-color="#81C6ED" stop-opacity="0.5"/>
</linearGradient>
<linearGradient id="paint1_linear" x1="220.186" y1="258.601" x2="219.316" y2="171.651" gradientUnits="userSpaceOnUse">
<stop stop-color="#22B9A5"/>
<stop offset="0.28" stop-color="#22B9A5"/>
<stop offset="0.84" stop-color="#08968B"/>
<stop offset="1" stop-color="#08968B"/>
</linearGradient>
<linearGradient id="paint2_linear" x1="195.53" y1="261.83" x2="240.03" y2="261.83" gradientUnits="userSpaceOnUse">
<stop offset="0.71" stop-color="#3673AC"/>
<stop offset="1" stop-color="#4896D1"/>
</linearGradient>
<linearGradient id="paint3_linear" x1="151.299" y1="19.2673" x2="237.82" y2="49.4243" gradientUnits="userSpaceOnUse">
<stop offset="0.13" stop-color="#CEE6F7"/>
<stop offset="0.24" stop-color="#C7E3F6"/>
<stop offset="0.38" stop-color="#B5DCF4"/>
<stop offset="0.55" stop-color="#97CFF0"/>
<stop offset="0.66" stop-color="#81C6ED"/>
</linearGradient>
<linearGradient id="paint4_linear" x1="-372171" y1="76251.1" x2="-373692" y2="76896.2" gradientUnits="userSpaceOnUse">
<stop stop-color="#22B9A5"/>
<stop offset="0.28" stop-color="#22B9A5"/>
<stop offset="0.84" stop-color="#08968B"/>
<stop offset="1" stop-color="#08968B"/>
</linearGradient>
<linearGradient id="paint5_linear" x1="116.158" y1="140.55" x2="168.658" y2="140.55" gradientUnits="userSpaceOnUse">
<stop offset="0.28" stop-color="#22B9A5"/>
<stop offset="0.84" stop-color="#02958A"/>
</linearGradient>
<linearGradient id="paint6_linear" x1="-425852" y1="30374.3" x2="-425923" y2="23268.1" gradientUnits="userSpaceOnUse">
<stop stop-color="#22B9A5"/>
<stop offset="0.28" stop-color="#22B9A5"/>
<stop offset="0.84" stop-color="#08968B"/>
<stop offset="1" stop-color="#08968B"/>
</linearGradient>
<linearGradient id="paint7_linear" x1="165.306" y1="143.266" x2="206.313" y2="246.338" gradientUnits="userSpaceOnUse">
<stop offset="0.48" stop-color="#CEE6F7"/>
<stop offset="0.58" stop-color="#C7E3F6"/>
<stop offset="0.72" stop-color="#B5DCF4"/>
<stop offset="0.89" stop-color="#97CFF0"/>
<stop offset="1" stop-color="#81C6ED"/>
</linearGradient>
<linearGradient id="paint8_linear" x1="218.991" y1="97.4427" x2="267.347" y2="71.6162" gradientUnits="userSpaceOnUse">
<stop stop-color="#4896D1"/>
<stop offset="1" stop-color="#81C6ED"/>
</linearGradient>
<linearGradient id="paint9_linear" x1="6104.73" y1="4947.72" x2="8084.98" y2="4947.72" gradientUnits="userSpaceOnUse">
<stop offset="0.71" stop-color="#3673AC"/>
<stop offset="1" stop-color="#4896D1"/>
</linearGradient>
<linearGradient id="paint10_linear" x1="200.456" y1="163.719" x2="132.258" y2="134.341" gradientUnits="userSpaceOnUse">
<stop stop-color="#EAF7FF"/>
<stop offset="0.32" stop-color="#CFE6F7"/>
<stop offset="0.33" stop-color="#CEE6F7"/>
<stop offset="0.74" stop-color="#9BD1F0"/>
</linearGradient>
<linearGradient id="paint11_linear" x1="152.388" y1="123.66" x2="209.358" y2="106.98" gradientUnits="userSpaceOnUse">
<stop stop-color="white"/>
<stop offset="1" stop-color="white" stop-opacity="0"/>
</linearGradient>
<linearGradient id="paint12_linear" x1="-583512" y1="205692" x2="-584510" y2="206485" gradientUnits="userSpaceOnUse">
<stop offset="0.28" stop-color="#22B9A5"/>
<stop offset="0.84" stop-color="#02958A"/>
</linearGradient>
<linearGradient id="paint13_linear" x1="269.689" y1="182.49" x2="261.319" y2="163.12" gradientUnits="userSpaceOnUse">
<stop stop-color="#3673AC"/>
<stop offset="0.89" stop-color="#4896D1"/>
</linearGradient>
<linearGradient id="paint14_linear" x1="703.691" y1="5257.2" x2="962.655" y2="5257.2" gradientUnits="userSpaceOnUse">
<stop stop-color="#4896D1"/>
<stop offset="1" stop-color="#81C6ED"/>
</linearGradient>
<linearGradient id="paint15_linear" x1="96.1594" y1="150.965" x2="102.449" y2="144.685" gradientUnits="userSpaceOnUse">
<stop stop-color="#475B6B"/>
<stop offset="0.83" stop-color="#3D4E5C"/>
</linearGradient>
<linearGradient id="paint16_linear" x1="92.3862" y1="147.184" x2="98.6762" y2="140.904" gradientUnits="userSpaceOnUse">
<stop stop-color="#5D778C"/>
<stop offset="1" stop-color="#465A6A"/>
</linearGradient>
<linearGradient id="paint17_linear" x1="2132.76" y1="7699.44" x2="2327.29" y2="7622.05" gradientUnits="userSpaceOnUse">
<stop stop-color="#5D778C"/>
<stop offset="1" stop-color="#465A6A"/>
</linearGradient>
<linearGradient id="paint18_linear" x1="23.5378" y1="86.9701" x2="78.6278" y2="119.3" gradientUnits="userSpaceOnUse">
<stop stop-color="#81C6ED" stop-opacity="0.5"/>
<stop offset="0.13" stop-color="#81C6ED" stop-opacity="0.47"/>
<stop offset="0.32" stop-color="#81C6ED" stop-opacity="0.4"/>
<stop offset="0.53" stop-color="#81C6ED" stop-opacity="0.27"/>
<stop offset="0.77" stop-color="#81C6ED" stop-opacity="0.1"/>
<stop offset="0.88" stop-color="#81C6ED" stop-opacity="0"/>
</linearGradient>
<linearGradient id="paint19_linear" x1="4344.42" y1="7177.91" x2="2732.67" y2="5968.74" gradientUnits="userSpaceOnUse">
<stop stop-color="#4896D1"/>
<stop offset="1" stop-color="#81C6ED"/>
</linearGradient>
<linearGradient id="paint20_linear" x1="475.032" y1="7222.7" x2="5817.94" y2="7222.7" gradientUnits="userSpaceOnUse">
<stop stop-color="#4896D1"/>
<stop offset="1" stop-color="#81C6ED"/>
</linearGradient>
<linearGradient id="paint21_linear" x1="715.244" y1="5532.32" x2="3630.46" y2="5532.32" gradientUnits="userSpaceOnUse">
<stop stop-color="#4896D1"/>
<stop offset="1" stop-color="#81C6ED"/>
</linearGradient>
</defs>
</svg>
