<svg width="455" height="287" viewBox="0 0 455 287" fill="none" xmlns="http://www.w3.org/2000/svg">
<path d="M125.837 144.452C144.516 144.452 159.659 129.297 159.659 110.602C159.659 91.9076 144.516 76.7526 125.837 76.7526C107.157 76.7526 92.0146 91.9076 92.0146 110.602C92.0146 129.297 107.157 144.452 125.837 144.452Z" stroke="#81C6ED" stroke-width="3" stroke-linecap="round" stroke-linejoin="round"/>
<path d="M389.419 204.202C400.195 204.202 408.93 195.46 408.93 184.675C408.93 173.891 400.195 165.148 389.419 165.148C378.644 165.148 369.908 173.891 369.908 184.675C369.908 195.46 378.644 204.202 389.419 204.202Z" stroke="#81C6ED" stroke-width="3" stroke-linecap="round" stroke-linejoin="round"/>
<path d="M412.078 152.091C417.433 152.091 421.774 147.746 421.774 142.387C421.774 137.028 417.433 132.683 412.078 132.683C406.723 132.683 402.382 137.028 402.382 142.387C402.382 147.746 406.723 152.091 412.078 152.091Z" stroke="#81C6ED" stroke-width="3" stroke-linecap="round" stroke-linejoin="round"/>
<path d="M395.883 2.39313L117.041 283.849H1.44287L279.634 3.03766L395.883 2.39313Z" fill="url(#paint0_linear)"/>
<path d="M452.382 47.2833L217.399 283.849H104.919L339.473 47.713L452.382 47.2833Z" fill="url(#paint1_linear)"/>
<path d="M266.975 283.849H129.725V42.5031L152.927 27.8878L266.975 283.849Z" fill="#1C4077"/>
<path d="M339.127 235.844C339.127 235.844 326.659 266.441 337.106 275.685C348.483 285.747 372.645 263.946 372.645 263.946" stroke="#61C3B4" stroke-width="12.4" stroke-miterlimit="10"/>
<path d="M310.076 235.844C310.076 235.844 298.334 266.441 308.788 275.685C320.159 285.747 342.866 263.946 342.866 263.946" stroke="url(#paint2_linear)" stroke-width="12.4" stroke-miterlimit="10"/>
<path d="M302.193 181.202C302.193 181.202 296.337 150.3 335.585 128.482" stroke="url(#paint3_linear)" stroke-width="12.4" stroke-miterlimit="10" stroke-linecap="round"/>
<path d="M337.01 132.582L333.2 125.719C331.911 123.403 331.548 120.683 332.186 118.109C332.823 115.536 334.413 113.3 336.635 111.855C336.838 111.718 337.052 111.587 337.267 111.45C338.47 110.699 339.814 110.201 341.215 109.987C342.617 109.773 344.047 109.846 345.42 110.203C346.792 110.56 348.078 111.192 349.198 112.062C350.318 112.932 351.25 114.021 351.936 115.263C351.936 115.263 340.081 124.782 337.01 132.582Z" fill="#1C4077"/>
<path d="M346.432 132.94L337.01 132.582L333.277 125.862L346.468 129.353L346.432 132.94Z" fill="#1C4077"/>
<path d="M352.174 235.772C355.103 232.49 356.726 228.248 356.737 223.848C356.748 219.448 355.146 215.197 352.234 211.901C341.989 200.287 320.946 182.992 305.126 177.329C277.995 167.589 248.209 175.055 254.494 180.546C258.436 183.983 294.357 228.808 307.106 241.644C307.106 241.644 342.842 246.311 352.144 235.754L352.174 235.772Z" fill="url(#paint4_linear)"/>
<path d="M322.658 235.772C325.586 232.49 327.209 228.247 327.22 223.848C327.231 219.448 325.629 215.197 322.717 211.901C312.473 200.287 295.097 183.852 274.178 177.329C240.261 166.706 255.759 196.891 262.044 202.394C265.979 205.831 283.773 223.645 296.522 236.476C298.248 238.214 300.312 239.581 302.585 240.491C304.859 241.402 307.295 241.837 309.743 241.771C312.191 241.704 314.6 241.137 316.82 240.105C319.041 239.072 321.028 237.595 322.658 235.766V235.772Z" fill="url(#paint5_linear)"/>
<path d="M290.177 27.8878H152.927V283.843H290.177V27.8878Z" fill="#4896D1"/>
<path d="M282.234 38.3553H161.15V57.8285H282.234V38.3553Z" fill="#1C4077"/>
<path d="M193.881 51.1088H170.542V53.4004H193.881V51.1088Z" fill="#000430"/>
<path d="M221.686 51.1088H198.347V53.4004H221.686V51.1088Z" fill="#000430"/>
<path d="M193.881 46.9431H170.542V49.2348H193.881V46.9431Z" fill="#000430"/>
<path d="M221.686 46.9431H198.347V49.2348H221.686V46.9431Z" fill="#000430"/>
<path d="M193.881 42.7776H170.542V45.0692H193.881V42.7776Z" fill="#000430"/>
<path d="M221.686 42.7776H198.347V45.0692H221.686V42.7776Z" fill="#000430"/>
<path d="M165.729 42.7776V53.4004" stroke="#81C6ED" stroke-width="2.81" stroke-miterlimit="10" stroke-linecap="round"/>
<path d="M277.798 42.7776V53.4004" stroke="#81C6ED" stroke-width="2.81" stroke-miterlimit="10" stroke-linecap="round"/>
<path d="M256.075 49.6705C256.868 49.6705 257.512 49.0265 257.512 48.2322C257.512 47.4379 256.868 46.7939 256.075 46.7939C255.281 46.7939 254.638 47.4379 254.638 48.2322C254.638 49.0265 255.281 49.6705 256.075 49.6705Z" fill="#ABCF37"/>
<path d="M261.9 49.6705C262.694 49.6705 263.338 49.0265 263.338 48.2322C263.338 47.4379 262.694 46.7939 261.9 46.7939C261.107 46.7939 260.463 47.4379 260.463 48.2322C260.463 49.0265 261.107 49.6705 261.9 49.6705Z" fill="#ABCF37"/>
<path d="M267.732 49.6705C268.526 49.6705 269.169 49.0265 269.169 48.2322C269.169 47.4379 268.526 46.7939 267.732 46.7939C266.938 46.7939 266.295 47.4379 266.295 48.2322C266.295 49.0265 266.938 49.6705 267.732 49.6705Z" fill="#ABCF37"/>
<path d="M282.234 60.4781H161.15V79.9513H282.234V60.4781Z" fill="#1C4077"/>
<path d="M193.881 73.2316H170.542V75.5232H193.881V73.2316Z" fill="#000430"/>
<path d="M221.686 73.2316H198.347V75.5232H221.686V73.2316Z" fill="#000430"/>
<path d="M193.881 69.0659H170.542V71.3576H193.881V69.0659Z" fill="#000430"/>
<path d="M221.686 69.0659H198.347V71.3576H221.686V69.0659Z" fill="#000430"/>
<path d="M193.881 64.9064H170.542V67.198H193.881V64.9064Z" fill="#000430"/>
<path d="M221.686 64.9064H198.347V67.198H221.686V64.9064Z" fill="#000430"/>
<path d="M165.729 64.9064V75.5232" stroke="#81C6ED" stroke-width="2.81" stroke-miterlimit="10" stroke-linecap="round"/>
<path d="M277.798 64.9064V75.5232" stroke="#81C6ED" stroke-width="2.81" stroke-miterlimit="10" stroke-linecap="round"/>
<path d="M256.075 71.7992C256.868 71.7992 257.512 71.1553 257.512 70.361C257.512 69.5667 256.868 68.9227 256.075 68.9227C255.281 68.9227 254.638 69.5667 254.638 70.361C254.638 71.1553 255.281 71.7992 256.075 71.7992Z" fill="#F8C22C"/>
<path d="M261.9 71.7992C262.694 71.7992 263.338 71.1553 263.338 70.361C263.338 69.5667 262.694 68.9227 261.9 68.9227C261.107 68.9227 260.463 69.5667 260.463 70.361C260.463 71.1553 261.107 71.7992 261.9 71.7992Z" fill="#F8C22C"/>
<path d="M267.732 71.7992C268.526 71.7992 269.169 71.1553 269.169 70.361C269.169 69.5667 268.526 68.9227 267.732 68.9227C266.938 68.9227 266.295 69.5667 266.295 70.361C266.295 71.1553 266.938 71.7992 267.732 71.7992Z" fill="#F8C22C"/>
<path d="M282.234 82.6071H161.15V102.08H282.234V82.6071Z" fill="#1C4077"/>
<path d="M193.881 95.3604H170.542V97.652H193.881V95.3604Z" fill="#000430"/>
<path d="M221.686 95.3604H198.347V97.652H221.686V95.3604Z" fill="#000430"/>
<path d="M193.881 91.1947H170.542V93.4864H193.881V91.1947Z" fill="#000430"/>
<path d="M221.686 91.1947H198.347V93.4864H221.686V91.1947Z" fill="#000430"/>
<path d="M193.881 87.0292H170.542V89.3208H193.881V87.0292Z" fill="#000430"/>
<path d="M221.686 87.0292H198.347V89.3208H221.686V87.0292Z" fill="#000430"/>
<path d="M165.729 87.0292V97.652" stroke="#81C6ED" stroke-width="2.81" stroke-miterlimit="10" stroke-linecap="round"/>
<path d="M277.798 87.0292V97.652" stroke="#81C6ED" stroke-width="2.81" stroke-miterlimit="10" stroke-linecap="round"/>
<path d="M256.075 93.922C256.868 93.922 257.512 93.2781 257.512 92.4838C257.512 91.6895 256.868 91.0455 256.075 91.0455C255.281 91.0455 254.638 91.6895 254.638 92.4838C254.638 93.2781 255.281 93.922 256.075 93.922Z" fill="#F8C22C"/>
<path d="M261.9 93.922C262.694 93.922 263.338 93.2781 263.338 92.4838C263.338 91.6895 262.694 91.0455 261.9 91.0455C261.107 91.0455 260.463 91.6895 260.463 92.4838C260.463 93.2781 261.107 93.922 261.9 93.922Z" fill="#F8C22C"/>
<path d="M267.732 93.922C268.526 93.922 269.169 93.2781 269.169 92.4838C269.169 91.6895 268.526 91.0455 267.732 91.0455C266.938 91.0455 266.295 91.6895 266.295 92.4838C266.295 93.2781 266.938 93.922 267.732 93.922Z" fill="#F8C22C"/>
<path d="M282.234 104.73H161.15V124.203H282.234V104.73Z" fill="#1C4077"/>
<path d="M193.881 117.483H170.542V119.775H193.881V117.483Z" fill="#000430"/>
<path d="M221.686 117.483H198.347V119.775H221.686V117.483Z" fill="#000430"/>
<path d="M193.881 113.318H170.542V115.609H193.881V113.318Z" fill="#000430"/>
<path d="M221.686 113.318H198.347V115.609H221.686V113.318Z" fill="#000430"/>
<path d="M193.881 109.158H170.542V111.45H193.881V109.158Z" fill="#000430"/>
<path d="M221.686 109.158H198.347V111.45H221.686V109.158Z" fill="#000430"/>
<path d="M165.729 109.158V119.775" stroke="#81C6ED" stroke-width="2.81" stroke-miterlimit="10" stroke-linecap="round"/>
<path d="M277.798 109.158V119.775" stroke="#81C6ED" stroke-width="2.81" stroke-miterlimit="10" stroke-linecap="round"/>
<path d="M256.075 116.051C256.868 116.051 257.512 115.407 257.512 114.613C257.512 113.818 256.868 113.174 256.075 113.174C255.281 113.174 254.638 113.818 254.638 114.613C254.638 115.407 255.281 116.051 256.075 116.051Z" fill="#F8C22C"/>
<path d="M261.9 116.051C262.694 116.051 263.338 115.407 263.338 114.613C263.338 113.818 262.694 113.174 261.9 113.174C261.107 113.174 260.463 113.818 260.463 114.613C260.463 115.407 261.107 116.051 261.9 116.051Z" fill="#F8C22C"/>
<path d="M267.732 116.051C268.526 116.051 269.169 115.407 269.169 114.613C269.169 113.818 268.526 113.174 267.732 113.174C266.938 113.174 266.295 113.818 266.295 114.613C266.295 115.407 266.938 116.051 267.732 116.051Z" fill="#F8C22C"/>
<path d="M282.234 126.859H161.15V146.332H282.234V126.859Z" fill="#1C4077"/>
<path d="M193.881 139.606H170.542V141.898H193.881V139.606Z" fill="#000430"/>
<path d="M221.686 139.606H198.347V141.898H221.686V139.606Z" fill="#000430"/>
<path d="M193.881 135.446H170.542V137.738H193.881V135.446Z" fill="#000430"/>
<path d="M221.686 135.446H198.347V137.738H221.686V135.446Z" fill="#000430"/>
<path d="M193.881 131.281H170.542V133.572H193.881V131.281Z" fill="#000430"/>
<path d="M221.686 131.281H198.347V133.572H221.686V131.281Z" fill="#000430"/>
<path d="M165.729 131.281V141.904" stroke="#81C6ED" stroke-width="2.81" stroke-miterlimit="10" stroke-linecap="round"/>
<path d="M277.798 131.281V141.904" stroke="#81C6ED" stroke-width="2.81" stroke-miterlimit="10" stroke-linecap="round"/>
<path d="M256.075 138.174C256.868 138.174 257.512 137.53 257.512 136.735C257.512 135.941 256.868 135.297 256.075 135.297C255.281 135.297 254.638 135.941 254.638 136.735C254.638 137.53 255.281 138.174 256.075 138.174Z" fill="#F0582A"/>
<path d="M261.9 138.174C262.694 138.174 263.338 137.53 263.338 136.735C263.338 135.941 262.694 135.297 261.9 135.297C261.107 135.297 260.463 135.941 260.463 136.735C260.463 137.53 261.107 138.174 261.9 138.174Z" fill="#F0582A"/>
<path d="M267.732 138.174C268.526 138.174 269.169 137.53 269.169 136.735C269.169 135.941 268.526 135.297 267.732 135.297C266.938 135.297 266.295 135.941 266.295 136.735C266.295 137.53 266.938 138.174 267.732 138.174Z" fill="#F0582A"/>
<path d="M282.234 148.981H161.15V168.455H282.234V148.981Z" fill="#1C4077"/>
<path d="M193.881 161.735H170.542V164.026H193.881V161.735Z" fill="#000430"/>
<path d="M221.686 161.735H198.347V164.026H221.686V161.735Z" fill="#000430"/>
<path d="M193.881 157.569H170.542V159.861H193.881V157.569Z" fill="#000430"/>
<path d="M221.686 157.569H198.347V159.861H221.686V157.569Z" fill="#000430"/>
<path d="M193.881 153.41H170.542V155.701H193.881V153.41Z" fill="#000430"/>
<path d="M221.686 153.41H198.347V155.701H221.686V153.41Z" fill="#000430"/>
<path d="M165.729 153.41V164.026" stroke="#81C6ED" stroke-width="2.81" stroke-miterlimit="10" stroke-linecap="round"/>
<path d="M277.798 153.41V164.026" stroke="#81C6ED" stroke-width="2.81" stroke-miterlimit="10" stroke-linecap="round"/>
<path d="M256.075 160.303C256.868 160.303 257.512 159.659 257.512 158.864C257.512 158.07 256.868 157.426 256.075 157.426C255.281 157.426 254.638 158.07 254.638 158.864C254.638 159.659 255.281 160.303 256.075 160.303Z" fill="#F0582A"/>
<path d="M261.9 160.303C262.694 160.303 263.338 159.659 263.338 158.864C263.338 158.07 262.694 157.426 261.9 157.426C261.107 157.426 260.463 158.07 260.463 158.864C260.463 159.659 261.107 160.303 261.9 160.303Z" fill="#F0582A"/>
<path d="M267.732 160.303C268.526 160.303 269.169 159.659 269.169 158.864C269.169 158.07 268.526 157.426 267.732 157.426C266.938 157.426 266.295 158.07 266.295 158.864C266.295 159.659 266.938 160.303 267.732 160.303Z" fill="#F0582A"/>
<path d="M282.234 171.11H161.15V190.583H282.234V171.11Z" fill="#1C4077"/>
<path d="M193.881 183.858H170.542V186.149H193.881V183.858Z" fill="#000430"/>
<path d="M221.686 183.858H198.347V186.149H221.686V183.858Z" fill="#000430"/>
<path d="M193.881 179.698H170.542V181.99H193.881V179.698Z" fill="#000430"/>
<path d="M221.686 179.698H198.347V181.99H221.686V179.698Z" fill="#000430"/>
<path d="M193.881 175.532H170.542V177.824H193.881V175.532Z" fill="#000430"/>
<path d="M221.686 175.532H198.347V177.824H221.686V175.532Z" fill="#000430"/>
<path d="M165.729 175.532V186.155" stroke="#81C6ED" stroke-width="2.81" stroke-miterlimit="10" stroke-linecap="round"/>
<path d="M277.798 175.532V186.155" stroke="#81C6ED" stroke-width="2.81" stroke-miterlimit="10" stroke-linecap="round"/>
<path d="M256.075 182.425C256.868 182.425 257.512 181.781 257.512 180.987C257.512 180.193 256.868 179.549 256.075 179.549C255.281 179.549 254.638 180.193 254.638 180.987C254.638 181.781 255.281 182.425 256.075 182.425Z" fill="#ABCF37"/>
<path d="M261.9 182.425C262.694 182.425 263.338 181.781 263.338 180.987C263.338 180.193 262.694 179.549 261.9 179.549C261.107 179.549 260.463 180.193 260.463 180.987C260.463 181.781 261.107 182.425 261.9 182.425Z" fill="#ABCF37"/>
<path d="M267.732 182.425C268.526 182.425 269.169 181.781 269.169 180.987C269.169 180.193 268.526 179.549 267.732 179.549C266.938 179.549 266.295 180.193 266.295 180.987C266.295 181.781 266.938 182.425 267.732 182.425Z" fill="#ABCF37"/>
<path d="M282.234 193.233H161.15V212.706H282.234V193.233Z" fill="#1C4077"/>
<path d="M193.881 205.986H170.542V208.278H193.881V205.986Z" fill="#000430"/>
<path d="M221.686 205.986H198.347V208.278H221.686V205.986Z" fill="#000430"/>
<path d="M193.881 201.821H170.542V204.112H193.881V201.821Z" fill="#000430"/>
<path d="M221.686 201.821H198.347V204.112H221.686V201.821Z" fill="#000430"/>
<path d="M193.881 197.661H170.542V199.953H193.881V197.661Z" fill="#000430"/>
<path d="M221.686 197.661H198.347V199.953H221.686V197.661Z" fill="#000430"/>
<path d="M165.729 197.661V208.278" stroke="#81C6ED" stroke-width="2.81" stroke-miterlimit="10" stroke-linecap="round"/>
<path d="M277.798 197.661V208.278" stroke="#81C6ED" stroke-width="2.81" stroke-miterlimit="10" stroke-linecap="round"/>
<path d="M256.075 204.554C256.868 204.554 257.512 203.91 257.512 203.116C257.512 202.322 256.868 201.678 256.075 201.678C255.281 201.678 254.638 202.322 254.638 203.116C254.638 203.91 255.281 204.554 256.075 204.554Z" fill="#ABCF37"/>
<path d="M261.9 204.554C262.694 204.554 263.338 203.91 263.338 203.116C263.338 202.322 262.694 201.678 261.9 201.678C261.107 201.678 260.463 202.322 260.463 203.116C260.463 203.91 261.107 204.554 261.9 204.554Z" fill="#ABCF37"/>
<path d="M267.732 204.554C268.526 204.554 269.169 203.91 269.169 203.116C269.169 202.322 268.526 201.678 267.732 201.678C266.938 201.678 266.295 202.322 266.295 203.116C266.295 203.91 266.938 204.554 267.732 204.554Z" fill="#ABCF37"/>
<path d="M282.234 215.362H161.15V234.835H282.234V215.362Z" fill="#1C4077"/>
<path d="M193.881 228.109H170.542V230.401H193.881V228.109Z" fill="#000430"/>
<path d="M221.686 228.109H198.347V230.401H221.686V228.109Z" fill="#000430"/>
<path d="M193.881 223.95H170.542V226.241H193.881V223.95Z" fill="#000430"/>
<path d="M221.686 223.95H198.347V226.241H221.686V223.95Z" fill="#000430"/>
<path d="M193.881 219.784H170.542V222.076H193.881V219.784Z" fill="#000430"/>
<path d="M221.686 219.784H198.347V222.076H221.686V219.784Z" fill="#000430"/>
<path d="M165.729 219.784V230.407" stroke="#81C6ED" stroke-width="2.81" stroke-miterlimit="10" stroke-linecap="round"/>
<path d="M277.798 219.784V230.407" stroke="#81C6ED" stroke-width="2.81" stroke-miterlimit="10" stroke-linecap="round"/>
<path d="M256.075 226.677C256.868 226.677 257.512 226.033 257.512 225.239C257.512 224.444 256.868 223.8 256.075 223.8C255.281 223.8 254.638 224.444 254.638 225.239C254.638 226.033 255.281 226.677 256.075 226.677Z" fill="#ABCF37"/>
<path d="M261.9 226.677C262.694 226.677 263.338 226.033 263.338 225.239C263.338 224.444 262.694 223.8 261.9 223.8C261.107 223.8 260.463 224.444 260.463 225.239C260.463 226.033 261.107 226.677 261.9 226.677Z" fill="#ABCF37"/>
<path d="M267.732 226.677C268.526 226.677 269.169 226.033 269.169 225.239C269.169 224.444 268.526 223.8 267.732 223.8C266.938 223.8 266.295 224.444 266.295 225.239C266.295 226.033 266.938 226.677 267.732 226.677Z" fill="#ABCF37"/>
<path d="M282.234 237.485H161.15V256.958H282.234V237.485Z" fill="#1C4077"/>
<path d="M193.881 250.238H170.542V252.53H193.881V250.238Z" fill="#000430"/>
<path d="M221.686 250.238H198.347V252.53H221.686V250.238Z" fill="#000430"/>
<path d="M193.881 246.072H170.542V248.364H193.881V246.072Z" fill="#000430"/>
<path d="M221.686 246.072H198.347V248.364H221.686V246.072Z" fill="#000430"/>
<path d="M193.881 241.913H170.542V244.205H193.881V241.913Z" fill="#000430"/>
<path d="M221.686 241.913H198.347V244.205H221.686V241.913Z" fill="#000430"/>
<path d="M165.729 241.913V252.53" stroke="#81C6ED" stroke-width="2.81" stroke-miterlimit="10" stroke-linecap="round"/>
<path d="M277.798 241.913V252.53" stroke="#81C6ED" stroke-width="2.81" stroke-miterlimit="10" stroke-linecap="round"/>
<path d="M256.075 248.806C256.868 248.806 257.512 248.162 257.512 247.367C257.512 246.573 256.868 245.929 256.075 245.929C255.281 245.929 254.638 246.573 254.638 247.367C254.638 248.162 255.281 248.806 256.075 248.806Z" fill="#ABCF37"/>
<path d="M261.9 248.806C262.694 248.806 263.338 248.162 263.338 247.367C263.338 246.573 262.694 245.929 261.9 245.929C261.107 245.929 260.463 246.573 260.463 247.367C260.463 248.162 261.107 248.806 261.9 248.806Z" fill="#ABCF37"/>
<path d="M267.732 248.806C268.526 248.806 269.169 248.162 269.169 247.367C269.169 246.573 268.526 245.929 267.732 245.929C266.938 245.929 266.295 246.573 266.295 247.367C266.295 248.162 266.938 248.806 267.732 248.806Z" fill="#ABCF37"/>
<path d="M83.7202 256.958H130.303" stroke="#008179" stroke-width="2.31" stroke-miterlimit="10"/>
<path fill-rule="evenodd" clip-rule="evenodd" d="M406.08 76.8838C406.358 75.3808 406.358 73.8394 406.08 72.3363C406.013 72.0038 406.051 71.6587 406.19 71.3493C406.329 71.04 406.562 70.782 406.855 70.6116L409.974 68.8213L406.795 63.3129L403.683 65.1033C403.389 65.2716 403.051 65.3442 402.714 65.311C402.377 65.2779 402.059 65.1406 401.804 64.9183C400.634 63.9281 399.295 63.1578 397.851 62.6445C397.533 62.5326 397.258 62.3252 397.062 62.0506C396.867 61.7761 396.761 61.4478 396.76 61.1108V57.5002H390.427V61.1108C390.426 61.4488 390.319 61.7779 390.123 62.0527C389.926 62.3275 389.649 62.5344 389.33 62.6445C387.888 63.1592 386.551 63.9294 385.382 64.9183C385.127 65.1406 384.809 65.2779 384.473 65.311C384.136 65.3442 383.797 65.2716 383.504 65.1033L380.391 63.3129L377.213 68.8213L380.326 70.6116C380.619 70.7818 380.852 71.0395 380.992 71.3487C381.132 71.6579 381.172 72.0032 381.107 72.3363C380.82 73.8386 380.82 75.3815 381.107 76.8838C381.172 77.2169 381.132 77.5622 380.992 77.8714C380.852 78.1806 380.619 78.4384 380.326 78.6085L377.213 80.3989L380.391 85.9072L383.504 84.1169C383.798 83.9503 384.136 83.8787 384.472 83.9118C384.808 83.9449 385.126 84.0811 385.382 84.3019C386.551 85.2926 387.888 86.0648 389.33 86.5816C389.65 86.6902 389.928 86.8967 390.125 87.1718C390.322 87.4469 390.427 87.7769 390.427 88.1153V91.696H396.783V88.1153C396.783 87.7779 396.889 87.4488 397.084 87.1739C397.28 86.8991 397.556 86.692 397.875 86.5816C399.319 86.0663 400.658 85.294 401.828 84.3019C402.086 84.0884 402.403 83.9591 402.737 83.9314C403.071 83.9037 403.405 83.9788 403.695 84.1467L406.807 85.9371L409.986 80.4287L406.867 78.6384C406.566 78.4681 406.327 78.206 406.186 77.8903C406.044 77.5747 406.007 77.2221 406.08 76.8838ZM393.557 80.1124C392.473 80.103 391.415 79.7726 390.517 79.1628C389.62 78.5531 388.922 77.6912 388.513 76.6856C388.104 75.6801 388.001 74.5759 388.218 73.512C388.434 72.4482 388.961 71.4722 389.73 70.707C390.5 69.9417 391.478 69.4215 392.543 69.2117C393.607 69.0018 394.71 69.1119 395.712 69.5279C396.714 69.9439 397.57 70.6472 398.174 71.5495C398.777 72.4517 399.101 73.5124 399.103 74.5981C399.105 75.3217 398.964 76.0385 398.688 76.7075C398.412 77.3764 398.008 77.9844 397.497 78.4966C396.986 79.0088 396.38 79.4152 395.712 79.6925C395.044 79.9697 394.328 80.1124 393.605 80.1124H393.557Z" fill="#4896D1"/>
<path d="M398.024 105.721C400.079 105.721 401.745 104.053 401.745 101.997C401.745 99.94 400.079 98.2727 398.024 98.2727C395.969 98.2727 394.303 99.94 394.303 101.997C394.303 104.053 395.969 105.721 398.024 105.721Z" fill="#4896D1"/>
<path d="M360.647 97.6746C362.694 96.4516 363.775 94.4898 363.061 93.2926C362.347 92.0954 360.109 92.1163 358.061 93.3392C356.014 94.5622 354.933 96.5241 355.647 97.7213C356.361 98.9184 358.599 98.8975 360.647 97.6746Z" fill="#4896D1"/>
<path d="M360.253 94.9042L358.442 96.1124L361.588 100.835L363.399 99.6264L360.253 94.9042Z" fill="#4896D1"/>
<path d="M424.501 102.932C425.822 102.491 426.282 100.298 425.527 98.0343C424.772 95.7708 423.088 94.2938 421.767 94.7352C420.446 95.1767 419.987 97.3695 420.742 99.6329C421.497 101.896 423.18 103.373 424.501 102.932Z" fill="#81C6ED"/>
<path d="M417.851 100.887L423.134 98.8217" stroke="#81C6ED" stroke-width="3.65" stroke-miterlimit="10"/>
<path d="M374.243 51.7803C374.92 49.7513 374.509 47.7857 373.325 47.3902C372.141 46.9947 370.633 48.3189 369.956 50.3479C369.279 52.3769 369.69 54.3424 370.874 54.7379C372.058 55.1335 373.566 53.8093 374.243 51.7803Z" fill="#81C6ED"/>
<path d="M378.829 53.6927L372.114 51.0669" stroke="#81C6ED" stroke-width="3.65" stroke-miterlimit="10"/>
<path d="M87.0239 232.508L73.6787 245.858V283.849H178.568V246.263L164.823 232.508H87.0239Z" fill="#22B9A5"/>
<path d="M87.0239 232.508L73.6787 245.858V283.849H120.262V246.263L106.517 232.508H87.0239Z" fill="#02958A"/>
<path d="M120.262 256.958H178.568" stroke="#02958A" stroke-width="4" stroke-miterlimit="10"/>
<path d="M157.131 250.93H145.091V262.979H157.131V250.93Z" fill="#02958A"/>
<path d="M116.97 232.508V227.417C116.97 226.497 117.335 225.615 117.985 224.965C118.635 224.315 119.516 223.95 120.435 223.95H134.09C135.009 223.95 135.89 224.315 136.54 224.965C137.189 225.615 137.554 226.497 137.554 227.417V232.508" stroke="#02958A" stroke-width="5.77" stroke-miterlimit="10"/>
<path d="M295.973 235.843L315.21 204.482H345.001" stroke="#4896D1" stroke-width="3.26" stroke-miterlimit="10"/>
<path fill-rule="evenodd" clip-rule="evenodd" d="M340.093 273.328C336.175 267.533 337.964 259.602 343.826 255.806L360.946 282.482C360.946 282.482 348.125 285.222 340.093 273.328Z" fill="#1C4077"/>
<path d="M362.938 282.263C365.104 280.844 362.957 273.727 358.142 266.369C353.328 259.01 347.669 254.195 345.503 255.614C343.337 257.033 345.484 264.15 350.298 271.509C355.113 278.868 360.772 283.683 362.938 282.263Z" fill="#4896D1"/>
<path fill-rule="evenodd" clip-rule="evenodd" d="M369.944 273.328C366.026 267.533 367.815 259.602 373.677 255.806L390.797 282.482C390.797 282.482 377.976 285.222 369.944 273.328Z" fill="#1C4077"/>
<path d="M390.926 282.437C393.084 281.025 390.952 273.936 386.162 266.603C381.373 259.27 375.741 254.47 373.583 255.882C371.424 257.294 373.557 264.383 378.346 271.716C383.135 279.049 388.768 283.849 390.926 282.437Z" fill="#4896D1"/>
<path d="M178.568 246.263L164.823 232.508H106.517L120.262 246.263H178.568Z" fill="#22B9A5"/>
<defs>
<linearGradient id="paint0_linear" x1="198.663" y1="2.39313" x2="198.663" y2="283.843" gradientUnits="userSpaceOnUse">
<stop offset="0.17" stop-color="#81C6ED" stop-opacity="0"/>
<stop offset="0.21" stop-color="#81C6ED" stop-opacity="0.1"/>
<stop offset="0.3" stop-color="#81C6ED" stop-opacity="0.27"/>
<stop offset="0.38" stop-color="#81C6ED" stop-opacity="0.4"/>
<stop offset="0.45" stop-color="#81C6ED" stop-opacity="0.47"/>
<stop offset="0.5" stop-color="#81C6ED" stop-opacity="0.5"/>
<stop offset="0.57" stop-color="#81C6ED" stop-opacity="0.47"/>
<stop offset="0.68" stop-color="#81C6ED" stop-opacity="0.4"/>
<stop offset="0.8" stop-color="#81C6ED" stop-opacity="0.27"/>
<stop offset="0.93" stop-color="#81C6ED" stop-opacity="0.1"/>
<stop offset="1" stop-color="#81C6ED" stop-opacity="0"/>
</linearGradient>
<linearGradient id="paint1_linear" x1="278.651" y1="47.2833" x2="278.651" y2="283.843" gradientUnits="userSpaceOnUse">
<stop offset="0.28" stop-color="#81C6ED" stop-opacity="0"/>
<stop offset="0.38" stop-color="#81C6ED" stop-opacity="0.1"/>
<stop offset="0.57" stop-color="#81C6ED" stop-opacity="0.27"/>
<stop offset="0.74" stop-color="#81C6ED" stop-opacity="0.4"/>
<stop offset="0.89" stop-color="#81C6ED" stop-opacity="0.47"/>
<stop offset="1" stop-color="#81C6ED" stop-opacity="0.5"/>
</linearGradient>
<linearGradient id="paint2_linear" x1="345.394" y1="258.277" x2="300.726" y2="258.277" gradientUnits="userSpaceOnUse">
<stop offset="0.34" stop-color="#22B9A5"/>
<stop offset="0.96" stop-color="#02958A"/>
</linearGradient>
<linearGradient id="paint3_linear" x1="304.261" y1="134.856" x2="322.524" y2="167.257" gradientUnits="userSpaceOnUse">
<stop offset="0.28" stop-color="#22B9A5"/>
<stop offset="0.84" stop-color="#02958A"/>
</linearGradient>
<linearGradient id="paint4_linear" x1="305.204" y1="172.62" x2="305.204" y2="242.689" gradientUnits="userSpaceOnUse">
<stop offset="0.78" stop-color="#CEE6F7"/>
<stop offset="1" stop-color="#81C6ED"/>
</linearGradient>
<linearGradient id="paint5_linear" x1="253.01" y1="208.439" x2="327.213" y2="208.439" gradientUnits="userSpaceOnUse">
<stop offset="0.49" stop-color="#4896D1"/>
<stop offset="1" stop-color="#81C6ED"/>
</linearGradient>
</defs>
</svg>
