<svg width="16" height="16" viewBox="0 0 16 16" fill="none" xmlns="http://www.w3.org/2000/svg">
   <path fill-rule="evenodd" clip-rule="evenodd" d="M12.2769 9.9385V10.1539C12.2769 10.4616 12.4923 10.4616 12.6769 10.277L14.1846 8.76927C14.3384 8.58465 14.6461 8.58465 14.8307 8.76927L15.4769 9.41542C15.6615 9.56927 15.6615 9.87696 15.4769 10.0616L11.5077 14.0308C11.3538 14.1847 11.1077 14.1847 10.9538 14.0308L6.95382 10.0308C6.79997 9.84619 6.79997 9.63081 6.98459 9.44619L7.66151 8.76927C7.84613 8.58465 8.12305 8.55388 8.30766 8.7385L9.81536 10.2462C10.0307 10.4616 10.2154 10.5231 10.3384 10.277C10.3692 10.1847 10.3692 9.9385 10.3692 9.9385V7.69234C10.3692 5.50773 8.61536 3.75388 6.43074 3.75388C4.24613 3.75388 2.49228 5.47696 2.49228 7.66158V11.7539C2.49228 12 2.27689 12.1847 2.03074 12.1847H1.04613C0.799972 12.1847 0.615356 12.0308 0.615356 11.7847V7.66158C0.615356 4.46158 3.19997 1.84619 6.43074 1.84619C9.66151 1.84619 12.2461 4.46158 12.2461 7.66158L12.2769 9.9385Z" fill="#706E6B"/>
   <mask id="mask0" mask-type="alpha" maskUnits="userSpaceOnUse" x="0" y="1" width="16" height="14">
      <path fill-rule="evenodd" clip-rule="evenodd" d="M12.2769 9.9385V10.1539C12.2769 10.4616 12.4923 10.4616 12.6769 10.277L14.1846 8.76927C14.3384 8.58465 14.6461 8.58465 14.8307 8.76927L15.4769 9.41542C15.6615 9.56927 15.6615 9.87696 15.4769 10.0616L11.5077 14.0308C11.3538 14.1847 11.1077 14.1847 10.9538 14.0308L6.95382 10.0308C6.79997 9.84619 6.79997 9.63081 6.98459 9.44619L7.66151 8.76927C7.84613 8.58465 8.12305 8.55388 8.30766 8.7385L9.81536 10.2462C10.0307 10.4616 10.2154 10.5231 10.3384 10.277C10.3692 10.1847 10.3692 9.9385 10.3692 9.9385V7.69234C10.3692 5.50773 8.61536 3.75388 6.43074 3.75388C4.24613 3.75388 2.49228 5.47696 2.49228 7.66158V11.7539C2.49228 12 2.27689 12.1847 2.03074 12.1847H1.04613C0.799972 12.1847 0.615356 12.0308 0.615356 11.7847V7.66158C0.615356 4.46158 3.19997 1.84619 6.43074 1.84619C9.66151 1.84619 12.2461 4.46158 12.2461 7.66158L12.2769 9.9385Z" fill="white"/>
   </mask>
   <g mask="url(#mask0)">
      <rect x="-0.615356" y="-0.615479" width="17.2308" height="17.2308" fill="#706E6B"/>
   </g>
</svg>
