<svg id="_02d949b0-8462-4e06-9ae5-67da8a2f3d6e" data-name="02d949b0-8462-4e06-9ae5-67da8a2f3d6e" xmlns="http://www.w3.org/2000/svg" xmlns:xlink="http://www.w3.org/1999/xlink" width="497" height="374" viewBox="0 0 497 374"><defs><style>.cls-1{fill:url(#linear-gradient);}.cls-2{fill:url(#linear-gradient-2);}.cls-3{fill:url(#radial-gradient);}.cls-4{fill:#13406b;}.cls-5{fill:url(#linear-gradient-3);}.cls-6{fill:#82c7ed;}.cls-7{fill:#1c4177;}.cls-8{fill:#f8c22a;}.cls-17,.cls-20,.cls-21,.cls-9{fill:none;}.cls-17,.cls-21,.cls-9{stroke:#4897d2;stroke-miterlimit:10;}.cls-9{stroke-linecap:round;}.cls-21,.cls-9{stroke-width:6.09px;}.cls-10{fill:url(#linear-gradient-4);}.cls-11{fill:url(#linear-gradient-5);}.cls-12{fill:url(#linear-gradient-6);}.cls-13{fill:url(#linear-gradient-7);}.cls-14{fill:url(#linear-gradient-8);}.cls-15{fill:url(#linear-gradient-9);}.cls-16{fill:url(#linear-gradient-10);}.cls-17{stroke-width:3.26px;}.cls-18{fill:url(#linear-gradient-11);}.cls-19{fill:#4897d2;}.cls-22{fill:#06968a;}.cls-23{fill:url(#linear-gradient-12);}.cls-24{fill:#cee6f7;}</style><linearGradient id="linear-gradient" x1="278.08" y1="294.73" x2="278.08" y2="69.34" gradientUnits="userSpaceOnUse"><stop offset="0" stop-color="#81c6ed" stop-opacity="0"/><stop offset="0.01" stop-color="#81c6ed" stop-opacity="0.03"/><stop offset="0.07" stop-color="#81c6ed" stop-opacity="0.18"/><stop offset="0.13" stop-color="#81c6ed" stop-opacity="0.29"/><stop offset="0.2" stop-color="#81c6ed" stop-opacity="0.39"/><stop offset="0.28" stop-color="#81c6ed" stop-opacity="0.45"/><stop offset="0.36" stop-color="#81c6ed" stop-opacity="0.49"/><stop offset="0.49" stop-color="#81c6ed" stop-opacity="0.5"/><stop offset="0.57" stop-color="#81c6ed" stop-opacity="0.47"/><stop offset="0.68" stop-color="#81c6ed" stop-opacity="0.38"/><stop offset="0.82" stop-color="#81c6ed" stop-opacity="0.24"/><stop offset="0.97" stop-color="#81c6ed" stop-opacity="0.04"/><stop offset="1" stop-color="#81c6ed" stop-opacity="0"/></linearGradient><linearGradient id="linear-gradient-2" x1="307.43" y1="292.62" x2="307.43" y2="157.88" gradientUnits="userSpaceOnUse"><stop offset="0.31" stop-color="#81c6ed" stop-opacity="0.5"/><stop offset="1" stop-color="#81c6ed" stop-opacity="0"/></linearGradient><radialGradient id="radial-gradient" cx="2766.09" cy="271.51" r="96.13" gradientTransform="translate(-2578.12)" gradientUnits="userSpaceOnUse"><stop offset="0.34" stop-color="#fff"/><stop offset="0.4" stop-color="#fff" stop-opacity="0.98"/><stop offset="0.49" stop-color="#fff" stop-opacity="0.9"/><stop offset="0.58" stop-color="#fff" stop-opacity="0.79"/><stop offset="0.69" stop-color="#fff" stop-opacity="0.63"/><stop offset="0.8" stop-color="#fff" stop-opacity="0.42"/><stop offset="0.92" stop-color="#fff" stop-opacity="0.18"/><stop offset="1" stop-color="#fff" stop-opacity="0"/></radialGradient><linearGradient id="linear-gradient-3" x1="287.89" y1="155.42" x2="287.89" y2="326.42" gradientTransform="matrix(1, 0, 0, -1, 0, 375)" gradientUnits="userSpaceOnUse"><stop offset="0" stop-color="#1c4077"/><stop offset="0.18" stop-color="#1f467d"/><stop offset="0.43" stop-color="#28578f"/><stop offset="0.71" stop-color="#3673ac"/><stop offset="1" stop-color="#4896d1"/></linearGradient><linearGradient id="linear-gradient-4" x1="2339.12" y1="5342.24" x2="2339.68" y2="5342.24" gradientTransform="translate(-727794.15 319050.63) rotate(-90) scale(136.27)" gradientUnits="userSpaceOnUse"><stop offset="0" stop-color="#22b9a5"/><stop offset="0.28" stop-color="#22b9a5"/><stop offset="0.84" stop-color="#08968b"/><stop offset="1" stop-color="#08968b"/></linearGradient><linearGradient id="linear-gradient-5" x1="2339.81" y1="5342.81" x2="2340.37" y2="5342.81" gradientTransform="translate(-740208.12 324529.21) rotate(-90) scale(138.57)" xlink:href="#linear-gradient-4"/><linearGradient id="linear-gradient-6" x1="168.59" y1="83.04" x2="118.91" y2="132.72" gradientUnits="userSpaceOnUse"><stop offset="0" stop-color="#cee6f7"/><stop offset="0.05" stop-color="#cee6f7"/><stop offset="0.17" stop-color="#c7e3f6"/><stop offset="0.34" stop-color="#b5dcf4"/><stop offset="0.54" stop-color="#97cff0"/><stop offset="0.66" stop-color="#81c6ed"/><stop offset="1" stop-color="#81c6ed"/></linearGradient><linearGradient id="linear-gradient-7" x1="2431.12" y1="5386.04" x2="2431.68" y2="5386.04" gradientTransform="translate(601769.06 -271426.4) rotate(90) scale(111.69)" gradientUnits="userSpaceOnUse"><stop offset="0" stop-color="#22b9a5"/><stop offset="0.28" stop-color="#22b9a5"/><stop offset="0.55" stop-color="#1fb6a3"/><stop offset="0.79" stop-color="#08968b"/><stop offset="1" stop-color="#08968b"/></linearGradient><linearGradient id="linear-gradient-8" x1="121.3" y1="140.03" x2="200.81" y2="219.55" gradientUnits="userSpaceOnUse"><stop offset="0" stop-color="#cee6f7"/><stop offset="0.48" stop-color="#cee6f7"/><stop offset="0.58" stop-color="#c7e3f6"/><stop offset="0.72" stop-color="#b5dcf4"/><stop offset="0.89" stop-color="#97cff0"/><stop offset="1" stop-color="#81c6ed"/></linearGradient><linearGradient id="linear-gradient-9" x1="132.8" y1="132.19" x2="132.8" y2="228.28" gradientUnits="userSpaceOnUse"><stop offset="0" stop-color="#4897d2"/><stop offset="1" stop-color="#81c6ed"/></linearGradient><linearGradient id="linear-gradient-10" x1="2357.29" y1="5432.63" x2="2357.84" y2="5432.63" gradientTransform="translate(-141915.64 -474922.72) rotate(6.82) scale(83.73)" xlink:href="#linear-gradient-4"/><linearGradient id="linear-gradient-11" x1="137.54" y1="95.73" x2="163.78" y2="95.73" gradientTransform="matrix(1, 0, 0, 1, 0, 0)" xlink:href="#linear-gradient-4"/><linearGradient id="linear-gradient-12" x1="129.19" y1="139.98" x2="198.04" y2="139.98" gradientUnits="userSpaceOnUse"><stop offset="0" stop-color="#cee6f7"/><stop offset="1" stop-color="#81c6ed"/></linearGradient></defs><title>support_robot-bird</title><polygon class="cls-1" points="453.09 69.34 227.7 294.73 103.06 294.73 327.82 69.96 453.09 69.34"/><polygon class="cls-2" points="423.99 157.88 289.47 292.62 190.87 292.62 324.98 158.29 423.99 157.88"/><circle class="cls-3" cx="187.98" cy="271.51" r="96.13"/><rect class="cls-4" x="265.68" y="153.71" width="18.51" height="139.13"/><polygon class="cls-5" points="265.06 82.05 316.19 82.05 316.19 135.89 290.63 162.85 259.59 162.85 265.06 82.05"/><polygon class="cls-4" points="284.54 133.88 284.5 135.1 315.82 136.28 316.19 135.89 316.19 135.07 284.54 133.88"/><path class="cls-6" d="M173.07,92.13a32.48,32.48,0,1,1,32.49-32.51h0A32.52,32.52,0,0,1,173.1,92.13Zm0-63.3a30.82,30.82,0,1,0,0,61.63h0a30.85,30.85,0,0,0,30.79-30.84h0A30.87,30.87,0,0,0,173.07,28.83Z"/><path class="cls-6" d="M104.93,78.72a19.17,19.17,0,1,1,7.3-1.47A19,19,0,0,1,104.93,78.72Zm0-36.52a17.32,17.32,0,0,0-6.66,1.33h0a17.34,17.34,0,1,0,6.66-1.33Zm-7,.56h0Z"/><rect class="cls-7" x="263.58" y="77.47" width="1.36" height="4.58"/><rect class="cls-7" x="268.3" y="77.47" width="1.36" height="4.58"/><path class="cls-8" d="M277.31,67.09a11,11,0,1,1-10.95-11,10.95,10.95,0,0,1,10.95,11v0"/><path class="cls-8" d="M286.22,54.38,275.87,72.51s-3.55-3.83-3.1-5.42,6.71-15.21,6.71-15.21Z"/><path class="cls-8" d="M256.85,72.51l-8.38-13a3.77,3.77,0,0,1,5.92-4.63c1.82,1.89,4.41,3.77,6.83,2.56,4.32-2.16,7.76,9.67,7.76,9.67Z"/><path class="cls-7" d="M249.17,60.85l-.77,3.07,4.77-2.71-2-1.19a1.32,1.32,0,0,0-1.82.4,1.16,1.16,0,0,0-.18.43"/><path class="cls-7" d="M252.33,58.29a.77.77,0,1,1-.77-.77.76.76,0,0,1,.77.77"/><line class="cls-9" x1="59.23" y1="223.28" x2="76.49" y2="223.28"/><path class="cls-10" d="M189,210.39c.53.6,13.65,16.8,13.64,51.61a160.72,160.72,0,0,1-1.94,24.29l-8.83-1.36A150.48,150.48,0,0,0,193.75,262c0-16.28-3-27.88-6-35.36a53.84,53.84,0,0,0-4-8.18,26.62,26.62,0,0,0-1.58-2.34l6.85-5.73Z"/><path class="cls-11" d="M147.11,210c.21.43,6.58,13.27,6.59,34.43a118.92,118.92,0,0,1-8.29,42.74l-8.34-3.2a109.94,109.94,0,0,0,7.7-39.54,85.57,85.57,0,0,0-2.9-22.63,60.28,60.28,0,0,0-2-6c-.52-1.32-.8-1.84-.79-1.85l8-4Z"/><path class="cls-12" d="M139.5,67.85h0a25.81,25.81,0,0,0-22.72,27.43l3.93,39.24L174,129.75l-6.43-42.51a25.77,25.77,0,0,0-28-19.39"/><path class="cls-13" d="M184.43,140.65a123.22,123.22,0,0,0,11.29,11.1c6.28,5.63,14.58,10.71,18.49,10.45a4.51,4.51,0,0,0,1.32-.17c1.41-.69,1-.15,1.33-2,.2-3.34-3.65-11.6-10.25-19.82a127.39,127.39,0,0,0-24.82-23.83l5.21-7.25a136.49,136.49,0,0,1,26.64,25.57c7,9.16,12,17.58,12.15,25.33A10.52,10.52,0,0,1,218,170.61a14,14,0,0,1-3.81.52c-9-.26-17.26-6.72-24.33-12.62a140.65,140.65,0,0,1-12.17-12l6.72-5.89Z"/><path class="cls-14" d="M129.19,132.14,139,228.05l59.2-9.24a12.33,12.33,0,0,0,10.28-14.09c0-.13,0-.25-.07-.38l-10.37-57-18.22-19.09Z"/><path class="cls-15" d="M113.79,135s-3.88,13.32-1.31,38.05l4.42,38.2a19.27,19.27,0,0,0,21.38,16.9l.72-.1h0a17.71,17.71,0,0,0,14.79-20.21v-.05l-8.45-56-16.14-19.6Z"/><path class="cls-16" d="M126.26,153.82a28,28,0,0,0-5.26,1.83c-10.16,4.53-31.59,17.76-36.53,58.14a4.47,4.47,0,0,1-8.87-1.06c6.84-58.27,48.06-67.72,48.88-67.66a4.46,4.46,0,1,1,1.78,8.75Z"/><line class="cls-17" x1="206.68" y1="194.79" x2="116.41" y2="206.98"/><path class="cls-6" d="M160.45,162.08l3.19,22.22a3.7,3.7,0,0,0,4.07,3.15l22-2.48a3.7,3.7,0,0,0,3.26-4.09s0-.1,0-.15l-3.41-21.89a3.69,3.69,0,0,0-4-3.11l-21.8,2.15a3.69,3.69,0,0,0-3.31,4c0,.06,0,.11,0,.17"/><path class="cls-7" d="M91,223.13A12.18,12.18,0,1,1,78.77,211h0A12.17,12.17,0,0,1,91,223.13"/><path class="cls-7" d="M194.17,116.89a10.48,10.48,0,1,1-10.48-10.48h0a10.48,10.48,0,0,1,10.48,10.48"/><path class="cls-18" d="M137.54,95.73a13.12,13.12,0,1,0,13.12-13.12h0a13.11,13.11,0,0,0-13.12,13.1v0"/><path class="cls-19" d="M127.25,102.94A9.25,9.25,0,1,1,118,93.69a9.25,9.25,0,0,1,9.25,9.25h0"/><rect class="cls-19" x="109.98" y="64.15" width="2.56" height="37.44" transform="translate(-10.12 15.7) rotate(-7.72)"/><path class="cls-19" d="M112.2,63a3.64,3.64,0,1,1-3.65-3.63h0A3.64,3.64,0,0,1,112.2,63h0"/><polygon class="cls-7" points="168.6 104.42 185.36 106.56 182.29 113.03 169.29 109.19 168.6 104.42"/><polygon class="cls-4" points="334.46 292.69 279.68 210.95 279.68 228.28 322.29 292.85 334.46 292.69"/><polygon class="cls-7" points="271.16 248.82 249.25 292.85 237.68 292.85 268.72 235.3 271.16 248.82"/><polygon class="cls-20" points="265.06 82.05 316.19 82.05 316.19 135.89 290.63 162.85 259.59 162.85 265.06 82.05"/><rect class="cls-4" x="285.15" y="89.35" width="31.04" height="1.22"/><rect class="cls-4" x="285.06" y="109.35" width="31.22" height="1.22" transform="translate(-10.06 32.89) rotate(-6.16)"/><rect class="cls-4" x="285.15" y="124.47" width="31.04" height="1.22"/><rect class="cls-7" x="265.68" y="162.85" width="9.26" height="129.84"/><line class="cls-21" x1="83.01" y1="223.28" x2="102.7" y2="223.28"/><path class="cls-7" d="M101.48,207.6v23.82h8.43s.26-16.35-8.43-23.82"/><rect class="cls-7" x="99.18" y="230.7" width="13.03" height="5.97"/><path class="cls-7" d="M201.51,275a15.9,15.9,0,0,0-15.9,15.89H225.7S218.55,275,201.51,275"/><path class="cls-7" d="M145.08,275a15.91,15.91,0,0,0-15.89,15.89h40.09S162.13,275,145.08,275"/><path class="cls-6" d="M127.38,34.15a9.91,9.91,0,1,1,9.91-9.91A9.92,9.92,0,0,1,127.38,34.15Zm0-18.15a8.24,8.24,0,1,0,8.24,8.24A8.25,8.25,0,0,0,127.38,16Z"/><path class="cls-7" d="M264.94,69.16a7.69,7.69,0,0,1-2.87-.48c-4.75-1.92-2.81-7.52-2.79-7.58l.62.22c-.07.21-1.75,5.07,2.41,6.74C267.06,70,276.94,65,277,64.91l.3.58C277,65.67,270.13,69.16,264.94,69.16Z"/><rect class="cls-19" x="129.19" y="289.24" width="40.09" height="3.26"/><rect class="cls-19" x="185.61" y="289.24" width="40.09" height="3.26"/><path class="cls-22" d="M152.81,116.56c-.05-.07-1.54-2.25-5.59-1.59l-.44-2.76c6-1,8.31,2.73,8.41,2.89Z"/><path class="cls-8" d="M149.47,96.4a3.5,3.5,0,1,1-3.5-3.5h0a3.5,3.5,0,0,1,3.5,3.5"/><path class="cls-8" d="M159.66,94.35a2.83,2.83,0,1,1-2.84-2.82h0a2.83,2.83,0,0,1,2.82,2.82"/><polygon class="cls-23" points="129.19 132.14 145.33 151.74 198.04 147.31 179.81 128.22 129.19 132.14"/><path class="cls-24" d="M186.75,179.34a1.19,1.19,0,0,1-.72-.23l-19.33-14.3a1.22,1.22,0,1,1,1.44-2l19.33,14.3a1.21,1.21,0,0,1-.72,2.19Z"/><path class="cls-24" d="M169.28,182.56a1.21,1.21,0,0,1-.94-2l16.08-19.45a1.22,1.22,0,0,1,1.88,1.54l-16.08,19.45A1.22,1.22,0,0,1,169.28,182.56Z"/><polygon class="cls-20" points="234.02 82.05 285.15 82.05 285.15 134.68 259.59 162.85 234.02 131.87 234.02 82.05"/><polygon class="cls-19" points="234.02 82.05 285.15 82.05 285.15 134.68 259.59 162.85 234.02 131.87 234.02 82.05"/><path class="cls-4" d="M257.68,136.12h0a8.76,8.76,0,1,1,8.75-8.77v0a8.77,8.77,0,0,1-8.75,8.75"/><polygon class="cls-6" points="274.14 146.81 275.25 145.59 245.84 145.59 245.84 146.19 246.35 146.81 274.14 146.81"/><polygon class="cls-6" points="285.15 124.47 234.02 127.61 234.02 128.23 234.06 128.83 285.15 125.69 285.15 124.47"/><polygon class="cls-6" points="285.15 90.37 285.12 89.77 234.02 92.52 234.02 93.14 234.05 93.74 285.15 90.99 285.15 90.37"/><polygon class="cls-6" points="285.15 112.11 285.15 110.89 234.08 105.8 234.02 106.41 234.02 107.02 285.15 112.11"/></svg>