<?xml version="1.0" encoding="UTF-8"?>
<svg width="543px" height="248px" viewBox="0 0 543 248" version="1.1" xmlns="http://www.w3.org/2000/svg" xmlns:xlink="http://www.w3.org/1999/xlink">
    <!-- Generator: Sketch 59.1 (86144) - https://sketch.com -->
    <title>File service architecture</title>
    <desc>Created with Sketch.</desc>
    <g id="Configuration" stroke="none" stroke-width="1" fill="none" fill-rule="evenodd">
        <g id="Provide-OVF_intro_initial" transform="translate(-559.000000, -295.000000)">
            <g id="Modal/Wizard-Special" transform="translate(290.000000, 151.000000)">
                <g id="File-service-architecture" transform="translate(269.000000, 144.000000)">
                    <text id="Pod-2" fill="#737373" font-family="Helvetica" font-size="11" font-weight="normal">
                        <tspan x="266.11" y="14.06">Pod 2</tspan>
                    </text>
                    <polyline id="Shape" stroke="#49AFD9" points="331.5 13 331.5 0.5 260.5 0.5 260.5 13"></polyline>
                    <text id="Pod-1" fill="#737373" font-family="Helvetica" font-size="11" font-weight="normal">
                        <tspan x="155.48" y="14.06">Pod 1</tspan>
                    </text>
                    <polyline id="Shape" stroke="#49AFD9" points="253.5 12.9 253.5 0.5 148.5 0.5 148.5 12.9"></polyline>
                    <polyline id="Shape" stroke="#A5B8C4" stroke-width="1.6" points="390.8 47 390.8 28.8 418.7 28.8"></polyline>
                    <path d="M386,47 L386,24.9 C386,24.4 386.3,24 386.8,24 C386.8,24 386.8,24 386.8,24 L422.2,24 C422.7,24 423,24.4 423,24.9 C423,24.9 423,24.9 423,24.9 L423,47" id="Shape" stroke="#61717D" stroke-width="2"></path>
                    <line x1="404" y1="72.7" x2="404" y2="54.7" id="Shape" stroke="#49AFD9" stroke-width="2"></line>
                    <path d="M381.5,50 L427.5,50 L427.5,50 L427.5,50.7 C427.5,52.5 426,54 424.2,54 L384.8,54 C383,54 381.5,52.5 381.5,50.7 L381.5,50 L381.5,50 Z" id="Shape" stroke="#61717D" stroke-width="2" stroke-linecap="round" stroke-linejoin="round"></path>
                    <polyline id="Shape" stroke="#A5B8C4" stroke-width="1.6" points="447.8 47 447.8 28.8 475.7 28.8"></polyline>
                    <path d="M443,47 L443,24.9 C443,24.4 443.3,24 443.8,24 C443.8,24 443.8,24 443.8,24 L479.2,24 C479.7,24 480,24.4 480,24.9 C480,24.9 480,24.9 480,24.9 L480,47" id="Shape" stroke="#61717D" stroke-width="2"></path>
                    <line x1="461" y1="72.7" x2="461" y2="54.7" id="Shape" stroke="#49AFD9" stroke-width="2"></line>
                    <path d="M438.5,50 L484.5,50 L484.5,50 L484.5,50.7 C484.5,52.5 483,54 481.2,54 L441.8,54 C440,54 438.5,52.5 438.5,50.7 L438.5,50 L438.5,50 Z" id="Shape" stroke="#61717D" stroke-width="2" stroke-linecap="round" stroke-linejoin="round"></path>
                    <polyline id="Shape" stroke="#A5B8C4" stroke-width="1.6" points="503.8 47 503.8 28.8 531.7 28.8"></polyline>
                    <path d="M499,47 L499,24.9 C499,24.4 499.3,24 499.8,24 C499.8,24 499.8,24 499.8,24 L535.2,24 C535.7,24 536,24.4 536,24.9 C536,24.9 536,24.9 536,24.9 L536,47" id="Shape" stroke="#61717D" stroke-width="2"></path>
                    <line x1="517" y1="72.7" x2="517" y2="54.7" id="Shape" stroke="#49AFD9" stroke-width="2"></line>
                    <path d="M494.5,50 L540.5,50 L540.5,50 L540.5,50.7 C540.5,52.5 539,54 537.2,54 L537.2,54 L497.8,54 C496,54 494.5,52.5 494.5,50.7 L494.5,50 L494.5,50 Z" id="Shape" stroke="#61717D" stroke-width="2" stroke-linecap="round" stroke-linejoin="round"></path>
                    <line x1="145" y1="180.5" x2="145" y2="158.7" id="Shape" stroke="#919FA8" stroke-width="2"></line>
                    <rect id="Rectangle-path" fill="#EEEEEE" fill-rule="nonzero" x="132" y="206" width="26" height="39"></rect>
                    <path d="M127,181 L163,181 C163.6,181 164,181.4 164,182 L164,246 C164,246.6 163.6,247 163,247 L127,247 C126.4,247 126,246.6 126,246 L126,182 C126,181.4 126.4,181 127,181 Z" id="Shape" stroke="#61717D" stroke-width="2" stroke-linecap="round" stroke-linejoin="round"></path>
                    <line x1="134.2" y1="189" x2="155.8" y2="189" id="Shape" stroke="#61717D" stroke-width="2" stroke-linecap="round" stroke-linejoin="round"></line>
                    <line x1="271" y1="180.5" x2="271" y2="158.7" id="Shape" stroke="#919FA8" stroke-width="2"></line>
                    <rect id="Rectangle-path" fill="#EEEEEE" fill-rule="nonzero" x="258" y="206" width="26" height="39"></rect>
                    <path d="M253,181 L289,181 C289.6,181 290,181.4 290,182 L290,246 C290,246.6 289.6,247 289,247 L253,247 C252.4,247 252,246.6 252,246 L252,182 C252,181.4 252.4,181 253,181 Z" id="Shape" stroke="#61717D" stroke-width="2" stroke-linecap="round" stroke-linejoin="round"></path>
                    <text id="ESXi" font-family="Helvetica" font-size="10" font-weight="normal" fill="#000000">
                        <tspan x="134" y="235">ESXi</tspan>
                    </text>
                    <text id="ESXi" font-family="Helvetica" font-size="10" font-weight="normal" fill="#000000">
                        <tspan x="260" y="235">ESXi</tspan>
                    </text>
                    <line x1="260.2" y1="189" x2="281.8" y2="189" id="Shape" stroke="#61717D" stroke-width="2" stroke-linecap="round" stroke-linejoin="round"></line>
                    <line x1="397" y1="180.5" x2="397" y2="158.7" id="Shape" stroke="#919FA8" stroke-width="2"></line>
                    <rect id="Rectangle-path" fill="#EEEEEE" fill-rule="nonzero" x="384" y="206" width="26" height="39"></rect>
                    <path d="M379,181 L415,181 C415.6,181 416,181.4 416,182 L416,246 C416,246.6 415.6,247 415,247 L379,247 C378.4,247 378,246.6 378,246 L378,182 C378,181.4 378.4,181 379,181 Z" id="Shape" stroke="#61717D" stroke-width="2" stroke-linecap="round" stroke-linejoin="round"></path>
                    <line x1="386.2" y1="189" x2="407.8" y2="189" id="Shape" stroke="#61717D" stroke-width="2" stroke-linecap="round" stroke-linejoin="round"></line>
                    <path d="M0,129 L542,129 L542,129 L542,160.9 C542,162.6 540.6,164 538.9,164 L3.1,164 C1.4,164 0,162.6 0,160.9 L0,160.9 L0,129 L0,129 Z" id="Shape" fill="#919FA8" fill-rule="nonzero"></path>
                    <path d="M3.1,104 L539,104 C540.7,104 542,105.4 542,107.1 L542,128 L542,128 L0,128 L0,128 L0,107.1 C0,105.4 1.4,104 3.1,104 C3,104 3,104 3.1,104 Z" id="Shape" fill="#C1CDD4" fill-rule="nonzero"></path>
                    <line x1="167" y1="70.8" x2="167" y2="55.2" id="Shape" stroke="#49AFD9" stroke-width="2"></line>
                    <circle id="Oval" fill="#49AFD9" fill-rule="nonzero" cx="332.2" cy="40.7" r="1.3"></circle>
                    <circle id="Oval" fill="#49AFD9" fill-rule="nonzero" cx="337.9" cy="40.7" r="1.3"></circle>
                    <circle id="Oval" fill="#49AFD9" fill-rule="nonzero" cx="343.6" cy="40.7" r="1.3"></circle>
                    <path d="M153.8,27 L180.2,27 C180.6,27 181,27.4 181,27.8 L181,54.3 C181,54.7 180.6,55.1 180.2,55.1 L153.8,55.1 C153.4,55.1 153,54.7 153,54.3 L153,27.8 C153,27.4 153.4,27 153.8,27 Z" id="Shape" stroke="#49AFD9" stroke-width="2" fill="#FFFFFF" fill-rule="nonzero"></path>
                    <line x1="159.5" y1="32" x2="159.5" y2="49.7" id="Shape" stroke="#89CBDF" stroke-width="1.6" stroke-linecap="round"></line>
                    <line x1="164.5" y1="32" x2="164.5" y2="49.7" id="Shape" stroke="#89CBDF" stroke-width="1.6" stroke-linecap="round"></line>
                    <line x1="169.5" y1="32" x2="169.5" y2="49.7" id="Shape" stroke="#89CBDF" stroke-width="1.6" stroke-linecap="round"></line>
                    <line x1="174.5" y1="32" x2="174.5" y2="49.7" id="Shape" stroke="#89CBDF" stroke-width="1.6" stroke-linecap="round"></line>
                    <line x1="201" y1="70.8" x2="201" y2="55.2" id="Shape" stroke="#49AFD9" stroke-width="2"></line>
                    <path d="M187.8,27 L214.2,27 C214.6,27 215,27.4 215,27.8 L215,54.3 C215,54.7 214.6,55.1 214.2,55.1 L187.8,55.1 C187.4,55.1 187,54.7 187,54.3 L187,27.8 C187,27.4 187.4,27 187.8,27 Z" id="Shape" stroke="#49AFD9" stroke-width="2" fill="#FFFFFF" fill-rule="nonzero"></path>
                    <line x1="193.5" y1="32" x2="193.5" y2="49.7" id="Shape" stroke="#89CBDF" stroke-width="1.6" stroke-linecap="round"></line>
                    <line x1="198.5" y1="32" x2="198.5" y2="49.7" id="Shape" stroke="#89CBDF" stroke-width="1.6" stroke-linecap="round"></line>
                    <line x1="203.5" y1="32" x2="203.5" y2="49.7" id="Shape" stroke="#89CBDF" stroke-width="1.6" stroke-linecap="round"></line>
                    <line x1="208.5" y1="32" x2="208.5" y2="49.7" id="Shape" stroke="#89CBDF" stroke-width="1.6" stroke-linecap="round"></line>
                    <line x1="235" y1="70.8" x2="235" y2="55.2" id="Shape" stroke="#49AFD9" stroke-width="2"></line>
                    <path d="M221.8,27 L248.2,27 C248.6,27 249,27.4 249,27.8 L249,54.3 C249,54.7 248.6,55.1 248.2,55.1 L221.8,55.1 C221.4,55.1 221,54.7 221,54.3 L221,27.8 C221,27.4 221.4,27 221.8,27 Z" id="Shape" stroke="#49AFD9" stroke-width="2" fill="#FFFFFF" fill-rule="nonzero"></path>
                    <line x1="227.5" y1="32" x2="227.5" y2="49.7" id="Shape" stroke="#89CBDF" stroke-width="1.6" stroke-linecap="round"></line>
                    <line x1="232.5" y1="32" x2="232.5" y2="49.7" id="Shape" stroke="#89CBDF" stroke-width="1.6" stroke-linecap="round"></line>
                    <line x1="237.5" y1="32" x2="237.5" y2="49.7" id="Shape" stroke="#89CBDF" stroke-width="1.6" stroke-linecap="round"></line>
                    <line x1="242.5" y1="32" x2="242.5" y2="49.7" id="Shape" stroke="#89CBDF" stroke-width="1.6" stroke-linecap="round"></line>
                    <line x1="279" y1="70.8" x2="279" y2="55.2" id="Shape" stroke="#49AFD9" stroke-width="2"></line>
                    <path d="M265.8,27 L292.2,27 C292.6,27 293,27.4 293,27.8 L293,54.3 C293,54.7 292.6,55.1 292.2,55.1 L265.8,55.1 C265.4,55.1 265,54.7 265,54.3 L265,27.8 C265,27.4 265.4,27 265.8,27 Z" id="Shape" stroke="#49AFD9" stroke-width="2" fill="#FFFFFF" fill-rule="nonzero"></path>
                    <line x1="271.5" y1="32" x2="271.5" y2="49.7" id="Shape" stroke="#89CBDF" stroke-width="1.6" stroke-linecap="round"></line>
                    <line x1="276.5" y1="32" x2="276.5" y2="49.7" id="Shape" stroke="#89CBDF" stroke-width="1.6" stroke-linecap="round"></line>
                    <line x1="281.5" y1="32" x2="281.5" y2="49.7" id="Shape" stroke="#89CBDF" stroke-width="1.6" stroke-linecap="round"></line>
                    <line x1="286.5" y1="32" x2="286.5" y2="49.7" id="Shape" stroke="#89CBDF" stroke-width="1.6" stroke-linecap="round"></line>
                    <line x1="313" y1="70.8" x2="313" y2="55.2" id="Shape" stroke="#49AFD9" stroke-width="2"></line>
                    <path d="M299.8,27 L326.2,27 C326.6,27 327,27.4 327,27.8 L327,54.3 C327,54.7 326.6,55.1 326.2,55.1 L299.8,55.1 C299.4,55.1 299,54.7 299,54.3 L299,27.8 C299,27.4 299.4,27 299.8,27 Z" id="Shape" stroke="#49AFD9" stroke-width="2" fill="#FFFFFF" fill-rule="nonzero"></path>
                    <line x1="305.5" y1="32" x2="305.5" y2="49.7" id="Shape" stroke="#89CBDF" stroke-width="1.6" stroke-linecap="round"></line>
                    <line x1="310.5" y1="32" x2="310.5" y2="49.7" id="Shape" stroke="#89CBDF" stroke-width="1.6" stroke-linecap="round"></line>
                    <line x1="315.5" y1="32" x2="315.5" y2="49.7" id="Shape" stroke="#89CBDF" stroke-width="1.6" stroke-linecap="round"></line>
                    <line x1="320.5" y1="32" x2="320.5" y2="49.7" id="Shape" stroke="#89CBDF" stroke-width="1.6" stroke-linecap="round"></line>
                    <line x1="15" y1="76.3" x2="15" y2="54.4" id="Shape" stroke="#49AFD9" stroke-width="2"></line>
                    <circle id="Oval" fill="#49AFD9" fill-rule="nonzero" cx="110.7" cy="40.7" r="1.3"></circle>
                    <circle id="Oval" fill="#49AFD9" fill-rule="nonzero" cx="116.4" cy="40.7" r="1.3"></circle>
                    <circle id="Oval" fill="#49AFD9" fill-rule="nonzero" cx="122.1" cy="40.7" r="1.3"></circle>
                    <path d="M1.8,27 L28.2,27 C28.6,27 29,27.4 29,27.8 L29,54.2 C29,54.6 28.6,55 28.2,55 L1.8,55 C1.4,55 1,54.7 1,54.2 L1,27.8 C1,27.4 1.4,27 1.8,27 Z" id="Shape" stroke="#49AFD9" stroke-width="2" fill="#E1F1F6" fill-rule="nonzero"></path>
                    <polygon id="Shape" fill="#000000" fill-rule="nonzero" points="14.1 37 11 44 10.1 44 7 37 7.9 37 10.5 43 13.1 37"></polygon>
                    <polygon id="Shape" fill="#000000" fill-rule="nonzero" points="15.3 37 16.1 37 18.7 41.8 21.3 37 22.1 37 22.1 44 21.3 44 21.3 38.7 18.7 43.5 16.1 38.7 16.1 44 15.3 44"></polygon>
                    <line x1="53" y1="76.3" x2="53" y2="54.4" id="Shape" stroke="#49AFD9" stroke-width="2"></line>
                    <path d="M39.8,27 L66.2,27 C66.6,27 67,27.4 67,27.8 L67,54.2 C67,54.6 66.6,55 66.2,55 L39.8,55 C39.4,55 39,54.6 39,54.2 L39,27.8 C39,27.4 39.4,27 39.8,27 Z" id="Shape" stroke="#49AFD9" stroke-width="2" fill="#E1F1F6" fill-rule="nonzero"></path>
                    <polygon id="Shape" fill="#000000" fill-rule="nonzero" points="52.1 37 49 44 48.1 44 45 37 45.9 37 48.6 43 51.2 37"></polygon>
                    <polygon id="Shape" fill="#000000" fill-rule="nonzero" points="53.3 37 54.1 37 56.7 41.8 59.3 37 60.1 37 60.1 44 59.3 44 59.3 38.7 56.7 43.5 54.1 38.7 54.1 44 53.3 44"></polygon>
                    <line x1="91" y1="76.3" x2="91" y2="54.4" id="Shape" stroke="#49AFD9" stroke-width="2"></line>
                    <path d="M77.8,27 L104.2,27 C104.6,27 105,27.4 105,27.8 L105,54.2 C105,54.6 104.6,55 104.2,55 L77.8,55 C77.4,55 77,54.6 77,54.2 L77,27.8 C77,27.4 77.4,27 77.8,27 Z" id="Shape" stroke="#49AFD9" stroke-width="2" fill="#E1F1F6" fill-rule="nonzero"></path>
                    <polygon id="Shape" fill="#000000" fill-rule="nonzero" points="90.1 37 87 44 86.1 44 83 37 83.9 37 86.6 43 89.2 37"></polygon>
                    <polygon id="Shape" fill="#000000" fill-rule="nonzero" points="91.3 37 92.1 37 94.7 41.8 97.3 37 98.1 37 98.1 44 97.3 44 97.3 38.7 94.7 43.5 92.1 38.7 92.1 44 91.3 44"></polygon>
                    <path d="M0.2,68 L542.2,68 L542.2,68 L542.2,88.9 C542.2,90.6 540.8,91.9 539.2,92 L3.2,92 C1.5,92 0.2,90.6 0.1,88.9 L0.1,88.9 L0.1,68 L0.2,68 Z" id="Shape" fill="#49AFD9" fill-rule="nonzero"></path>
                    <text id="vSAN" fill="#000000" font-family="Helvetica" font-size="13" font-weight="normal">
                        <tspan x="254" y="150">vSAN</tspan>
                    </text>
                    <text id="Distributed-File-System" fill="#000000" font-family="Helvetica" font-size="13" font-weight="normal">
                        <tspan x="197.68" y="120.49">Distributed File System</tspan>
                    </text>
                    <polygon id="Shape" fill="#49AFD9" fill-rule="nonzero" points="251.1 79 270.9 98.8 290.7 79"></polygon>
                    <text id="File-Share-(NFS/SMB)" fill="#000000" font-family="Helvetica" font-size="13" font-weight="normal">
                        <tspan x="221.1223" y="84.99">File Share (NFS/SMB)</tspan>
                    </text>
                    <text id="ESXi" font-family="Helvetica" font-size="10" font-weight="normal" fill="#000000">
                        <tspan x="386" y="235">ESXi</tspan>
                    </text>
                </g>
            </g>
        </g>
    </g>
</svg>