<svg xmlns="http://www.w3.org/2000/svg" xmlns:xlink="http://www.w3.org/1999/xlink" width="662.97" height="292.49" viewBox="0 0 662.97 292.49"><defs><style>.cls-1{isolation:isolate;}.cls-2{fill:url(#linear-gradient);}.cls-3{fill:url(#linear-gradient-2);}.cls-13,.cls-15,.cls-16,.cls-4{fill:none;}.cls-4{stroke:#8cdfe9;stroke-linecap:round;stroke-linejoin:round;stroke-width:1.51px;}.cls-5{fill:url(#linear-gradient-3);}.cls-6{mix-blend-mode:multiply;}.cls-7{fill:#cee6f7;}.cls-8{fill:#001559;}.cls-9{fill:#1d428a;}.cls-10{fill:#0091da;}.cls-11{fill:url(#linear-gradient-4);}.cls-12{fill:#fff;}.cls-13{stroke:#19bfd3;stroke-width:1.75px;}.cls-13,.cls-15,.cls-16{stroke-miterlimit:10;}.cls-14{opacity:0.3;}.cls-15{stroke:#4896d1;stroke-width:5px;}.cls-16{stroke:#1d2055;stroke-width:1.3px;}.cls-17{fill:#f7c22b;}.cls-18{fill:url(#linear-gradient-5);}</style><linearGradient id="linear-gradient" x1="447.44" y1="56.93" x2="447.44" y2="275.3" gradientUnits="userSpaceOnUse"><stop offset="0.14" stop-color="#19bfd3" stop-opacity="0"/><stop offset="0.24" stop-color="#19bfd3" stop-opacity="0.14"/><stop offset="0.36" stop-color="#19bfd3" stop-opacity="0.28"/><stop offset="0.46" stop-color="#19bfd3" stop-opacity="0.37"/><stop offset="0.54" stop-color="#19bfd3" stop-opacity="0.4"/><stop offset="0.63" stop-color="#19bfd3" stop-opacity="0.37"/><stop offset="0.74" stop-color="#19bfd3" stop-opacity="0.29"/><stop offset="0.88" stop-color="#19bfd3" stop-opacity="0.15"/><stop offset="1" stop-color="#19bfd3" stop-opacity="0"/></linearGradient><linearGradient id="linear-gradient-2" x1="357.11" y1="58.79" x2="357.11" y2="275.73" gradientUnits="userSpaceOnUse"><stop offset="0" stop-color="#22b9a5" stop-opacity="0"/><stop offset="0.16" stop-color="#21b9a8" stop-opacity="0.03"/><stop offset="0.39" stop-color="#20bab0" stop-opacity="0.11"/><stop offset="0.65" stop-color="#1dbcbc" stop-opacity="0.25"/><stop offset="0.93" stop-color="#1abece" stop-opacity="0.45"/><stop offset="1" stop-color="#19bfd3" stop-opacity="0.5"/></linearGradient><linearGradient id="linear-gradient-3" x1="456.47" y1="304.62" x2="112.26" y2="304.62" gradientTransform="translate(5.66 -22.95) rotate(-0.24)" gradientUnits="userSpaceOnUse"><stop offset="0" stop-color="#218fcf" stop-opacity="0"/><stop offset="0.11" stop-color="#218fcf" stop-opacity="0.24"/><stop offset="0.3" stop-color="#218fcf" stop-opacity="0.65"/><stop offset="0.43" stop-color="#218fcf" stop-opacity="0.9"/><stop offset="0.5" stop-color="#218fcf"/></linearGradient><linearGradient id="linear-gradient-4" x1="3601.85" y1="-4072" x2="3601.85" y2="-4162.51" gradientTransform="translate(3845.25 -3925.79) rotate(179.76)" gradientUnits="userSpaceOnUse"><stop offset="0" stop-color="#81c6ed" stop-opacity="0"/><stop offset="0.21" stop-color="#81c6ed" stop-opacity="0.03"/><stop offset="0.5" stop-color="#81c6ed" stop-opacity="0.1"/><stop offset="0.83" stop-color="#81c6ed" stop-opacity="0.23"/><stop offset="1" stop-color="#81c6ed" stop-opacity="0.3"/></linearGradient><linearGradient id="linear-gradient-5" x1="395.95" y1="185.38" x2="395.95" y2="275.88" gradientTransform="translate(5.66 -22.95) rotate(-0.24)" xlink:href="#linear-gradient-4"/></defs><g class="cls-1"><g id="Layer_1" data-name="Layer 1"><path class="cls-2" d="M467.79,176h1.86a2.78,2.78,0,0,1,2.79,2.76l.25,60.8L652,56.93,455.87,58.35l-138.36,141,.2,48.72a3.35,3.35,0,0,1-3.34,3.36h-2.24L311.94,205l-69,70.32,166.55-.7,29-.12,29.65-30.21Z"/><path class="cls-3" d="M355.91,60.38,142.38,275.73l215.24-.91,214.22-216Zm-41.54,191h-2.24l-.38-90.26H314a3.36,3.36,0,0,1,3.37,3.34l.35,83.56A3.35,3.35,0,0,1,314.37,251.39Z"/><polyline class="cls-4" points="135.14 186 134.41 14.04 268.1 13.48 268.65 143.51"/><circle class="cls-4" cx="55.07" cy="129.59" r="3.36"/><circle class="cls-4" cx="70.97" cy="111.13" r="3.36"/><circle class="cls-4" cx="90.34" cy="128.94" r="3.36"/><circle class="cls-4" cx="110.66" cy="95.27" r="3.36"/><line class="cls-4" x1="56.82" y1="126.73" x2="68.46" y2="113.35"/><line class="cls-4" x1="74.28" y1="112.97" x2="88.24" y2="126.33"/><line class="cls-4" x1="108.93" y1="98.14" x2="92.18" y2="126.14"/><line class="cls-4" x1="40.93" y1="114.77" x2="11.83" y2="114.89"/><line class="cls-4" x1="40.89" y1="104.85" x2="15.47" y2="104.96"/><line class="cls-4" x1="40.85" y1="94.93" x2="8.43" y2="95.07"/><circle class="cls-4" cx="82.57" cy="41.89" r="31.22"/><polyline class="cls-4" points="82.44 10.67 82.57 41.89 51.35 42.02"/><line class="cls-4" x1="58.34" y1="61.58" x2="82.57" y2="41.89"/><line class="cls-4" x1="68.25" y1="69.64" x2="82.57" y2="41.89"/><line class="cls-4" x1="40.09" y1="42.07" x2="17.6" y2="42.17"/><line class="cls-4" x1="40.13" y1="51.99" x2="26.95" y2="52.05"/><line class="cls-4" x1="40.17" y1="61.91" x2="14.75" y2="62.01"/><polygon class="cls-4" points="173.19 32.76 178.89 27.01 184.63 32.71 173.19 32.76"/><line class="cls-4" x1="134.51" y1="38.21" x2="268.2" y2="37.64"/><line class="cls-4" x1="134.45" y1="22.66" x2="268.14" y2="22.09"/><line class="cls-4" x1="141.25" y1="30.03" x2="163.64" y2="29.94"/><line class="cls-4" x1="196.31" y1="29.8" x2="222.12" y2="29.69"/><line class="cls-4" x1="234.36" y1="29.64" x2="260.17" y2="29.53"/><polygon class="cls-4" points="173.26 49.05 178.96 43.31 184.7 49 173.26 49.05"/><line class="cls-4" x1="134.58" y1="54.5" x2="268.27" y2="53.94"/><line class="cls-4" x1="141.32" y1="46.32" x2="163.71" y2="46.23"/><line class="cls-4" x1="196.38" y1="46.09" x2="222.19" y2="45.98"/><line class="cls-4" x1="234.43" y1="45.93" x2="254.26" y2="45.85"/><polygon class="cls-4" points="173.33 65.34 179.03 59.6 184.77 65.3 173.33 65.34"/><line class="cls-4" x1="134.65" y1="70.79" x2="268.34" y2="70.23"/><line class="cls-4" x1="141.39" y1="62.62" x2="163.77" y2="62.52"/><line class="cls-4" x1="196.45" y1="62.39" x2="218.43" y2="62.29"/><line class="cls-4" x1="234.5" y1="62.23" x2="260.31" y2="62.12"/><polygon class="cls-4" points="173.45 92.21 179.19 97.91 184.88 92.16 173.45 92.21"/><line class="cls-4" x1="134.72" y1="87.09" x2="268.41" y2="86.52"/><line class="cls-4" x1="141.46" y1="78.91" x2="163.84" y2="78.82"/><line class="cls-4" x1="196.52" y1="78.68" x2="222.33" y2="78.57"/><line class="cls-4" x1="234.56" y1="78.52" x2="260.38" y2="78.41"/><polygon class="cls-4" points="173.38 75.92 179.12 81.61 184.81 75.87 173.38 75.92"/><line class="cls-4" x1="134.79" y1="103.38" x2="268.48" y2="102.82"/><line class="cls-4" x1="141.52" y1="95.21" x2="163.91" y2="95.11"/><line class="cls-4" x1="196.58" y1="94.97" x2="222.4" y2="94.86"/><line class="cls-4" x1="234.63" y1="94.81" x2="253.66" y2="94.73"/><polygon class="cls-4" points="173.54 114.22 179.23 108.48 184.98 114.17 173.54 114.22"/><line class="cls-4" x1="134.86" y1="119.67" x2="268.55" y2="119.11"/><line class="cls-4" x1="141.59" y1="111.5" x2="163.98" y2="111.4"/><line class="cls-4" x1="196.65" y1="111.27" x2="222.46" y2="111.16"/><line class="cls-4" x1="234.7" y1="111.11" x2="260.51" y2="111"/><polygon class="cls-4" points="173.59 125.84 179.33 131.54 185.03 125.79 173.59 125.84"/><line class="cls-4" x1="134.93" y1="135.97" x2="268.62" y2="135.4"/><line class="cls-4" x1="141.66" y1="127.79" x2="164.05" y2="127.7"/><line class="cls-4" x1="196.72" y1="127.56" x2="222.53" y2="127.45"/><line class="cls-4" x1="234.77" y1="127.4" x2="254.6" y2="127.32"/><polygon class="cls-4" points="173.68 146.81 179.37 141.07 185.11 146.76 173.68 146.81"/><line class="cls-4" x1="134.99" y1="152.26" x2="234.87" y2="151.84"/><line class="cls-4" x1="141.73" y1="144.09" x2="164.12" y2="143.99"/><line class="cls-4" x1="196.79" y1="143.85" x2="222.6" y2="143.74"/><line class="cls-4" x1="234.84" y1="143.69" x2="260.65" y2="143.58"/><line class="cls-4" x1="141.8" y1="160.38" x2="164.19" y2="160.28"/><polygon class="cls-5" points="463.43 285.12 448.47 285.18 119.23 286.57 119.19 275.82 463.39 274.37 463.43 285.12"/><g class="cls-6"><circle class="cls-7" cx="508.6" cy="92.91" r="23.28"/><circle class="cls-7" cx="508.87" cy="157.41" r="23.28"/><circle class="cls-7" cx="509.14" cy="221.91" r="23.28"/></g><rect class="cls-8" x="183.34" y="161.41" width="128.61" height="90.26" transform="translate(-0.87 1.05) rotate(-0.24)"/><rect class="cls-8" x="338.25" y="160.76" width="128.67" height="90.26" transform="matrix(1, 0, 0, 1, -0.86, 1.7)"/><rect class="cls-9" x="347.8" y="170.07" width="109.51" height="33.7" transform="translate(-0.78 1.7) rotate(-0.24)"/><rect class="cls-9" x="190.78" y="170.89" width="33.46" height="73.78" transform="translate(-0.87 0.88) rotate(-0.24)"/><rect class="cls-9" x="230.53" y="170.73" width="33.46" height="73.78" transform="translate(-0.87 1.04) rotate(-0.24)"/><rect class="cls-9" x="270.28" y="170.56" width="33.46" height="73.78" transform="matrix(1, 0, 0, 1, -0.87, 1.21)"/><rect class="cls-9" x="347.97" y="208.57" width="52.59" height="34.54" transform="translate(-0.95 1.58) rotate(-0.24)"/><rect class="cls-10" x="405.01" y="208.33" width="52.59" height="34.54" transform="translate(-0.95 1.82) rotate(-0.24)"/><polygon class="cls-11" points="209.83 252.07 299.95 161.19 311.75 161.14 312.13 251.64 209.83 252.07"/><circle class="cls-12" cx="504.15" cy="89.66" r="23.28"/><circle class="cls-12" cx="504.42" cy="154.16" r="23.28"/><circle class="cls-12" cx="504.69" cy="218.66" r="23.28"/><polyline class="cls-13" points="504.63 203.28 504.69 218.66 512.8 210.93"/><polyline class="cls-13" points="504.36 138.78 504.42 154.16 515.97 154.11"/><polyline class="cls-13" points="504.08 74.28 504.15 89.66 513.75 99.8"/><g class="cls-14"><line class="cls-15" x1="357.04" y1="208.64" x2="357.19" y2="243.18"/><line class="cls-15" x1="368.53" y1="208.59" x2="368.68" y2="243.13"/><line class="cls-15" x1="380.02" y1="208.54" x2="380.16" y2="243.08"/><line class="cls-15" x1="391.51" y1="208.5" x2="391.65" y2="243.03"/></g><polyline class="cls-16" points="402.82 239.54 415.33 226.93 422.65 234.19 438.5 218.21 447.85 227.47 460.05 215.17"/><rect class="cls-17" x="190.65" y="170.89" width="33.46" height="12.73" transform="translate(-0.75 0.88) rotate(-0.24)"/><polygon class="cls-18" points="466.83 184.63 400.75 251.27 338.44 251.53 338.06 161.03 466.66 160.49 466.83 184.63"/></g></g></svg>