<svg width="328" height="296" viewBox="0 0 328 296" fill="none" xmlns="http://www.w3.org/2000/svg">
<path d="M190.14 289.78C262.335 289.78 320.86 278.18 320.86 263.87C320.86 249.56 262.335 237.96 190.14 237.96C117.945 237.96 59.4199 249.56 59.4199 263.87C59.4199 278.18 117.945 289.78 190.14 289.78Z" fill="url(#paint0_linear)"/>
<path d="M223.16 267.07C222.73 266.21 212.53 245.8 209.43 227.19C205.84 205.64 214.31 181.24 214.67 180.19L225.05 183.84C224.97 184.07 217.16 206.65 220.28 225.36C223.11 242.36 232.89 261.91 232.99 262.11L223.16 267.07Z" fill="url(#paint1_linear)"/>
<path fill-rule="evenodd" clip-rule="evenodd" d="M222.2 252.86C226.874 252.82 231.373 254.636 234.711 257.909C238.048 261.182 239.95 265.646 240 270.32L195.5 270.79C195.5 270.79 203.28 253.06 222.2 252.86Z" fill="url(#paint2_linear)"/>
<path d="M145.897 18.4803L143.982 19.0574L155.976 58.8594L157.891 58.2824L145.897 18.4803Z" fill="#4896D1"/>
<path d="M144.51 21.38C146.741 21.38 148.55 19.5713 148.55 17.34C148.55 15.1088 146.741 13.3 144.51 13.3C142.279 13.3 140.47 15.1088 140.47 17.34C140.47 19.5713 142.279 21.38 144.51 21.38Z" fill="#4896D1"/>
<path d="M218 88.9999L204.9 47.2099C202.486 40.2545 197.488 34.4954 190.941 31.1271C184.394 27.7588 176.802 27.0401 169.74 29.1199C163.051 31.0917 157.31 35.4337 153.592 41.3331C149.874 47.2325 148.433 54.2849 149.54 61.1699L161.54 107.37L218 88.9999Z" fill="url(#paint3_linear)"/>
<path d="M167.57 78.6699C175.932 78.6699 182.71 71.8915 182.71 63.5299C182.71 55.1683 175.932 48.3899 167.57 48.3899C159.208 48.3899 152.43 55.1683 152.43 63.5299C152.43 71.8915 159.208 78.6699 167.57 78.6699Z" fill="url(#paint4_linear)"/>
<path d="M133.7 164.2H132.48L121 163.7C119.674 163.646 118.424 163.067 117.524 162.09C116.625 161.114 116.151 159.821 116.205 158.495C116.259 157.169 116.838 155.919 117.814 155.019C118.79 154.12 120.084 153.646 121.41 153.7L132.93 154.17C137.22 154.338 141.447 153.101 144.969 150.646C148.49 148.191 151.114 144.653 152.44 140.57L158.94 120.36C159.137 119.734 159.455 119.152 159.877 118.649C160.299 118.145 160.815 117.73 161.398 117.426C161.98 117.123 162.616 116.937 163.27 116.879C163.924 116.821 164.583 116.893 165.21 117.09C165.836 117.287 166.418 117.605 166.921 118.027C167.424 118.449 167.84 118.965 168.143 119.548C168.447 120.13 168.633 120.766 168.691 121.42C168.749 122.074 168.677 122.734 168.48 123.36V123.43L162 143.63C160.062 149.609 156.279 154.821 151.195 158.516C146.11 162.212 139.986 164.202 133.7 164.2Z" fill="url(#paint5_linear)"/>
<path d="M126.66 154.7C126.1 151.824 124.709 149.175 122.66 147.08C115.55 155.29 101.2 162.3 98.3 163.82C101.12 171.28 108.6 175.76 115.94 174C124 172.08 128.75 163.44 126.66 154.7Z" fill="url(#paint6_linear)"/>
<path d="M161.71 266.33C161.39 265.39 153.71 243.11 154.46 227.05C155.56 202.92 180.41 182.98 181.46 182.14L188.04 190.43C187.81 190.61 165.91 208.24 165.04 227.53C164.41 241.53 171.65 262.66 171.72 262.87L161.71 266.33Z" fill="url(#paint7_linear)"/>
<path fill-rule="evenodd" clip-rule="evenodd" d="M156.57 99.3501L210.46 82.8101L239.33 185.88L174.42 200.41C170.873 201.196 167.158 200.541 164.094 198.589C161.03 196.637 158.866 193.547 158.08 190C158.08 189.87 158.03 189.73 158 189.6L145.53 126.47L156.57 99.3501Z" fill="url(#paint8_linear)"/>
<path fill-rule="evenodd" clip-rule="evenodd" d="M227.52 79.48L210.46 82.81L201.75 109.63L215.81 171C216.372 173.523 217.425 175.91 218.91 178.026C220.395 180.141 222.281 181.944 224.463 183.33C226.644 184.717 229.077 185.66 231.623 186.106C234.169 186.552 236.777 186.492 239.3 185.93C242.043 185.314 244.638 184.164 246.937 182.545C249.236 180.926 251.193 178.87 252.698 176.495C254.202 174.12 255.224 171.471 255.705 168.701C256.185 165.931 256.116 163.093 255.5 160.35C255.44 160.08 255.37 159.81 255.3 159.55L244.3 118.3C236.94 91.66 227.52 79.48 227.52 79.48Z" fill="url(#paint9_linear)"/>
<path d="M156.62 179.77L254.1 154.93" stroke="#4896D1" stroke-width="2" stroke-miterlimit="10"/>
<path d="M191.64 127L197.37 151.25C197.614 152.289 197.445 153.382 196.899 154.298C196.352 155.214 195.47 155.882 194.44 156.16L170.67 162.56C169.624 162.835 168.511 162.686 167.575 162.145C166.638 161.603 165.954 160.714 165.67 159.67C165.67 159.61 165.67 159.56 165.67 159.5L160.29 135.5C160.059 134.475 160.229 133.401 160.767 132.498C161.305 131.596 162.169 130.934 163.18 130.65L186.53 124C187.047 123.852 187.589 123.808 188.123 123.87C188.658 123.931 189.175 124.098 189.645 124.36C190.115 124.622 190.529 124.974 190.863 125.396C191.196 125.818 191.444 126.302 191.59 126.82C191.611 126.879 191.628 126.939 191.64 127Z" fill="#81C6ED"/>
<path fill-rule="evenodd" clip-rule="evenodd" d="M160.84 252.86C165.519 252.812 170.026 254.624 173.37 257.899C176.713 261.173 178.62 265.641 178.67 270.32L134.17 270.79C134.17 270.79 141.92 253.06 160.84 252.86Z" fill="url(#paint10_linear)"/>
<path fill-rule="evenodd" clip-rule="evenodd" d="M201.75 109.63L145.51 126.49L156.57 99.3501L210.46 82.8101L201.75 109.63Z" fill="url(#paint11_linear)"/>
<path fill-rule="evenodd" clip-rule="evenodd" d="M201.75 109.63L145.51 126.49L145.95 125.33L202.15 108.27L201.75 109.63Z" fill="url(#paint12_linear)"/>
<path d="M265.9 161.92C265.64 161.92 265.39 161.92 265.13 161.92C263.683 161.79 262.346 161.094 261.41 159.984C260.473 158.873 260.013 157.438 260.13 155.99C261.21 142.79 258.43 132.21 251.88 124.54C241.88 112.86 226.49 111.54 226.33 111.54C224.913 111.376 223.615 110.671 222.707 109.571C221.799 108.472 221.352 107.063 221.46 105.641C221.567 104.219 222.22 102.894 223.283 101.943C224.345 100.992 225.735 100.489 227.16 100.54C227.98 100.6 247.32 102.22 260.24 117.34C268.77 127.34 272.42 140.61 271.09 156.83C270.992 158.165 270.411 159.418 269.456 160.355C268.5 161.292 267.236 161.848 265.9 161.92Z" fill="url(#paint13_linear)"/>
<path d="M275.416 167.035C276.611 159.67 271.61 152.731 264.245 151.535C256.88 150.34 249.94 155.341 248.745 162.706C247.549 170.071 252.551 177.011 259.916 178.206C267.281 179.402 274.22 174.4 275.416 167.035Z" fill="url(#paint14_linear)"/>
<path d="M81.8868 121.913L76.1733 127.626L102.513 153.966L108.226 148.253L81.8868 121.913Z" fill="url(#paint15_linear)"/>
<path d="M65.6799 75.26C47.5199 57.1 25.6799 49.46 16.9399 58.16L10.1299 65L13.2899 68.16C13.2099 78.77 20.8399 93.82 33.9999 107C47.1599 120.18 62.1799 127.77 72.8199 127.69L75.9999 130.81L82.7799 124C91.4799 115.22 83.8299 93.42 65.6799 75.26Z" fill="url(#paint16_linear)"/>
<path d="M71.9671 126.354C79.9221 118.399 73.6538 99.233 57.9664 83.5457C42.279 67.8583 23.1131 61.59 15.1582 69.545C7.20318 77.4999 13.4715 96.6658 29.1589 112.353C44.8462 128.041 64.0121 134.309 71.9671 126.354Z" fill="white"/>
<path d="M102.185 139.107L93.3816 147.911L99.2081 153.737L108.012 144.934L102.185 139.107Z" fill="#475B6B"/>
<path d="M90.5799 145.44L99.7099 136.3C99.943 136.067 100.22 135.882 100.524 135.756C100.829 135.63 101.155 135.565 101.485 135.565C101.815 135.565 102.141 135.63 102.446 135.756C102.75 135.882 103.027 136.067 103.26 136.3C103.493 136.533 103.678 136.81 103.804 137.114C103.93 137.419 103.995 137.745 103.995 138.075C103.995 138.405 103.93 138.731 103.804 139.036C103.678 139.34 103.493 139.617 103.26 139.85L94.1199 149C93.6496 149.468 93.0133 149.73 92.3499 149.73C91.6866 149.73 91.0503 149.468 90.5799 149C90.3453 148.767 90.1591 148.489 90.0321 148.184C89.905 147.878 89.8396 147.551 89.8396 147.22C89.8396 146.889 89.905 146.562 90.0321 146.256C90.1591 145.951 90.3453 145.673 90.5799 145.44Z" fill="#475B6B"/>
<path d="M105.776 142.826L97.1066 151.495C95.9975 152.604 95.9975 154.403 97.1066 155.512L124.974 183.379C126.083 184.488 127.881 184.488 128.99 183.379L137.659 174.71C138.768 173.6 138.768 171.802 137.659 170.693L109.792 142.826C108.683 141.717 106.885 141.717 105.776 142.826Z" fill="#475B6B"/>
<path d="M126.66 154.7C125.993 151.862 124.617 149.241 122.66 147.08L105.47 150.08V150.37C105.416 151.51 105.816 152.625 106.582 153.471C107.349 154.316 108.42 154.823 109.56 154.88L126.87 155.72C126.81 155.43 126.75 155.07 126.66 154.7Z" fill="url(#paint17_linear)"/>
<path d="M32.51 67.8999V116.48C47.31 129.35 64 134 71.27 126.71C79.27 118.71 72.95 99.5899 57.27 83.9099C49.27 75.9099 40.37 70.3699 32.51 67.8999Z" fill="url(#paint18_linear)"/>
<path d="M9.99996 65.0701C1.27996 73.8201 8.91996 95.6501 27.1 113.83C45.28 132.01 67.1 139.66 75.87 130.9C84.64 122.14 77 100.32 58.8 82.1401C40.6 63.9601 18.79 56.3201 9.99996 65.0701ZM70 125C62.81 132.19 44.89 125.92 30 111C15.11 96.0801 8.80996 78.1601 16 71.0001C23.19 63.8401 41 70.0601 56 85.0001C71 99.9401 77.15 117.82 70 125Z" fill="url(#paint19_linear)"/>
<path d="M178.66 149.61C178.271 149.693 177.866 149.619 177.532 149.403C177.198 149.188 176.964 148.848 176.88 148.46L176.53 146.87C176.337 145.932 176.424 144.959 176.78 144.07C177.135 143.181 177.744 142.416 178.53 141.87C179.096 141.468 179.542 140.92 179.822 140.285C180.102 139.65 180.205 138.951 180.12 138.262C180.035 137.574 179.766 136.921 179.34 136.372C178.915 135.824 178.349 135.401 177.703 135.148C177.056 134.895 176.354 134.821 175.669 134.935C174.985 135.048 174.343 135.344 173.813 135.792C173.283 136.24 172.884 136.823 172.658 137.48C172.432 138.136 172.388 138.841 172.53 139.52C172.614 139.899 172.549 140.296 172.347 140.627C172.144 140.959 171.822 141.199 171.446 141.297C171.071 141.396 170.672 141.345 170.333 141.155C169.994 140.965 169.742 140.652 169.63 140.28V140.15C169.37 138.938 169.444 137.679 169.843 136.505C170.241 135.332 170.951 134.289 171.895 133.486C172.839 132.683 173.983 132.152 175.206 131.947C176.428 131.743 177.683 131.873 178.837 132.324C179.991 132.776 181.001 133.532 181.76 134.511C182.519 135.491 182.999 136.658 183.148 137.888C183.297 139.118 183.11 140.366 182.607 141.499C182.104 142.631 181.303 143.606 180.29 144.32C179.971 144.534 179.724 144.84 179.583 145.197C179.442 145.554 179.413 145.946 179.5 146.32L179.84 147.91C179.902 148.291 179.813 148.681 179.593 148.998C179.373 149.315 179.039 149.535 178.66 149.61Z" fill="#CEE6F7"/>
<path d="M179.7 156.16C180.987 156.16 182.03 155.117 182.03 153.83C182.03 152.543 180.987 151.5 179.7 151.5C178.413 151.5 177.37 152.543 177.37 153.83C177.37 155.117 178.413 156.16 179.7 156.16Z" fill="#CEE6F7"/>
<path opacity="0.3" d="M14.0001 74.1201C10.4301 82.5301 16.8601 98.0001 30.0001 111.12C43.1401 124.24 58.6201 130.7 67.0001 127.12C57.0801 125.05 44.9001 117.96 34.0001 107.12C23.1001 96.2801 16.0601 84.0001 14.0001 74.1201Z" fill="url(#paint20_linear)"/>
<path d="M158.202 69.3319C159.821 69.0663 160.916 67.5255 160.647 65.8905C160.379 64.2555 158.849 63.1455 157.231 63.4111C155.612 63.6767 154.517 65.2175 154.786 66.8525C155.054 68.4875 156.584 69.5975 158.202 69.3319Z" fill="#FFFCC0"/>
<path d="M172.665 65.0317C172.728 63.1937 171.213 61.6498 169.282 61.5834C167.35 61.5169 165.732 62.9531 165.669 64.7911C165.606 66.6291 167.121 68.173 169.053 68.2395C170.984 68.3059 172.602 66.8698 172.665 65.0317Z" fill="#FFFCC0"/>
<defs>
<linearGradient id="paint0_linear" x1="59.4199" y1="263.87" x2="320.86" y2="263.87" gradientUnits="userSpaceOnUse">
<stop offset="0.13" stop-color="#81C6ED" stop-opacity="0"/>
<stop offset="0.19" stop-color="#81C6ED" stop-opacity="0.1"/>
<stop offset="0.32" stop-color="#81C6ED" stop-opacity="0.27"/>
<stop offset="0.43" stop-color="#81C6ED" stop-opacity="0.4"/>
<stop offset="0.53" stop-color="#81C6ED" stop-opacity="0.47"/>
<stop offset="0.6" stop-color="#81C6ED" stop-opacity="0.5"/>
</linearGradient>
<linearGradient id="paint1_linear" x1="221.507" y1="258.033" x2="220.642" y2="171.087" gradientUnits="userSpaceOnUse">
<stop stop-color="#22B9A5"/>
<stop offset="0.28" stop-color="#22B9A5"/>
<stop offset="0.84" stop-color="#08968B"/>
<stop offset="1" stop-color="#08968B"/>
</linearGradient>
<linearGradient id="paint2_linear" x1="195.5" y1="261.82" x2="240" y2="261.82" gradientUnits="userSpaceOnUse">
<stop offset="0.28" stop-color="#3673AC"/>
<stop offset="1" stop-color="#4896D1"/>
</linearGradient>
<linearGradient id="paint3_linear" x1="138.387" y1="55.9076" x2="224.908" y2="86.0646" gradientUnits="userSpaceOnUse">
<stop offset="0.13" stop-color="#CEE6F7"/>
<stop offset="0.24" stop-color="#C7E3F6"/>
<stop offset="0.38" stop-color="#B5DCF4"/>
<stop offset="0.55" stop-color="#97CFF0"/>
<stop offset="0.66" stop-color="#81C6ED"/>
</linearGradient>
<linearGradient id="paint4_linear" x1="-323701" y1="58720.8" x2="-325223" y2="59365.7" gradientUnits="userSpaceOnUse">
<stop stop-color="#22B9A5"/>
<stop offset="0.28" stop-color="#22B9A5"/>
<stop offset="0.84" stop-color="#08968B"/>
<stop offset="1" stop-color="#08968B"/>
</linearGradient>
<linearGradient id="paint5_linear" x1="116.2" y1="140.53" x2="168.71" y2="140.53" gradientUnits="userSpaceOnUse">
<stop offset="0.28" stop-color="#22B9A5"/>
<stop offset="0.84" stop-color="#02958A"/>
</linearGradient>
<linearGradient id="paint6_linear" x1="137.14" y1="165.96" x2="108.59" y2="158.63" gradientUnits="userSpaceOnUse">
<stop stop-color="#2B6396"/>
<stop offset="0.99" stop-color="#4896D1"/>
</linearGradient>
<linearGradient id="paint7_linear" x1="-355504" y1="12164.2" x2="-355575" y2="5057.15" gradientUnits="userSpaceOnUse">
<stop stop-color="#22B9A5"/>
<stop offset="0.28" stop-color="#22B9A5"/>
<stop offset="0.84" stop-color="#08968B"/>
<stop offset="1" stop-color="#08968B"/>
</linearGradient>
<linearGradient id="paint8_linear" x1="194.152" y1="135.544" x2="235.157" y2="238.585" gradientUnits="userSpaceOnUse">
<stop offset="0.48" stop-color="#CEE6F7"/>
<stop offset="0.58" stop-color="#C7E3F6"/>
<stop offset="0.72" stop-color="#B5DCF4"/>
<stop offset="0.89" stop-color="#97CFF0"/>
<stop offset="1" stop-color="#81C6ED"/>
</linearGradient>
<linearGradient id="paint9_linear" x1="203.637" y1="146.156" x2="242.481" y2="125.41" gradientUnits="userSpaceOnUse">
<stop stop-color="#4896D1"/>
<stop offset="1" stop-color="#81C6ED"/>
</linearGradient>
<linearGradient id="paint10_linear" x1="134.17" y1="261.82" x2="178.67" y2="261.82" gradientUnits="userSpaceOnUse">
<stop offset="0.46" stop-color="#3673AC"/>
<stop offset="1" stop-color="#4896D1"/>
</linearGradient>
<linearGradient id="paint11_linear" x1="228.559" y1="121.422" x2="160.42" y2="92.0765" gradientUnits="userSpaceOnUse">
<stop stop-color="#EAF7FF"/>
<stop offset="0.32" stop-color="#CFE6F7"/>
<stop offset="0.33" stop-color="#CEE6F7"/>
<stop offset="0.74" stop-color="#9BD1F0"/>
</linearGradient>
<linearGradient id="paint12_linear" x1="152.39" y1="123.66" x2="209.36" y2="106.98" gradientUnits="userSpaceOnUse">
<stop stop-color="white"/>
<stop offset="1" stop-color="white" stop-opacity="0"/>
</linearGradient>
<linearGradient id="paint13_linear" x1="-523765" y1="168585" x2="-524762" y2="169377" gradientUnits="userSpaceOnUse">
<stop offset="0.28" stop-color="#22B9A5"/>
<stop offset="0.84" stop-color="#02958A"/>
</linearGradient>
<linearGradient id="paint14_linear" x1="7535.4" y1="-4933.61" x2="8549.88" y2="-4892.71" gradientUnits="userSpaceOnUse">
<stop offset="0.28" stop-color="#3673AC"/>
<stop offset="1" stop-color="#4896D1"/>
</linearGradient>
<linearGradient id="paint15_linear" x1="706.568" y1="-5808.42" x2="966.591" y2="-5808.42" gradientUnits="userSpaceOnUse">
<stop stop-color="#4896D1"/>
<stop offset="1" stop-color="#81C6ED"/>
</linearGradient>
<linearGradient id="paint16_linear" x1="4235.4" y1="-15209.4" x2="2624.4" y2="-16417.8" gradientUnits="userSpaceOnUse">
<stop stop-color="#4896D1"/>
<stop offset="1" stop-color="#81C6ED"/>
</linearGradient>
<linearGradient id="paint17_linear" x1="3015.25" y1="1496.22" x2="2637.97" y2="1256.61" gradientUnits="userSpaceOnUse">
<stop stop-color="#2B6396"/>
<stop offset="0.99" stop-color="#4896D1"/>
</linearGradient>
<linearGradient id="paint18_linear" x1="23.54" y1="86.9699" x2="78.63" y2="119.3" gradientUnits="userSpaceOnUse">
<stop stop-color="#81C6ED" stop-opacity="0.5"/>
<stop offset="0.13" stop-color="#81C6ED" stop-opacity="0.47"/>
<stop offset="0.32" stop-color="#81C6ED" stop-opacity="0.4"/>
<stop offset="0.53" stop-color="#81C6ED" stop-opacity="0.27"/>
<stop offset="0.77" stop-color="#81C6ED" stop-opacity="0.1"/>
<stop offset="0.88" stop-color="#81C6ED" stop-opacity="0"/>
</linearGradient>
<linearGradient id="paint19_linear" x1="474.302" y1="-14380.5" x2="5819.4" y2="-14380.5" gradientUnits="userSpaceOnUse">
<stop stop-color="#4896D1"/>
<stop offset="1" stop-color="#81C6ED"/>
</linearGradient>
<linearGradient id="paint20_linear" x1="715.785" y1="-10403.7" x2="3629.38" y2="-10403.7" gradientUnits="userSpaceOnUse">
<stop stop-color="#4896D1"/>
<stop offset="1" stop-color="#81C6ED"/>
</linearGradient>
</defs>
</svg>
