<svg id="Layer_13" data-name="Layer 13" xmlns="http://www.w3.org/2000/svg" xmlns:xlink="http://www.w3.org/1999/xlink" width="550" height="400" viewBox="0 0 550 400"><defs><style>.cls-1{fill:url(#linear-gradient);}.cls-2{fill:url(#linear-gradient-2);}.cls-3{fill:#4896d1;}.cls-10,.cls-13,.cls-18,.cls-4,.cls-8,.cls-9{fill:none;stroke-miterlimit:10;}.cls-13,.cls-4{stroke:#4896d1;}.cls-4{stroke-width:4.48px;}.cls-5{fill:url(#linear-gradient-3);}.cls-6{fill:url(#linear-gradient-4);}.cls-7{fill:#f8c22c;}.cls-10,.cls-18,.cls-8,.cls-9{stroke-width:11px;}.cls-8{stroke:url(#linear-gradient-5);}.cls-10,.cls-11,.cls-12,.cls-15,.cls-16,.cls-18,.cls-9{fill-rule:evenodd;}.cls-9{stroke:url(#linear-gradient-6);}.cls-10{stroke:url(#linear-gradient-7);}.cls-11{fill:url(#linear-gradient-8);}.cls-12{fill:url(#linear-gradient-9);}.cls-13{stroke-width:5.69px;}.cls-14{fill:#81c6ed;}.cls-15,.cls-19{fill:#0065ab;}.cls-16{fill:url(#linear-gradient-10);}.cls-17{fill:#cee6f7;}.cls-18{stroke-linecap:round;stroke:url(#linear-gradient-11);}.cls-20{fill:#798893;}.cls-21{fill:#919fa8;}.cls-22{fill:#f54f47;}.cls-23{opacity:0.51;fill:url(#linear-gradient-12);}.cls-24{fill:#fff;}</style><linearGradient id="linear-gradient" x1="286.94" y1="61.92" x2="286.94" y2="351.45" gradientUnits="userSpaceOnUse"><stop offset="0.13" stop-color="#0065ab" stop-opacity="0"/><stop offset="0.25" stop-color="#0065ab" stop-opacity="0.18"/><stop offset="0.39" stop-color="#0065ab" stop-opacity="0.36"/><stop offset="0.51" stop-color="#0065ab" stop-opacity="0.46"/><stop offset="0.6" stop-color="#0065ab" stop-opacity="0.5"/><stop offset="0.67" stop-color="#0065ab" stop-opacity="0.46"/><stop offset="0.76" stop-color="#0065ab" stop-opacity="0.36"/><stop offset="0.87" stop-color="#0065ab" stop-opacity="0.19"/><stop offset="0.96" stop-color="#0065ab" stop-opacity="0"/></linearGradient><linearGradient id="linear-gradient-2" x1="361.42" y1="121.27" x2="361.42" y2="298.34" xlink:href="#linear-gradient"/><linearGradient id="linear-gradient-3" x1="4839.24" y1="-100.59" x2="4776.52" y2="-64.38" gradientTransform="matrix(-0.99, 0.12, 0.12, 0.99, 5015.6, -404.03)" gradientUnits="userSpaceOnUse"><stop offset="0.05" stop-color="#cee6f7"/><stop offset="0.17" stop-color="#c7e3f6"/><stop offset="0.34" stop-color="#b5dcf4"/><stop offset="0.54" stop-color="#97cff0"/><stop offset="0.66" stop-color="#81c6ed"/></linearGradient><linearGradient id="linear-gradient-4" x1="4793.56" y1="-94.04" x2="4826.08" y2="-94.04" gradientTransform="matrix(-0.99, 0.12, 0.12, 0.99, 5015.6, -404.03)" gradientUnits="userSpaceOnUse"><stop offset="0.28" stop-color="#22b9a5"/><stop offset="0.84" stop-color="#02958a"/></linearGradient><linearGradient id="linear-gradient-5" x1="4719" y1="-138.2" x2="4719" y2="-98.05" gradientTransform="translate(-4410.92 -296.75) rotate(7.05)" gradientUnits="userSpaceOnUse"><stop offset="0.28" stop-color="#22b9a5"/><stop offset="0.55" stop-color="#1fb6a3"/><stop offset="0.79" stop-color="#02958a"/></linearGradient><linearGradient id="linear-gradient-6" x1="5118.95" y1="310.59" x2="5118.95" y2="226.28" gradientTransform="translate(-4855.11)" xlink:href="#linear-gradient-4"/><linearGradient id="linear-gradient-7" x1="220.99" y1="301.99" x2="220.99" y2="224.02" gradientTransform="matrix(-1, 0, 0, 1, 425.46, 0)" xlink:href="#linear-gradient-4"/><linearGradient id="linear-gradient-8" x1="4682.04" y1="-149.29" x2="4682.04" y2="-38.46" gradientTransform="translate(-4410.92 -296.75) rotate(7.05)" gradientUnits="userSpaceOnUse"><stop offset="0.48" stop-color="#cee6f7"/><stop offset="0.58" stop-color="#c7e3f6"/><stop offset="0.72" stop-color="#b5dcf4"/><stop offset="0.89" stop-color="#97cff0"/><stop offset="1" stop-color="#81c6ed"/></linearGradient><linearGradient id="linear-gradient-9" x1="4414.33" y1="-50.89" x2="4359.38" y2="-50.89" gradientTransform="translate(-4064 -819.85) rotate(13.87)" gradientUnits="userSpaceOnUse"><stop offset="0" stop-color="#4896d1"/><stop offset="1" stop-color="#81c6ed"/></linearGradient><linearGradient id="linear-gradient-10" x1="4659.34" y1="-119.7" x2="4691.54" y2="-151.89" gradientTransform="translate(-4410.92 -296.75) rotate(7.05)" gradientUnits="userSpaceOnUse"><stop offset="0" stop-color="#cee6f7"/><stop offset="1" stop-color="#81c6ed"/></linearGradient><linearGradient id="linear-gradient-11" x1="4324.4" y1="-68.4" x2="4373.28" y2="-68.4" gradientTransform="translate(-4064 -819.85) rotate(13.87)" xlink:href="#linear-gradient-4"/><linearGradient id="linear-gradient-12" x1="154.27" y1="119.6" x2="247.08" y2="119.6" gradientTransform="translate(126.02)" gradientUnits="userSpaceOnUse"><stop offset="0" stop-color="#f89997"/><stop offset="1" stop-color="#e62700"/></linearGradient></defs><title>Access denied</title><polygon class="cls-1" points="524.5 61.92 234.97 351.45 49.38 351.45 338.13 62.7 524.5 61.92"/><polygon class="cls-2" points="527.02 121.27 350.24 298.34 195.82 298.34 372.09 121.79 527.02 121.27"/><circle class="cls-3" cx="202.38" cy="102.16" r="10.27"/><line class="cls-4" x1="199.68" y1="99.17" x2="199.15" y2="57.61"/><circle class="cls-3" cx="199.14" cy="56.11" r="4.04"/><path class="cls-5" d="M261.77,137.27,260.71,93.5a28.65,28.65,0,0,0-28.79-27.1h0a28.65,28.65,0,0,0-28.27,25.21l-1.24,47.72Z"/><circle class="cls-6" cx="231.09" cy="97.67" r="16.26"/><ellipse class="cls-7" cx="227.41" cy="98.44" rx="3.09" ry="3.12" transform="translate(-5.77 14.58) rotate(-3.63)"/><ellipse class="cls-7" cx="235.61" cy="97.92" rx="3.09" ry="3.12" transform="translate(-5.72 15.1) rotate(-3.63)"/><path class="cls-8" d="M263.65,143.78S271,182,315.33,183"/><path class="cls-9" d="M257.89,229.43s17.06,24.47,8.5,80.32"/><path class="cls-10" d="M212.39,228.07s-16.54,15.16-13.74,73.66"/><path class="cls-11" d="M266.06,131.2l-56.31-2.58-2.26,107L274,233.52A13.69,13.69,0,0,0,287.2,219l-3.66-64.25Z"/><path class="cls-12" d="M192.39,129.64l17.36-1,15.12,23.79,1.67,62.91a19.68,19.68,0,0,1-19,20.31h0a21.41,21.41,0,0,1-22.06-21.56l.33-42.68C186.31,143.79,192.39,129.64,192.39,129.64Z"/><line class="cls-13" x1="286.06" y1="209.09" x2="185.47" y2="209.34"/><path class="cls-14" d="M240.11,165.87l.49,24.92a4.11,4.11,0,0,0,4.06,4l24.58.26a4.09,4.09,0,0,0,4.15-4.22l-.77-24.59a4.11,4.11,0,0,0-4-4l-24.31-.6A4.1,4.1,0,0,0,240.11,165.87Z"/><path class="cls-15" d="M272.14,298A17.65,17.65,0,0,0,254.5,315.6H299S291.06,298,272.14,298Z"/><path class="cls-15" d="M198.38,298A17.65,17.65,0,0,1,216,315.6h-38.3S179.46,298,198.38,298Z"/><line class="cls-13" x1="216.02" y1="315.6" x2="177.72" y2="315.6"/><line class="cls-13" x1="254.5" y1="315.6" x2="299" y2="315.6"/><polygon class="cls-16" points="224.87 152.41 283.54 154.72 266.06 131.2 209.75 128.62 224.87 152.41"/><path class="cls-17" d="M265.6,167.3a2,2,0,0,0,1.82,2,1.79,1.79,0,0,0,1.77-1.86,2,2,0,0,0-1.77-2A1.78,1.78,0,0,0,265.6,167.3Z"/><path class="cls-17" d="M259.92,167.09a2.06,2.06,0,0,0,1.94,2.06,1.86,1.86,0,0,0,1.89-1.92,2.07,2.07,0,0,0-1.9-2.07A1.86,1.86,0,0,0,259.92,167.09Z"/><path class="cls-17" d="M253.84,166.86a2.16,2.16,0,0,0,2.09,2.13,1.94,1.94,0,0,0,2-2,2.17,2.17,0,0,0-2-2.14A2,2,0,0,0,253.84,166.86Z"/><path class="cls-18" d="M196.87,144.41s-7.87,27.42-20,29.09c-7.5,1-17.66-18.5-20-25"/><path class="cls-19" d="M168.28,124.21a3.56,3.56,0,0,0-3.35,3.6v9.65a.74.74,0,0,1-.74.74h0a.74.74,0,0,1-.74-.74V124.17a11.84,11.84,0,0,0-11.84-11.84h0a11.84,11.84,0,0,0-11.83,11.84V139a16,16,0,0,0,16,16h0a16,16,0,0,0,16-16V127.66A3.45,3.45,0,0,0,168.28,124.21Z"/><rect class="cls-20" x="318.75" y="160.5" width="10.18" height="103.22"/><rect class="cls-21" x="325.39" y="160.5" width="1.93" height="103.22"/><ellipse class="cls-22" cx="323.85" cy="115.44" rx="49.25" ry="48.8"/><path class="cls-23" d="M373.1,115.44A48.64,48.64,0,0,0,351.38,75l-71.09,63.25a49.3,49.3,0,0,0,43.56,26C351.05,164.24,373.1,142.39,373.1,115.44Z"/><rect class="cls-24" x="288.78" y="108.75" width="70.13" height="13.29"/><circle class="cls-19" cx="323.99" cy="183.99" r="13.51"/></svg>