<?xml version="1.0" encoding="UTF-8"?>
<svg width="16px" height="16px" viewBox="0 0 16 16" version="1.1" xmlns="http://www.w3.org/2000/svg" xmlns:xlink="http://www.w3.org/1999/xlink">
    <!-- Generator: Sketch 49.3 (51167) - http://www.bohemiancoding.com/sketch -->
    <title>Group 5 Copy</title>
    <desc>Created with Sketch.</desc>
    <defs></defs>
    <g id="services-misc" stroke="none" stroke-width="1" fill="none" fill-rule="evenodd">
        <g id="Group-5-Copy">
            <circle id="Oval" fill="#565656" cx="8" cy="8" r="8"></circle>
            <path d="M3.5576729,4.14159062 L3.88704562,4.48125625 C3.61012395,5.05906529 3.68372593,5.75011378 4.07566077,6.25216249 C4.22867919,5.90329773 4.42350545,5.5755924 4.65558198,5.27671249 L5.0553335,5.69185937 C3.86072559,7.30433295 4.0087936,9.57986297 5.40159713,11.0132875 L4.6837335,11.7535843 C4.61282764,11.8282618 4.5859406,11.9362765 4.61320046,12.0369405 C4.64046032,12.1376044 4.71772566,12.2156243 4.81589137,12.2416108 C4.91405709,12.2675973 5.01820947,12.2376024 5.08911532,12.162925 L5.83794562,11.3906937 C7.23576897,12.4852909 9.16957679,12.4852909 10.5674001,11.3906937 L11.7328729,12.5954906 L12.1269941,12.1803437 L3.96305471,3.73225 L3.5576729,4.14159062 Z M10.156388,10.9668375 C9.58396561,11.3969121 8.89401323,11.6286622 8.18578197,11.62875 C6.32006368,11.62875 4.80760017,10.069022 4.80760017,8.14499998 C4.80850279,7.41431331 5.03422538,6.70276966 5.45226986,6.11281249 L10.156388,10.9668375 Z M8.18578197,4.080625 C7.34395646,4.08082237 6.52460324,4.36077834 5.84920622,4.87898437 L6.24895774,5.29413124 C7.59234748,4.32723021 9.4148354,4.49367122 10.5725442,5.68898825 C11.730253,6.88430528 11.889469,8.76394382 10.9502607,10.1481562 L11.3500123,10.5633031 C12.2352418,9.33016892 12.3716686,7.68805581 11.7027449,6.31760648 C11.0338212,4.94715715 9.67356124,4.08195717 8.18578197,4.080625 Z M6.33341228,3.91514687 C5.86966776,3.53725559 5.24409664,3.44731629 4.69780926,3.67999375 L5.45508501,4.4638375 C5.72661995,4.24700851 6.02131042,4.06291551 6.33341228,3.91514687 Z M8.18578197,5.41606249 C8.0458531,5.41606249 7.93241833,5.53304209 7.93241833,5.67734374 L7.93241833,7.01278124 L8.43914561,7.53824686 L8.43914561,5.67734374 C8.43914561,5.53304209 8.32571084,5.41606249 8.18578197,5.41606249 Z M10.249288,9.17270623 C10.2253756,9.2314462 10.1812629,9.27900523 10.1254214,9.30624998 L9.23301833,8.37144373 L10.1338668,8.82433123 C10.2586096,8.8880405 10.3101487,9.04360073 10.249288,9.17270623 Z M11.977791,4.034175 C12.5011421,4.57712798 12.5975858,5.4183233 12.2114486,6.07216874 C11.7253396,5.07018705 10.9060016,4.28191775 9.90302439,3.85127812 C10.5468561,3.38816568 11.4195192,3.46509354 11.977791,4.034175 Z" id="Shape" fill="#FFFFFF" fill-rule="nonzero"></path>
        </g>
    </g>
</svg>